<svg width="30" height="31" viewBox="0 0 30 31" fill="none" xmlns="http://www.w3.org/2000/svg">
<g clip-path="url(#clip0_558_220)">
<path d="M25.0381 5.9685C23.1736 5.11296 21.1742 4.48264 19.0836 4.12163C19.0455 4.11466 19.0075 4.13208 18.9879 4.1669C18.7307 4.62426 18.4459 5.22091 18.2465 5.68988C15.9979 5.35326 13.761 5.35326 11.5585 5.68988C11.359 5.21049 11.0639 4.62426 10.8056 4.1669C10.7859 4.13324 10.7479 4.11583 10.7098 4.12163C8.62046 4.48149 6.62101 5.11181 4.75531 5.9685C4.73916 5.97546 4.72531 5.98708 4.71612 6.00216C0.923597 11.6681 -0.115336 17.1948 0.39433 22.653C0.396636 22.6797 0.411626 22.7052 0.432382 22.7215C2.93458 24.559 5.35839 25.6746 7.73719 26.414C7.77526 26.4256 7.8156 26.4117 7.83983 26.3803C8.40253 25.6119 8.90414 24.8017 9.33421 23.9496C9.35959 23.8997 9.33537 23.8405 9.28349 23.8207C8.48787 23.5189 7.73027 23.151 7.00152 22.7331C6.94388 22.6994 6.93926 22.617 6.99229 22.5775C7.14565 22.4626 7.29904 22.343 7.44548 22.2223C7.47197 22.2002 7.50889 22.1956 7.54004 22.2095C12.3276 24.3954 17.5108 24.3954 22.2419 22.2095C22.273 22.1944 22.3099 22.1991 22.3376 22.2211C22.4841 22.3419 22.6374 22.4626 22.7919 22.5775C22.845 22.617 22.8415 22.6994 22.7839 22.7331C22.0551 23.1591 21.2975 23.5189 20.5007 23.8196C20.4489 23.8393 20.4258 23.8997 20.4512 23.9496C20.8905 24.8005 21.3921 25.6107 21.9444 26.3792C21.9675 26.4117 22.009 26.4256 22.047 26.414C24.4374 25.6746 26.8612 24.559 29.3634 22.7215C29.3853 22.7052 29.3991 22.6808 29.4014 22.6541C30.0114 16.3439 28.3798 10.8625 25.0762 6.00331C25.0681 5.98708 25.0543 5.97546 25.0381 5.9685ZM10.0492 19.3295C8.60777 19.3295 7.4201 18.0062 7.4201 16.3811C7.4201 14.7559 8.58473 13.4326 10.0492 13.4326C11.5251 13.4326 12.7013 14.7675 12.6782 16.3811C12.6782 18.0062 11.5135 19.3295 10.0492 19.3295ZM19.7697 19.3295C18.3283 19.3295 17.1406 18.0062 17.1406 16.3811C17.1406 14.7559 18.3052 13.4326 19.7697 13.4326C21.2456 13.4326 22.4218 14.7675 22.3987 16.3811C22.3987 18.0062 21.2456 19.3295 19.7697 19.3295Z" fill="#D9D9D9"/>
</g>
<defs>
<clipPath id="clip0_558_220">
<rect width="29.254" height="29.254" fill="white" transform="translate(0.273438 0.90332)"/>
</clipPath>
</defs>
</svg>
