<svg width="30" height="30" viewBox="0 0 30 30" fill="none" xmlns="http://www.w3.org/2000/svg">
<g clip-path="url(#clip0_558_221)">
<path fill-rule="evenodd" clip-rule="evenodd" d="M14.9125 0.060791C6.81749 0.060791 0.273438 6.65308 0.273438 14.8086C0.273438 21.3278 4.46643 26.8462 10.2832 28.7993C11.0105 28.9461 11.2769 28.482 11.2769 28.0915C11.2769 27.7496 11.2529 26.5777 11.2529 25.3566C7.18066 26.2358 6.33265 23.5986 6.33265 23.5986C5.67822 21.8894 4.70855 21.4501 4.70855 21.4501C3.37571 20.5466 4.80564 20.5466 4.80564 20.5466C6.28411 20.6443 7.0599 22.0605 7.0599 22.0605C8.36847 24.3066 10.4771 23.672 11.3254 23.2812C11.4465 22.329 11.8345 21.6697 12.2465 21.3035C8.99863 20.9616 5.58143 19.692 5.58143 14.0272C5.58143 12.4156 6.16275 11.0972 7.08387 10.0718C6.93854 9.70561 6.42944 8.19148 7.2295 6.16495C7.2295 6.16495 8.46556 5.77421 11.2526 7.67878C12.4458 7.35596 13.6764 7.19174 14.9125 7.19035C16.1486 7.19035 17.4086 7.36145 18.5721 7.67878C21.3595 5.77421 22.5955 6.16495 22.5955 6.16495C23.3956 8.19148 22.8862 9.70561 22.7409 10.0718C23.6863 11.0972 24.2436 12.4156 24.2436 14.0272C24.2436 19.692 20.8264 20.9371 17.5542 21.3035C18.0876 21.7674 18.5479 22.6463 18.5479 24.0382C18.5479 26.0158 18.5239 27.6031 18.5239 28.0912C18.5239 28.482 18.7906 28.9461 19.5175 28.7996C25.3343 26.8459 29.5273 21.3278 29.5273 14.8086C29.5513 6.65308 22.9833 0.060791 14.9125 0.060791Z" fill="#D9D9D9"/>
</g>
<defs>
<clipPath id="clip0_558_221">
<rect width="29.254" height="29.254" fill="white" transform="translate(0.273438 0.060791)"/>
</clipPath>
</defs>
</svg>
