<svg width="924" height="768" viewBox="0 0 924 768" fill="none" xmlns="http://www.w3.org/2000/svg">
<path d="M347.58 396.18C340.49 396.2 333.87 394.7 327.45 391.25L330.98 392.11L344.1 395.32L347.58 396.18Z" fill="url(#paint0_radial_364_79)"/>
<path d="M538.37 501.21H535.99C531.3 485.78 519.97 472 507.15 460.87C490.69 446.57 471.35 435.29 455.16 420.73C438.95 406.16 425.64 386.9 426.16 365.99C418.91 383.31 423.71 403.38 434.01 419.32C444.31 435.26 459.51 447.86 474.54 460.14C489.57 472.42 504.89 484.91 515.46 500.69C515.57 500.86 515.68 501.04 515.79 501.21H443.36C428.26 490.87 415.68 478.38 405.05 463.19C404.43 462.3 403.86 461.36 403.4 460.39C402.72 458.93 402.73 458.34 402.61 457.37C399.72 470.91 400.7 486.91 404.01 501.21H398.83C393.81 492.92 390.84 483.48 389.44 474.01C387.41 460.3 388.39 446.38 389.36 432.57C390.04 422.91 390.73 413.26 391.41 403.6C391.81 398.15 392.19 392.68 391.51 387.27C387.74 391.37 385.22 396.44 384.3 401.75C383.65 405.53 383.78 409.44 382.47 413.08C380.56 418.47 375.84 422.49 371.63 426.6C355.37 442.54 345.41 464.27 342.58 486.06C351.68 463.85 365.57 443.33 383.21 426.08C383.15 433.79 383.07 441.48 383 449.18C382.97 452.37 383.43 455.85 383.11 459.02C382.82 461.8 380.54 463.85 378.82 466.08C370.43 477 362.93 488.64 357.86 501.23H321.49C321.47 500.61 321.44 499.97 321.43 499.36C321.27 494.47 321.33 489.54 321.48 484.63C321.54 482.61 320.69 472.81 322.75 471.84C318.05 474.02 314.03 477.48 311.33 481.66C311.73 467.01 320.07 453.76 326.31 440.3C329.98 432.39 332.98 424.22 337.02 416.45C341.04 408.7 346.22 401.28 353.43 395.86C351.46 396.07 349.52 396.19 347.63 396.21C382.62 394.43 413.57 374.55 426.28 345.49C430.38 336.08 432.7 325.77 439.34 317.71C434.1 337.49 438.01 359.21 449.87 376.36C463.88 396.6 487.32 409.4 504.9 427.1C524.89 447.22 536.81 473.96 538.36 501.24L538.37 501.21Z" fill="url(#paint1_radial_364_79)"/>
<path d="M505.5 426.58C498.6 419.64 490.71 413.36 483.08 407.29C471.26 397.9 459.04 388.19 450.55 375.94C438.86 359.07 434.96 337.34 440.13 317.86L441.04 314.44L438.72 317.24C433.94 323.02 431.35 330.03 428.84 336.82C427.81 339.58 426.76 342.45 425.55 345.18C412.98 373.97 382.36 393.69 347.56 395.44V395.46C346.38 395.46 345.24 395.43 344.11 395.33C339.44 395.01 335.13 393.95 330.99 392.12C330.27 391.82 329.59 391.48 328.88 391.12H328.86C328.86 391.12 328.76 391.09 328.72 391.04C328.43 390.91 328.16 390.77 327.88 390.61L327.47 391.26L327.07 391.9C333.31 395.25 340.05 396.92 347.52 396.92H347.73C348.81 396.92 349.92 396.87 351.04 396.81C345.46 401.48 340.63 407.82 336.31 416.12C333.86 420.86 331.75 425.81 329.72 430.61C328.4 433.69 327.03 436.89 325.6 439.99C324.34 442.71 322.96 445.47 321.64 448.14C316.33 458.79 310.87 469.8 310.55 481.64L310.47 484.44L312.03 482.04C314.22 478.66 317.34 475.73 320.96 473.63C320.55 475.55 320.53 478.57 320.67 482.64C320.7 483.51 320.72 484.21 320.7 484.61C320.53 490.24 320.51 494.92 320.65 499.39C320.67 500.01 320.7 500.63 320.71 501.23H322.3C322.28 500.61 322.25 499.97 322.24 499.34C322.1 494.92 322.13 490.25 322.3 484.66C322.3 484.25 322.28 483.5 322.25 482.59C322.03 476.27 322.31 472.87 323.12 472.5L322.75 471.83L322.4 471.18C318.46 473.01 314.95 475.74 312.28 479.01C313.27 468.46 318.24 458.45 323.07 448.76C324.39 446.07 325.77 443.31 327.04 440.58C328.49 437.47 329.85 434.26 331.17 431.16C333.19 426.39 335.29 421.45 337.73 416.78C342.42 407.74 347.72 401.08 353.94 396.43H353.96C386.72 392.73 414.98 373.31 427.02 345.76C428.23 343 429.31 340.1 430.34 337.32C432.36 331.84 434.46 326.2 437.71 321.26C433.83 340.14 438.03 360.62 449.21 376.76C457.81 389.19 470.12 398.97 482.04 408.43C489.64 414.48 497.5 420.73 504.33 427.61C524.03 447.46 535.95 474.21 537.54 501.24H539.13C537.54 473.86 525.46 446.71 505.49 426.61L505.5 426.58ZM507.71 460.33C499.8 453.47 491.11 447.2 482.7 441.15C473.58 434.57 464.12 427.77 455.72 420.19C431.36 398.29 426.64 378.64 426.96 366.01L427.07 361.8L425.42 365.72C418.79 381.58 421.75 401.76 433.33 419.7C443.91 436.08 459.91 449.16 474.02 460.7L474.27 460.91C489.05 472.99 504.33 485.48 514.77 501.08C514.8 501.13 514.83 501.18 514.87 501.22H516.74C516.55 500.92 516.34 500.6 516.14 500.3C505.56 484.52 490.19 471.95 475.32 459.8L475.08 459.59C461.05 448.13 445.14 435.14 434.69 418.94C424.31 402.89 420.99 385.05 425.44 370.32C426.27 383.17 432.45 401.35 454.6 421.26C463.07 428.89 472.56 435.72 481.72 442.31C490.09 448.35 498.75 454.59 506.6 461.41C517.45 470.83 530.04 484.64 535.15 501.21H536.8C531.67 484.14 518.78 469.97 507.69 460.33H507.71ZM405.73 462.79C405.06 461.84 404.54 460.95 404.14 460.09C403.6 458.96 403.54 458.44 403.46 457.71L402.81 452.7L401.84 457.23C399.11 470.05 399.63 485.9 403.17 501.21H404.81C401.55 487.31 400.81 472.94 402.78 460.87C403.21 461.74 403.73 462.63 404.4 463.59C414.82 478.45 427.25 490.89 442.06 501.22H444.75C429.32 490.76 416.45 478.07 405.74 462.8L405.73 462.79ZM390.23 473.91C388.2 460.21 389.2 446.18 390.15 432.61L392.2 403.64C392.58 398.25 392.98 392.68 392.3 387.18L392.09 385.5L390.9 386.79C387.02 391.02 384.46 396.15 383.51 401.63C383.27 403 383.13 404.39 383 405.73C382.75 408.22 382.51 410.58 381.71 412.83C380.11 417.37 376.32 421 372.68 424.51C372.12 425.03 371.58 425.56 371.04 426.08C355.39 441.43 344.71 463.25 341.77 485.95L340.99 491.94L343.31 486.3C352.08 464.9 365.57 444.75 382.38 427.94L382.19 449.17C382.17 450.41 382.24 451.7 382.3 452.95C382.4 454.95 382.49 457.03 382.3 458.92C382.09 460.89 380.76 462.48 379.36 464.16C378.95 464.64 378.53 465.13 378.17 465.62C368.45 478.27 361.5 489.92 356.99 501.2H358.69C363.16 490.22 369.97 478.83 379.46 466.46C379.83 466 380.22 465.52 380.62 465.06C382.1 463.28 383.64 461.45 383.89 459.05C384.08 457.05 383.99 454.93 383.89 452.87C383.83 451.63 383.76 450.36 383.78 449.15L384 424.17L382.62 425.54C366.57 441.24 353.43 459.91 344.36 479.88C348.25 459.76 358.2 440.79 372.2 427.08C372.72 426.56 373.28 426.03 373.82 425.51C377.59 421.89 381.49 418.14 383.21 413.27C384.07 410.85 384.32 408.31 384.56 405.85C384.7 404.53 384.83 403.16 385.07 401.85C385.86 397.23 387.87 392.87 390.89 389.14C391.29 393.92 390.94 398.8 390.6 403.54L388.55 432.51C387.58 446.16 386.58 460.25 388.65 474.11C390.16 484.31 393.32 493.48 397.95 501.2H399.75C395 493.49 391.76 484.25 390.23 473.9V473.91Z" fill="url(#paint2_radial_364_79)"/>
<path d="M682.74 213.28C666.39 204.52 653.08 190.95 645.24 175.02C650.36 169.04 654.63 162.43 657.88 155.42C667.16 156.66 673.67 164.55 677.61 172.43C681.55 180.31 684.16 189.03 690.42 195.49C700.9 206.29 718.63 207.75 734.15 205.8C721.48 215.48 701.96 214.5 688.06 206.41C674.16 198.32 665.19 184.49 659.62 170.17C667.39 183.79 670.3 200.37 682.5 210.83C687.5 215.12 693.72 218.01 700.13 220.14C706.59 222.29 713.6 223.72 720.32 222.4C728.07 220.88 734.57 215.81 739.12 209.79C743.67 203.78 746.51 196.83 749.31 189.96C742.07 198.83 729.96 204.09 717.97 203.56C705.98 203.03 694.46 196.73 688.17 187.26C683.97 180.94 682.1 173.58 679.1 166.7C676.1 159.83 670.92 154.98 663.53 152.14C662.49 152.81 661.44 153.48 660.4 154.15C692.27 127.4 719.76 96.28 747.69 66.07C758.07 54.85 768.38 43.57 778.62 32.24C783.59 26.73 788.45 21.12 793.5 15.68C795.92 13.08 806.31 5.11003 806.31 1.91003C773.37 21.89 743.07 46.72 712.8 70C698.78 80.78 684.87 91.68 671.08 102.7C664.34 108.09 657.62 113.51 650.93 118.95C646.58 122.49 640.22 130.47 633.91 130.59C628.5 130.69 625.01 125.57 621.95 121.43C614.45 111.31 603.02 103.74 590.26 100.45C601.38 105.93 609.54 116.85 616.56 126.54C609.23 123.1 601.9 119.66 594.57 116.22C602.63 128.6 604.14 144.45 598.55 157.95C604.52 157.25 610.43 161.57 611.87 166.99C613.32 172.41 610.73 178.35 606.17 182C601.61 185.64 595.37 187.15 589.35 186.93C596.53 190.66 606.05 190.12 612.69 185.61C619.33 181.1 622.75 172.85 621.08 165.38C634.18 180.12 647.42 194.99 663.57 206.85C668.89 210.76 674.49 214.31 680.09 217.87L682.72 213.28H682.74Z" fill="url(#paint3_radial_364_79)"/>
<path d="M714.92 223.64C710.48 223.64 705.58 222.71 699.89 220.82C692.34 218.31 686.48 215.22 681.98 211.36C673.79 204.34 669.67 194.49 665.68 184.97C665.44 184.4 665.2 183.83 664.96 183.25C662.71 179.32 660.69 175.04 658.88 170.41L660.33 169.81C662.66 173.9 664.58 178.31 666.4 182.63C672.28 192.88 679.67 200.64 688.48 205.77C700.29 212.64 718.3 214.95 731.29 206.84C719.53 207.95 700.98 207.46 689.82 195.97C685.14 191.15 682.45 185.06 679.85 179.17C678.91 177.04 677.93 174.83 676.88 172.73C674.12 167.22 668.09 157.87 658.35 156.23C655.16 162.98 651.06 169.33 646.15 175.11C653.95 190.71 667.06 204.03 683.12 212.63L682.32 213.91C665.83 205.08 652.4 191.37 644.49 175.32L644.29 174.91L644.59 174.56C649.67 168.63 653.89 162.09 657.12 155.12L657.36 154.6L657.96 154.68C668.79 156.12 675.35 166.22 678.3 172.11C679.37 174.24 680.35 176.46 681.3 178.61C683.85 184.38 686.49 190.35 690.98 194.98C702.64 206.99 722.95 206.45 734.02 205.05L736.79 204.7L734.63 206.35C722.56 215.57 702.79 215.85 687.61 207.01C680.87 203.09 674.94 197.68 669.87 190.84C673.09 198.05 676.9 205.02 683.02 210.26C687.36 213.98 693.04 216.98 700.38 219.42C708.27 222.04 714.55 222.75 720.13 221.65C726.95 220.31 733.45 215.94 738.44 209.34C742.08 204.53 744.63 199.07 746.92 193.61C739.42 200.73 728.64 204.75 717.91 204.27C705.6 203.73 693.93 197.34 687.47 187.61C684.6 183.29 682.78 178.44 681.02 173.74C680.18 171.49 679.31 169.17 678.33 166.94C675.48 160.41 670.52 155.7 663.59 152.94L660.82 154.72L659.83 153.57C687.42 130.41 712.08 103.59 735.91 77.65C739.62 73.61 743.33 69.57 747.05 65.55C757.37 54.39 767.77 43.01 777.97 31.72C779.87 29.61 781.76 27.49 783.65 25.37C786.64 22 789.74 18.52 792.86 15.15C793.55 14.4 794.86 13.25 796.36 11.92C798.95 9.63 802.85 6.18 804.59 3.78C778.44 19.86 753.7 39.11 729.76 57.74C724.25 62.02 718.76 66.3 713.27 70.52C699.31 81.25 685.28 92.26 671.56 103.22C664.91 108.53 658.13 114 651.41 119.47C650.37 120.32 649.19 121.44 647.94 122.64C643.95 126.45 638.98 131.2 633.88 131.3C628.34 131.41 624.81 126.65 621.71 122.45L621.24 121.82C615.11 113.55 606.19 106.94 596.14 103.09C605.05 109.37 611.92 118.85 617.17 126.09L618.87 128.44L596.51 117.95C603.3 129.79 604.5 144.48 599.67 157.11C605.52 157.04 611.1 161.18 612.59 166.79C614.04 172.21 611.64 178.53 606.64 182.53C603.06 185.39 598.17 187.15 592.85 187.57C599.21 189.6 606.74 188.68 612.16 184.99C618.52 180.67 621.84 172.66 620.24 165.5L619.59 162.58L621.64 164.88C634.52 179.38 647.85 194.37 664.01 206.24C669.3 210.12 674.97 213.72 680.45 217.21L679.58 218.45C674.04 214.93 668.34 211.32 663.01 207.4C647.46 195.98 634.57 181.75 622.18 167.82C622.68 174.79 619.18 182.05 613.1 186.18C606.26 190.83 596.31 191.39 588.9 187.55L586.01 186.05L589.32 186.17C595.59 186.39 601.52 184.67 605.59 181.42C610.15 177.78 612.34 172.04 611.04 167.15C609.65 161.92 603.93 158.04 598.59 158.66L597.27 158.81L597.75 157.66C603.23 144.44 601.73 128.7 593.83 116.57L592.4 114.37L614.13 124.57C608.11 116.33 600.14 106.16 589.83 101.07L583.38 97.89L590.41 99.7C603.27 103.02 614.98 110.77 622.54 120.97L623.01 121.6C625.85 125.45 629.06 129.81 633.69 129.81C633.74 129.81 633.78 129.81 633.83 129.81C638.27 129.73 642.99 125.22 646.78 121.6C648.05 120.38 649.25 119.23 650.34 118.35C657.06 112.88 663.84 107.41 670.5 102.09C684.22 91.12 698.26 80.12 712.23 69.38C717.72 65.16 723.21 60.89 728.71 56.61C753.34 37.45 778.81 17.63 805.82 1.25L807.05 0.5V1.86C807.05 4.29 802.7 8.34 797.44 12.98C795.96 14.29 794.69 15.41 794.04 16.11C790.93 19.46 787.84 22.94 784.85 26.3C782.96 28.43 781.07 30.55 779.16 32.66C768.96 43.95 758.55 55.33 748.23 66.5C744.51 70.52 740.81 74.55 737.09 78.59C714.24 103.46 690.64 129.14 664.39 151.66C671.61 154.59 676.78 159.54 679.77 166.37C680.76 168.63 681.64 170.97 682.48 173.24C684.21 177.86 686 182.63 688.78 186.82C694.97 196.14 706.15 202.25 717.94 202.77C729.76 203.3 741.48 198.19 748.61 189.46L751.94 185.37L749.98 190.16C747.2 196.98 744.32 204.03 739.69 210.15C734.47 217.05 727.62 221.63 720.41 223.05C718.62 223.4 716.76 223.58 714.82 223.58L714.92 223.64Z" fill="url(#paint4_radial_364_79)"/>
<path d="M739.79 331.97C741.07 330.89 742.84 329.81 744.43 330.48C745.63 330.99 746.15 332.28 746.5 333.46C749.09 342.19 748.92 351.6 746.02 360.25C741.06 358.2 730.85 352.9 729.62 347.39C728.47 342.23 735.98 335.19 739.79 331.97Z" fill="url(#paint5_radial_364_79)"/>
<path d="M746.51 361.26L745.69 360.92C744.12 360.27 730.36 354.41 728.83 347.54C727.7 342.45 733.87 335.96 739.25 331.42C741.31 329.68 743.16 329.14 744.75 329.81C746.24 330.44 746.85 331.91 747.26 333.27C749.87 342.08 749.7 351.75 746.77 360.47L746.5 361.26H746.51ZM740.32 332.52C733.25 338.48 729.63 343.85 730.39 347.25C731.45 352 740.03 356.85 745.51 359.23C748.09 350.98 748.17 341.94 745.72 333.66C745.42 332.63 744.98 331.53 744.09 331.15C742.9 330.65 741.38 331.62 740.32 332.51V332.52Z" fill="url(#paint6_radial_364_79)"/>
<path d="M411.58 111.39C423.11 104.03 431.9 93.53 439.36 82.54C446.82 71.56 453.15 59.92 460.92 49.12C459.46 51.15 456.63 52.94 454.72 54.65C452.66 56.5 450.61 58.35 448.56 60.21C444.42 63.98 440.31 67.77 436.22 71.59C432.14 75.41 428.08 79.25 424.05 83.13C422.58 84.54 420.09 86.17 419.17 87.93C418.13 89.91 418.19 93.02 417.64 95.19C416.23 100.76 414.2 106.2 411.58 111.39Z" fill="url(#paint7_radial_364_79)"/>
<path d="M568.46 151.15C562.2 142.72 559.78 131.88 561.92 121.85C541.05 121.05 520.18 127.67 501.73 133.52L496.47 135.19L501.02 132.22C518.51 120.8 539.85 115.17 561.2 116.35V109.17C533.9 110.15 508.97 119.92 490.91 136.73L486.6 140.75L489.66 135.84C496.33 125.15 507.53 116.32 521.2 110.98C532.95 106.39 546.5 104.25 561.47 104.61L561.66 97.67C546.16 98.85 526.63 101.54 511.03 111.45C507.15 113.92 503.5 116.84 499.98 119.66C496.23 122.67 492.35 125.78 488.13 128.38C478.26 134.48 466.31 137.84 454.45 137.85C454.21 137.98 453.96 137.97 453.76 137.92L453.15 138.44L452.59 136.88L452.98 136.49L452.94 136.37H453.15C453.2 136.34 453.26 136.32 453.31 136.31C459.17 131.38 465.71 127.23 472.77 123.93C457.52 121.76 441.18 125.26 428.59 133.5L427.15 134.44L427.34 132.81C427.94 127.75 430.59 122.56 435 117.79C438.34 114.18 442.3 111.15 446.26 108.27C440.22 108.78 433.74 110.13 426.53 112.39C423.33 113.39 419.89 114.59 415.69 116.18C415.07 116.41 414.38 116.64 413.67 116.87C411.37 117.62 408.76 118.46 407.8 120.05C406.65 121.94 405.96 124.43 405.29 126.83C404.87 128.33 404.44 129.89 403.9 131.25C402.43 134.97 400.79 138.69 399.04 142.3C395.54 149.51 391.43 156.57 386.83 163.28C377.63 176.69 366.51 188.73 353.78 199.04C352.26 200.27 350.64 201.3 349.07 202.3C347.75 203.14 346.39 204 345.11 204.98L341.78 207.51L343.91 204.04C348.88 195.96 355.02 188.46 360.95 181.2C367.08 173.71 373.42 165.96 378.43 157.61C379.93 155.11 381.1 153.34 382.23 151.63C383.15 150.23 384.04 148.88 385.05 147.23C385.69 146.18 386.33 145.19 386.98 144.18C388.31 142.11 389.69 139.98 391.16 137.19C394.17 131.46 396.23 125.21 398.23 119.17C399.22 116.18 400.24 113.1 401.36 110.1C406 97.73 410.62 85.36 415.24 72.98C423.35 51.25 431.72 28.83 440.11 6.70996C430.41 20.42 421.85 34.83 413.55 48.82C404.2 64.57 394.53 80.8599 383.24 96.1099C379.01 101.82 375.14 107.9 371.4 113.79C367.85 119.37 364.19 125.13 360.21 130.59C353.1 140.36 344.82 149.42 335.6 157.53L330.22 162.27L334.4 156.58C336.23 154.08 338.28 151.62 340.25 149.24C345.37 143.07 350.66 136.69 352.7 129.23C356.18 116.51 358.95 104.59 361.89 91.97C363.26 86.07 364.67 80.0399 366.2 73.6799C363.12 80.7199 359.69 87.72 356.34 94.56C355.2 96.89 354.06 99.2099 352.95 101.52C349.08 109.53 346.79 113.98 343.89 119.63C340.55 126.13 336.39 134.22 328.01 151.18L325.19 156.88L326.5 150.73C331.64 126.65 336.26 102.17 340.28 77.8699C323.29 114.58 307.42 153.06 291.84 195.26C292.19 195.35 292.52 195.53 292.77 195.8L293.39 196.45L292.6 196.91C289.32 198.84 286.26 200.6 283.21 202.36C280.2 204.09 277.19 205.83 273.98 207.72C267.86 221.46 263.42 235.91 260.78 250.67L260.25 253.66L259.24 250.77C257.74 246.48 256.02 242.22 254.11 238.06C253.14 250.52 250.39 262.79 245.91 274.58C247.85 276.57 249.93 278.73 252 280.88C254.19 283.15 256.38 285.43 258.4 287.5L258.76 287.86L258.53 288.31C247.35 310.39 234.67 335.42 213.34 352.76L212.4 353.52C209.63 355.75 206.77 358.05 205.34 361.08C204.05 363.82 203.89 367.15 204.83 371.56C207.42 383.69 215.83 394.66 227.34 400.92C230.47 402.63 236.42 405.12 241.02 402.66C243.87 401.14 245.49 398.03 246.79 395.53L271.57 347.93C277.37 336.79 283.37 325.26 292.59 315.88C302.93 305.35 316.03 299.61 328.48 299.98L332.12 300.1L328.76 301.4C305.24 310.46 290.02 332.53 280.62 348.34C278.14 352.5 275.71 356.81 273.36 360.97C264.89 375.98 256.13 391.49 243.36 403.9C248.41 409.3 248.98 417.75 244.95 423.79C251.87 420.94 257.26 415.04 259.03 408.19L259.39 406.79L260.41 407.88C264.45 412.22 266.72 417.84 266.79 423.55C272.28 418.07 276.19 411.39 278.14 404.12L278.29 403.57H278.9C284.69 403.45 290.45 402.18 295.67 399.87C288.21 397.82 282.36 391.19 281.95 383.94L281.92 383.39L282.49 383.21C285.85 382.14 289.33 381.02 292.22 379.09C295.37 376.99 297.3 374.15 297.53 371.29C297.69 369.31 297.06 367.37 296.4 365.32C295.74 363.27 295.05 361.14 295.2 358.93C295.54 353.61 300.42 349.68 305.15 346.54C324.39 333.77 341.11 325.94 357.78 321.9C358.71 321.68 359.68 321.47 360.67 321.26C365.67 320.2 370.84 319.11 373.05 315.17C375.97 309.96 380.28 305.13 385.84 300.82C388.16 299.02 390.63 297.35 393.02 295.72C396.31 293.49 399.71 291.18 402.71 288.56C411.26 281.08 416.67 271 421.89 261.26C426.69 252.3 431.66 243.03 439.1 235.63L440.27 236.64C439.43 237.48 438.83 239.52 438.34 241.16C438.09 242 437.85 242.8 437.6 243.41C428.47 265.53 417.64 287.31 405.41 308.15C399.3 318.55 392.74 328.9 385.92 338.9C384.91 340.38 383.91 341.86 382.91 343.35C377.37 351.59 371.65 360.1 364.14 367.09C363.02 368.14 361.83 369.17 360.62 370.16C353.93 375.63 345.95 380.34 336.2 384.55L333.94 385.53C344.76 383.55 355.68 379.3 367.15 372.61C382.27 363.79 402.7 349.03 414.19 328.79C424.28 311.01 430.43 291.3 436.39 272.24C438.7 264.84 441.09 257.18 443.68 249.74C450.75 229.41 462.79 200.77 486.61 181.94C471.88 187.8 459.98 198.64 448.44 209.16C438.28 218.42 427.76 227.99 415.24 234.38C408.35 237.9 402.22 239.64 396.57 239.55C389.26 239.5 382.71 236.35 379.49 231.34L378.3 229.49L380.47 230.28C391.7 234.37 403.97 229.63 411.71 223.83C419.55 217.94 425.35 209.94 430.97 202.19C431.67 201.22 432.38 200.25 433.08 199.29C439.15 191 446.5 181.7 456.97 176.31C464.05 172.66 472.1 171.05 479.88 169.49C482.53 168.96 485.27 168.41 487.92 167.79C491.74 166.9 495.18 165.84 498.23 164.63C497.31 164.91 496.42 165.14 495.56 165.35C490.96 166.47 486.19 167.06 481.57 167.63C478.53 168.01 475.38 168.4 472.32 168.93C449.96 172.85 429.9 185.17 417.28 202.73L413.5 207.98L415.87 202.06C424.54 180.38 447.61 166.7 469.04 156.18C494.61 143.62 524.99 131.08 556.49 133.26L559.44 133.46L556.78 134.66C532.16 145.7 515.51 165.76 500.16 189.96C509.02 179.49 519.67 170.33 531.67 162.93L532.67 164.07C508.06 186.32 492.15 214.82 487.89 244.32C483.6 273.99 491.3 303.72 509.08 326.73C497.32 296.51 496.08 263.17 505.66 232.26C515.22 201.44 538.12 171.91 568.54 151.15H568.46ZM225.4 370.97C223.18 372.25 220.11 374.4 217.56 374.75C218.58 372.31 220.86 369.68 222.34 367.4C223.4 365.77 224.52 364.17 225.68 362.6C226.08 362.06 229.37 358.55 229.19 358.12C230.28 360.74 231.8 363.22 233.67 365.43C231.06 367.45 228.29 369.3 225.4 370.97ZM305.87 259.11C297.99 261.99 291.09 265.43 284.58 270.47C285.92 264.76 287.81 259.16 290.2 253.75C290.2 253.75 291.76 251.64 291.85 251.39C291.85 251.38 291.85 251.36 291.85 251.35C300.87 240.54 309.28 233.06 320.61 224.32C317.1 236.58 313.71 245.95 307.21 257.11C307.53 256.85 305.52 259.36 305.85 259.1L305.87 259.11Z" fill="url(#paint8_radial_364_79)"/>
<path d="M498.62 392.83C512.47 402.53 523.79 415.26 531.71 429.56C538.55 441.92 546.87 460.48 543.24 474.65C547.49 458.15 551.74 440.82 547.01 424.43C542.81 409.9 531.98 397.81 520.25 387.42C508.52 377.02 495.55 367.74 485.24 356.12C467.69 336.34 463.16 313.9 454.99 290.46C451.55 304.77 450.71 320.32 453.17 334.82C455.86 350.74 463.3 366.3 476.05 377.25C482.94 383.17 491.14 387.58 498.63 392.83H498.62Z" fill="url(#paint9_radial_364_79)"/>
<path d="M566.07 117.34C567.61 132.19 573.37 146.77 583.29 158.51C578.96 147.77 578.18 135.83 581.08 124.69C586.93 132.57 591.08 141.53 593.22 150.89C595.24 137.44 593.1 123.68 588.96 110.65C585.54 99.88 580.78 89.53 575.81 79.31C575.21 78.07 574.62 76.83 574 75.6C573.25 74.11 572.99 73.51 571.98 75.15C570.65 77.3 570.12 80.42 569.43 82.8C567.87 88.18 566.75 93.68 566.14 99.22C565.48 105.24 565.43 111.31 566.05 117.34H566.07Z" fill="url(#paint10_radial_364_79)"/>
<path d="M634.5 215.42C640.26 216.9 646.1 218.41 651.2 221.29C661.81 227.28 667.7 238.2 673.95 248.16C685.02 265.8 698.7 281.89 712.33 297.92C697.14 285.61 681.63 272.95 671.93 256.55C668.01 249.93 664.09 241.99 656.19 240.17C651.04 238.99 645.56 240.87 640.35 239.96C632.23 238.54 627.29 231.04 623.51 224.23C619.73 217.42 615.12 209.84 607.1 207.97C608.54 208.31 609.99 208.87 611.37 209.38C618.26 211.67 626.94 213.47 634.51 215.41L634.5 215.42Z" fill="url(#paint11_radial_364_79)"/>
<path d="M700.65 330.54C694.32 324.67 693.81 315.19 688.45 308.54C682.46 301.1 670.19 297.45 660.51 298.16C667.28 301.34 673.49 302.85 679.3 307.91C687.21 314.79 692.67 323.71 700.65 330.55V330.54Z" fill="url(#paint12_radial_364_79)"/>
<path d="M682.33 212.69C683.39 231.47 692.36 248.96 704.03 264C721.98 286.82 746.58 303.98 765.97 325.77C775.99 335.95 773.87 343.75 769 355.56C764.02 368.86 756.08 384.05 741.74 391.34C736.58 394.1 730.75 395.48 724.92 395.34C723.2 376.76 710.18 359.44 691.97 351.52L692.82 349.84C711.4 357.95 724.71 375.36 726.82 394.29C726.82 394.29 725.56 393.48 725.6 393.48C743.15 384.27 751.55 369.05 759.79 352.1C764.15 342.99 768.05 338.87 760.22 329.98C742.02 307.51 718.37 289.33 701.5 265.61C690.69 250.03 681.66 231.14 682.33 212.69Z" fill="url(#paint13_radial_364_79)"/>
<path d="M724.86 393.11C724.4 391.14 723.95 389.19 723.49 387.21L723.44 387.26C719.1 391.22 712.54 392.92 706.63 391.65C700.69 390.36 695.6 386.1 693.62 380.77C696.45 378.93 697.29 375.24 696.51 372.13C695.75 369 693.67 366.31 691.58 363.76C679.71 349.14 666.14 335.71 651.17 323.78C655.67 323 660.16 322.22 664.66 321.43C660.27 315.39 651.74 312.87 643.89 313.31C636.04 313.75 628.64 316.69 621.41 319.57C614.18 322.45 606.76 325.34 598.91 325.72C588.71 326.21 578.63 322.29 570.83 316.17C563.04 310.07 557.36 301.92 553.1 293.32C541.07 269.04 540.42 239.34 550.62 214.35C533.71 230.32 528.34 254.44 530.9 276.69C532.84 293.58 538.81 309.77 545.6 325.44C552.1 340.46 561.74 353.53 569.5 368.02C574.73 377.79 579.7 387.69 584.42 397.69C592.14 414.09 599.18 430.88 602.9 448.46C606.55 465.72 606.76 483.69 603.77 501.23H609.92C615.16 484.99 617.8 468.02 614.88 451.4C610.92 428.87 597.21 409.04 585.75 388.84C574.34 368.71 564.74 345.92 569.72 323.68C582.45 331.24 599.35 328.37 614.69 328.37C619.49 328.37 624.3 328.69 629.01 329.56C648.4 333.23 664.05 346.02 678.71 358.34C681.86 360.99 685.1 363.73 686.96 367.29C688.83 370.85 689.03 375.44 686.31 378.49C688.85 385.47 694.67 391.38 701.95 394.33C709.15 397.24 717.62 397.25 724.82 394.35C724.88 394.33 724.95 394.3 725.01 394.29C725.04 394.27 725.09 394.26 725.12 394.24C725.04 393.87 724.95 393.51 724.87 393.14L724.86 393.11ZM568.37 322.81C568.54 322.92 568.72 323.03 568.89 323.14C568.76 323.16 568.6 323.09 568.37 322.81Z" fill="url(#paint14_radial_364_79)"/>
<path d="M413.89 567.72C411.96 565.87 410.25 563.58 408.77 560.84C407.29 558.11 405.77 555.47 404.21 552.95C402.65 550.42 400.84 548.25 398.78 546.44C396.72 544.63 394.13 543.69 391.01 543.6H387.86V603.36C387.86 607.14 387.94 609.28 388.11 609.77C388.27 610.22 388.8 610.84 389.68 611.62C390.56 612.4 391.58 613.28 392.73 614.27C393.88 615.26 395.02 616.21 396.15 617.14C397.28 618.07 398.22 618.86 398.96 619.51H352.89C353.63 618.85 354.57 618.06 355.7 617.14C356.83 616.22 357.97 615.26 359.12 614.27C360.27 613.28 361.29 612.4 362.17 611.62C363.05 610.84 363.58 610.22 363.74 609.77C363.9 609.28 363.99 607.14 363.99 603.36V543.6H360.84C357.63 543.68 355.02 544.63 353.01 546.44C351 548.25 349.21 550.42 347.65 552.95C346.09 555.48 344.59 558.11 343.15 560.84C341.71 563.57 340.03 565.87 338.09 567.72V534.17H413.76L413.88 567.72H413.89Z" fill="url(#paint15_linear_364_79)"/>
<path d="M455.71 582.28V603.37C455.71 607.07 455.83 609.33 456.08 610.15V610.03C456.08 610.11 456.1 610.15 456.14 610.15C456.18 610.15 456.2 610.19 456.2 610.27C456.36 610.48 457.21 611.23 458.73 612.52C460.25 613.81 462.99 616.15 466.93 619.52H420.74C424.6 616.07 427.27 613.71 428.73 612.46C430.19 611.21 431.02 610.48 431.23 610.27C431.31 610.11 431.44 609.94 431.6 609.78C431.76 609.45 431.85 607.31 431.85 603.37V550.21C431.85 546.59 431.73 544.31 431.48 543.36L431.05 542.99C431.67 543.4 432.08 543.69 432.28 543.85C432.49 544.01 432.28 543.83 431.63 543.3C430.99 542.77 429.81 541.78 428.08 540.34C426.35 538.9 423.91 536.81 420.74 534.05H466.93C464.26 536.48 462.18 538.28 460.7 539.45C459.22 540.62 458.19 541.41 457.62 541.82C457.78 541.74 457.83 541.75 457.74 541.85C457.66 541.95 457.48 542.11 457.22 542.31C456.95 542.52 456.72 542.76 456.51 543.05C456.3 543.34 456.16 543.6 456.08 543.85C455.83 544.26 455.71 546.38 455.71 550.2V570.74H478.84V550.2C478.84 548.6 478.8 547.29 478.72 546.28C478.64 545.27 478.53 544.5 478.41 543.97C477.42 543.07 476.07 541.81 474.34 540.21C472.61 538.61 470.39 536.55 467.68 534.04H513.81C511.1 536.3 509.03 538.02 507.61 539.19C506.19 540.36 505.2 541.18 504.65 541.66C504.1 542.14 503.84 542.33 503.88 542.25C503.92 542.17 504.15 542.03 504.56 541.82C504.93 541.66 504.82 541.83 504.22 542.34C503.62 542.85 503.24 543.32 503.08 543.73C502.83 544.22 502.71 546.38 502.71 550.21V603.37C502.71 606.82 502.83 609.09 503.08 610.15C503.9 610.85 505.16 611.91 506.84 613.33C508.53 614.75 510.85 616.81 513.81 619.53H467.68C471.05 616.57 473.44 614.54 474.83 613.46C476.23 612.37 477.05 611.7 477.3 611.46C477.22 611.46 477.09 611.54 476.93 611.71C476.77 611.88 476.72 611.89 476.81 611.77C476.89 611.65 477.06 611.48 477.3 611.28C477.55 611.07 477.77 610.82 477.98 610.51C478.19 610.2 478.33 609.96 478.41 609.8C478.7 609.31 478.84 607.17 478.84 603.39V582.3H455.71V582.28ZM429.68 542.01C429.84 542.17 430.01 542.32 430.17 542.44C430.33 542.56 430.5 542.71 430.66 542.87C430.08 542.54 429.76 542.25 429.67 542.01H429.68ZM429.93 611.7C429.77 611.86 429.7 611.95 429.74 611.95C429.78 611.95 429.88 611.87 430.05 611.7H429.93ZM431.04 542.99C430.96 542.99 430.89 542.97 430.85 542.93C430.89 542.97 430.95 542.99 431.04 542.99ZM457.74 611.7C457.37 611.45 457.06 611.23 456.81 611.02C456.56 610.81 456.36 610.63 456.19 610.47C456.44 610.88 456.95 611.29 457.73 611.7H457.74ZM478.28 543.36C478.2 543.28 477.97 543.07 477.6 542.74C477.23 542.41 477.13 542.33 477.29 542.49C477.54 542.9 477.86 543.23 478.28 543.48V543.36Z" fill="url(#paint16_linear_364_79)"/>
<path d="M553.58 543.24V571.42C555.51 571.34 557.21 570.86 558.67 569.97C560.13 569.09 561.56 567.84 562.96 566.24C564.36 564.64 565.82 562.67 567.34 560.35C568.86 558.03 570.63 555.35 572.64 552.3V599.54C571.12 597.28 569.77 595.25 568.6 593.44C567.43 591.63 566.34 589.99 565.33 588.51C564.32 587.03 563.3 585.76 562.28 584.72C561.25 583.67 560.12 582.82 558.89 582.16C557.53 581.38 555.76 580.91 553.59 580.74V601.09C553.59 603.27 553.63 604.97 553.71 606.21C553.79 607.44 553.92 608.27 554.08 608.68V608.56C554.24 609.05 554.57 609.46 555.07 609.79H554.95C555.57 610.12 556.84 610.28 558.77 610.28H563.39C566.76 610.28 569.87 609.84 572.7 608.96C575.54 608.08 578.5 606.71 581.58 604.86C584.66 603.01 588.01 597.75 591.63 589.07L591.57 619.66H518.67C521.3 617.48 523.58 615.67 525.52 614.23C527.45 612.79 528.77 611.35 529.47 609.91C529.72 609.42 529.84 607.24 529.84 603.37V550.08C529.84 548.31 529.82 546.91 529.78 545.89C529.74 544.86 529.68 544.14 529.59 543.73L529.71 543.85C529.55 543.52 529.24 543.11 528.78 542.62C527.87 541.76 526.6 540.64 524.96 539.26C523.31 537.88 521.22 536.04 518.67 533.74H589.66V570.13C586.37 560.92 584.16 555.54 583.03 554C581.9 552.46 580.65 551 579.27 549.62C577.89 548.24 576.55 547.13 575.23 546.29C573.91 545.45 572.45 544.76 570.85 544.22C569.95 543.97 568.55 543.75 566.66 543.54C564.77 543.33 562.34 543.23 559.38 543.23H553.58V543.24Z" fill="url(#paint17_linear_364_79)"/>
<path d="M83.65 683.46C88.33 671.69 93.2 659.68 98.24 647.43C103.28 635.18 107.79 623.26 111.75 611.67H165.8C161.84 615.39 158.56 618.43 155.98 620.77C153.4 623.11 151.44 624.76 150.12 625.72C149.94 626.32 149.79 627.43 149.67 629.05C149.55 630.67 149.49 632.71 149.49 635.17V713.18C149.49 716 149.55 718.27 149.67 719.98C149.79 721.69 149.94 722.88 150.12 723.54C150.24 724.02 150.9 724.56 152.1 725.16C151.38 724.68 150.9 724.29 150.66 723.99C150.42 723.69 150.69 723.84 151.47 724.44C152.25 725.04 153.75 726.3 155.98 728.22C158.2 730.14 161.47 732.99 165.8 736.78H98.42C103.58 731.86 107.28 728.48 109.5 726.65C111.72 724.82 113.01 723.84 113.37 723.72C113.61 723.42 113.85 723.03 114.09 722.55C114.33 722.31 114.45 721.4 114.45 719.8V713.18L117.15 644L75.08 767.58L30.31 643.46V709.67C30.31 712.25 30.34 714.34 30.4 715.93C30.46 717.52 30.49 718.62 30.49 719.22C30.73 720.36 31.2 721.43 31.89 722.42C32.58 723.41 33.6 724.55 34.95 725.84C36.3 727.13 37.97 728.63 39.95 730.35C41.93 732.07 44.33 734.21 47.16 736.79H0.679993C3.49999 734.21 5.85999 732.06 7.74999 730.35C9.63999 728.64 11.17 727.11 12.34 725.76C13.51 724.41 14.47 723.15 15.22 721.98C15.97 720.81 16.53 719.47 16.89 717.97V635.19C16.89 630.75 16.71 627.83 16.35 626.45C14.97 625.37 12.9 623.54 10.14 620.95C7.37999 618.37 4.21999 615.28 0.679993 611.67H53.56L83.64 683.46H83.65ZM13.57 623.29C14.17 623.95 14.67 624.43 15.06 624.73C15.45 625.03 15.83 625.36 16.19 625.72C16.07 625.48 15.81 625.18 15.42 624.82C15.03 624.46 14.65 624.11 14.29 623.78C13.93 623.45 13.66 623.23 13.48 623.11C13.3 622.99 13.33 623.05 13.57 623.29Z" fill="url(#paint18_linear_364_79)"/>
<path d="M214.46 647.65V680.58C216.72 680.48 218.7 679.92 220.4 678.89C222.1 677.86 223.77 676.4 225.41 674.53C227.04 672.66 228.75 670.36 230.53 667.65C232.31 664.94 234.37 661.8 236.73 658.25V713.45C234.95 710.81 233.38 708.43 232.01 706.32C230.64 704.21 229.37 702.28 228.19 700.55C227.01 698.82 225.82 697.34 224.62 696.12C223.42 694.9 222.1 693.9 220.66 693.13C219.07 692.22 217.01 691.66 214.46 691.47V715.25C214.46 717.8 214.51 719.79 214.6 721.23C214.7 722.67 214.84 723.63 215.03 724.11V723.97C215.22 724.55 215.61 725.03 216.18 725.41H216.04C216.76 725.79 218.25 725.99 220.51 725.99H225.91C229.85 725.99 233.48 725.47 236.79 724.44C240.1 723.41 243.56 721.81 247.17 719.65C250.77 717.49 254.69 711.34 258.92 701.2L258.85 736.94H173.67C176.74 734.39 179.41 732.28 181.67 730.6C183.93 728.92 185.46 727.24 186.28 725.56C186.57 724.98 186.71 722.44 186.71 717.92V655.66C186.71 653.6 186.68 651.96 186.64 650.76C186.59 649.56 186.52 648.72 186.42 648.24L186.56 648.38C186.37 648 186.01 647.52 185.48 646.94C184.42 645.93 182.93 644.62 181.01 643.01C179.09 641.4 176.64 639.25 173.66 636.56H256.6V679.07C252.76 668.31 250.17 662.03 248.85 660.23C247.53 658.43 246.06 656.72 244.45 655.11C242.84 653.5 241.27 652.2 239.73 651.22C238.19 650.23 236.49 649.43 234.61 648.8C233.55 648.51 231.92 648.25 229.71 648.01C227.5 647.77 224.67 647.65 221.21 647.65H214.44H214.46Z" fill="url(#paint19_linear_364_79)"/>
<path d="M289.97 665.52V717.48C289.97 719.64 290.25 721.48 290.8 722.99C291.35 724.5 292.22 725.93 293.39 727.28C294.57 728.63 296.03 730.03 297.79 731.5C299.55 732.97 301.67 734.73 304.17 736.8H265.76C268.31 734.73 270.44 732.95 272.17 731.43C273.9 729.92 275.3 728.46 276.39 727.07C277.47 725.68 278.26 724.25 278.77 722.78C279.28 721.31 279.53 719.55 279.53 717.48V652.05C278.42 651.09 276.79 649.41 274.63 647.01C272.47 644.61 269.51 641.17 265.77 636.71H302.81L343.89 697.38L344.32 657.53C344.32 655.37 344.16 653.46 343.85 651.8C343.54 650.14 343.14 648.91 342.66 648.09C341.79 647.32 340.45 646.07 338.62 644.34C336.79 642.61 334.2 640.06 330.84 636.7H367.01C364.85 639.01 363.11 640.82 361.79 642.14C360.47 643.46 359.41 644.54 358.62 645.38C357.83 646.22 357.24 646.91 356.85 647.43C356.47 647.96 356.11 648.51 355.77 649.09V648.95C355.1 650.82 354.76 653.68 354.76 657.53V762.52L289.98 665.53L289.97 665.52ZM397.99 738.74H398.13L397.99 738.88V738.74Z" fill="url(#paint20_linear_364_79)"/>
<path d="M438.13 652.19L462.92 763.6H461.84L427.61 709.99L406.57 710.35L398.86 710.49C398.48 711.69 398.04 712.91 397.56 714.13C397.08 715.35 396.6 716.57 396.12 717.77C395.21 720.22 394.85 722.33 395.04 724.11C395.04 724.88 395.24 725.51 395.65 726.02C396.06 726.53 396.45 727.02 396.84 727.5C397.89 728.8 399.43 730.08 401.45 731.36C403.47 732.63 405.6 734.45 407.86 736.8H368.66C368.95 735.93 369.31 735.23 369.74 734.67C370.17 734.12 370.69 733.49 371.29 732.8C371.89 732.1 372.63 731.19 373.52 730.06C374.41 728.93 375.48 727.38 376.73 725.41V725.55C377.55 724.59 378.54 722.98 379.72 720.72C380.9 718.46 382.06 715.8 383.21 712.72C385.18 706.23 387.64 698.15 390.6 688.47C393.56 678.79 397.14 667.01 401.37 653.12L391.5 636.69H400.51C402.96 636.69 405.24 636.67 407.36 636.62C409.47 636.57 411.59 636.55 413.7 636.55H432C436.18 636.55 441.32 636.5 447.42 636.4L438.13 652.18V652.19ZM424.37 700.18L412.99 667.18C411.55 671.07 410.31 674.82 409.28 678.42C408.25 682.02 407.17 685.75 406.04 689.59C404.91 693.43 403.82 696.96 402.76 700.18H424.38H424.37Z" fill="url(#paint21_linear_364_79)"/>
<path d="M557.46 636.7V679.86C549.39 667.51 542.52 659.06 536.85 654.5C531.18 649.94 525.06 647.65 518.48 647.65C511.9 647.65 506.85 649.37 502.77 652.8C498.69 656.23 495.76 661.15 493.98 667.54C493.21 670.81 492.58 674.18 492.07 677.66C491.57 681.14 491.31 684.66 491.31 688.22C491.02 700.9 493.22 710.81 497.9 717.94C502.58 725.07 509.39 728.5 518.33 728.21C522.08 728.21 525.82 727.54 529.57 726.19C529.57 711.92 529.41 704.37 529.1 703.53C528.79 702.69 528.11 701.97 527.08 701.37C526.05 700.77 520.15 697.78 509.39 692.4H560.34C555.78 701.48 554.81 713.97 557.46 729.87C543.77 735.97 530.03 739.02 516.24 739.02C511.63 739.02 507.45 738.67 503.7 737.98C499.95 737.28 496.5 736.35 493.36 735.17C490.21 733.99 487.34 732.56 484.75 730.88C482.16 729.2 479.68 727.33 477.33 725.26C472.67 721.22 468.97 716.61 466.23 711.42C462.87 704.84 461.18 697.34 461.18 688.94C461.18 674.38 466.3 661.99 476.53 651.76C487 641.62 500 636.56 515.51 636.56C518.05 636.56 520.36 636.67 522.43 636.88C524.5 637.09 526.51 637.35 528.48 637.64C530.45 638.02 533.86 639.15 538.71 641.03H538.57C540.63 641.8 542.25 642.39 543.43 642.8C544.61 643.21 545.29 643.41 545.48 643.41C546.25 643.41 546.98 642.94 547.68 642.01C548.38 641.07 549.16 639.31 550.02 636.71H557.44L557.46 636.7Z" fill="url(#paint22_linear_364_79)"/>
<path d="M609.78 647.65V680.58C612.04 680.48 614.02 679.92 615.72 678.89C617.42 677.86 619.09 676.4 620.73 674.53C622.36 672.66 624.07 670.36 625.85 667.65C627.63 664.94 629.69 661.8 632.05 658.25V713.45C630.27 710.81 628.7 708.43 627.33 706.32C625.96 704.21 624.69 702.28 623.51 700.55C622.33 698.82 621.14 697.34 619.94 696.12C618.74 694.9 617.42 693.9 615.98 693.13C614.39 692.22 612.33 691.66 609.78 691.47V715.25C609.78 717.8 609.83 719.79 609.92 721.23C610.02 722.67 610.16 723.63 610.35 724.11V723.97C610.54 724.55 610.93 725.03 611.5 725.41H611.36C612.08 725.79 613.57 725.99 615.83 725.99H621.23C625.17 725.99 628.8 725.47 632.11 724.44C635.42 723.41 638.88 721.81 642.49 719.65C646.09 717.49 650.01 711.34 654.24 701.2L654.17 736.94H568.99C572.06 734.39 574.73 732.28 576.99 730.6C579.25 728.92 580.78 727.24 581.6 725.56C581.89 724.98 582.03 722.44 582.03 717.92V655.66C582.03 653.6 582 651.96 581.96 650.76C581.91 649.56 581.84 648.72 581.74 648.24L581.88 648.38C581.69 648 581.33 647.52 580.8 646.94C579.74 645.93 578.25 644.62 576.33 643.01C574.41 641.4 571.96 639.25 568.98 636.56H651.92V679.07C648.08 668.31 645.49 662.03 644.17 660.23C642.85 658.43 641.38 656.72 639.77 655.11C638.16 653.5 636.59 652.2 635.05 651.22C633.51 650.23 631.81 649.43 629.93 648.8C628.87 648.51 627.24 648.25 625.03 648.01C622.82 647.77 619.99 647.65 616.53 647.65H609.76H609.78Z" fill="url(#paint23_linear_364_79)"/>
<path d="M703.6 697.09L703.46 717.34V722.49C703.46 723.86 703.58 724.83 703.82 725.41C704.4 725.79 705.6 726.85 707.42 728.58C709.24 730.31 712.18 733.05 716.21 736.79H663.32C665.72 734.72 667.66 733.08 669.12 731.85C670.58 730.62 671.76 729.62 672.65 728.82C673.54 728.03 674.17 727.44 674.56 727.05C674.95 726.66 675.23 726.21 675.43 725.68C675.62 725.2 675.78 724.3 675.9 722.98C676.02 721.66 676.08 719.77 676.08 717.32V656.21C676.08 653.76 676.02 651.86 675.9 650.52C675.78 649.18 675.62 648.31 675.43 647.93L675 647.5C674.33 647.02 673.08 645.94 671.25 644.26C669.42 642.58 666.78 640.06 663.32 636.69H709.08C720.22 636.69 728.7 637.53 734.52 639.21C737.26 640.03 739.85 641.31 742.3 643.06C744.75 644.81 746.81 646.77 748.5 648.93C752.15 653.69 753.98 659.26 753.98 665.65C753.98 669.4 753.23 672.94 751.75 676.28C750.26 679.62 748.19 682.56 745.55 685.11C744.4 686.22 740.96 688.74 735.24 692.68L754.41 751.99L753.98 753L706.56 697.37L703.6 697.08V697.09ZM703.46 647.65V683.1H704.4C710.21 683.1 714.54 682.63 717.37 681.69C720.2 680.75 722.32 679.04 723.71 676.54C725.2 673.8 725.94 670.17 725.94 665.66C725.94 659.46 724.51 654.91 721.65 652.01C718.79 649.11 714.22 647.65 707.92 647.65H703.45H703.46ZM705.55 727.49C705.26 727.3 705 727.06 704.76 726.77C704.52 726.48 704.3 726.22 704.11 725.98C704.4 726.6 704.88 727.11 705.55 727.49Z" fill="url(#paint24_linear_364_79)"/>
<path d="M800.67 717.91C800.67 722.23 800.81 724.88 801.1 725.84V725.7C801.1 725.8 801.12 725.84 801.17 725.84C801.22 725.84 801.24 725.89 801.24 725.98C801.43 726.22 802.42 727.1 804.19 728.61C805.97 730.12 809.16 732.85 813.77 736.79H759.8C764.31 732.75 767.43 730.01 769.13 728.54C770.83 727.08 771.81 726.22 772.05 725.98C772.15 725.79 772.29 725.6 772.48 725.4C772.67 725.02 772.77 722.52 772.77 717.91V655.79C772.77 651.56 772.63 648.9 772.34 647.79L771.84 647.36C772.56 647.84 773.04 648.18 773.28 648.37C773.52 648.56 773.27 648.35 772.52 647.72C771.77 647.1 770.39 645.94 768.38 644.26C766.36 642.58 763.5 640.13 759.8 636.91H813.77C810.65 639.75 808.22 641.85 806.49 643.22C804.76 644.59 803.56 645.52 802.89 645.99C803.08 645.89 803.13 645.91 803.04 646.03C802.94 646.15 802.74 646.33 802.43 646.57C802.12 646.81 801.84 647.1 801.6 647.43C801.36 647.77 801.19 648.08 801.1 648.37C800.81 648.85 800.67 651.33 800.67 655.79V717.91ZM770.26 646.21C770.45 646.4 770.64 646.57 770.84 646.71C771.04 646.85 771.22 647.02 771.42 647.21C770.75 646.83 770.36 646.49 770.27 646.2L770.26 646.21ZM770.55 727.64C770.36 727.83 770.28 727.93 770.33 727.93C770.38 727.93 770.5 727.83 770.69 727.64H770.55ZM803.05 727.64C802.14 727.16 801.54 726.68 801.25 726.2C801.44 726.39 801.68 726.61 801.97 726.85C802.26 727.09 802.62 727.35 803.05 727.64Z" fill="url(#paint25_linear_364_79)"/>
<path d="M868.19 625.37V666.53C871.01 666.41 873.49 665.71 875.62 664.41C877.75 663.12 879.84 661.3 881.88 658.96C883.92 656.62 886.05 653.75 888.27 650.36C890.49 646.97 893.07 643.05 896.02 638.6V707.6C893.8 704.3 891.83 701.33 890.12 698.68C888.41 696.04 886.82 693.64 885.35 691.47C883.88 689.31 882.39 687.46 880.89 685.93C879.39 684.4 877.74 683.15 875.94 682.19C873.96 681.05 871.38 680.36 868.19 680.12V709.85C868.19 713.03 868.25 715.52 868.37 717.33C868.49 719.13 868.67 720.33 868.91 720.93V720.75C869.15 721.47 869.63 722.07 870.35 722.55H870.17C871.07 723.03 872.93 723.27 875.75 723.27H882.51C887.43 723.27 891.97 722.63 896.11 721.33C900.25 720.04 904.58 718.04 909.08 715.34C913.59 712.64 918.48 704.95 923.76 692.28L923.67 736.96H817.2C821.04 733.78 824.38 731.14 827.2 729.03C830.02 726.93 831.94 724.83 832.97 722.72C833.33 722 833.51 718.82 833.51 713.17V635.35C833.51 632.77 833.48 630.73 833.42 629.22C833.36 627.72 833.27 626.67 833.15 626.07L833.33 626.25C833.09 625.77 832.64 625.17 831.98 624.45C830.66 623.19 828.8 621.55 826.4 619.54C824 617.53 820.94 614.84 817.21 611.48H920.89V664.63C916.08 651.18 912.86 643.33 911.21 641.07C909.56 638.82 907.73 636.69 905.71 634.68C903.7 632.67 901.73 631.05 899.81 629.82C897.89 628.59 895.76 627.58 893.41 626.8C892.09 626.44 890.05 626.11 887.29 625.81C884.53 625.51 880.98 625.36 876.66 625.36H868.19V625.37Z" fill="url(#paint26_linear_364_79)"/>
<defs>
<radialGradient id="paint0_radial_364_79" cx="0" cy="0" r="1" gradientUnits="userSpaceOnUse" gradientTransform="translate(337.52 393.72) scale(7.32999 7.32999)">
<stop stop-color="#C67438"/>
<stop offset="1" stop-color="#924428"/>
</radialGradient>
<radialGradient id="paint1_radial_364_79" cx="0" cy="0" r="1" gradientUnits="userSpaceOnUse" gradientTransform="translate(424.85 409.45) scale(103.22)">
<stop stop-color="#C67438"/>
<stop offset="1" stop-color="#924428"/>
</radialGradient>
<radialGradient id="paint2_radial_364_79" cx="0" cy="0" r="1" gradientUnits="userSpaceOnUse" gradientTransform="translate(424.79 407.83) scale(104.39 104.39)">
<stop stop-color="#C67438"/>
<stop offset="1" stop-color="#924428"/>
</radialGradient>
<radialGradient id="paint3_radial_364_79" cx="0" cy="0" r="1" gradientUnits="userSpaceOnUse" gradientTransform="translate(697.86 112.4) scale(109.49 109.49)">
<stop stop-color="#C67438"/>
<stop offset="1" stop-color="#924428"/>
</radialGradient>
<radialGradient id="paint4_radial_364_79" cx="0" cy="0" r="1" gradientUnits="userSpaceOnUse" gradientTransform="translate(695.3 112.09) scale(111.69 111.69)">
<stop stop-color="#C67438"/>
<stop offset="1" stop-color="#924428"/>
</radialGradient>
<radialGradient id="paint5_radial_364_79" cx="0" cy="0" r="1" gradientUnits="userSpaceOnUse" gradientTransform="translate(738.91 345.26) scale(12.51)">
<stop stop-color="#C67438"/>
<stop offset="1" stop-color="#924428"/>
</radialGradient>
<radialGradient id="paint6_radial_364_79" cx="0" cy="0" r="1" gradientUnits="userSpaceOnUse" gradientTransform="translate(738.9 345.4) scale(13.34 13.34)">
<stop stop-color="#C67438"/>
<stop offset="1" stop-color="#924428"/>
</radialGradient>
<radialGradient id="paint7_radial_364_79" cx="0" cy="0" r="1" gradientUnits="userSpaceOnUse" gradientTransform="translate(436.25 80.26) scale(28.09 28.09)">
<stop stop-color="#C67438"/>
<stop offset="1" stop-color="#924428"/>
</radialGradient>
<radialGradient id="paint8_radial_364_79" cx="0" cy="0" r="1" gradientUnits="userSpaceOnUse" gradientTransform="translate(386.33 215.27) scale(195.79 195.79)">
<stop stop-color="#C67438"/>
<stop offset="1" stop-color="#924428"/>
</radialGradient>
<radialGradient id="paint9_radial_364_79" cx="0" cy="0" r="1" gradientUnits="userSpaceOnUse" gradientTransform="translate(500.41 382.56) scale(73.66 73.66)">
<stop stop-color="#C67438"/>
<stop offset="1" stop-color="#924428"/>
</radialGradient>
<radialGradient id="paint10_radial_364_79" cx="0" cy="0" r="1" gradientUnits="userSpaceOnUse" gradientTransform="translate(579.81 116.35) scale(31.46 31.46)">
<stop stop-color="#C67438"/>
<stop offset="1" stop-color="#924428"/>
</radialGradient>
<radialGradient id="paint11_radial_364_79" cx="0" cy="0" r="1" gradientUnits="userSpaceOnUse" gradientTransform="translate(659.71 252.94) scale(48.94 48.94)">
<stop stop-color="#C67438"/>
<stop offset="1" stop-color="#924428"/>
</radialGradient>
<radialGradient id="paint12_radial_364_79" cx="0" cy="0" r="1" gradientUnits="userSpaceOnUse" gradientTransform="translate(680.58 314.31) scale(18.25 18.25)">
<stop stop-color="#C67438"/>
<stop offset="1" stop-color="#924428"/>
</radialGradient>
<radialGradient id="paint13_radial_364_79" cx="0" cy="0" r="1" gradientUnits="userSpaceOnUse" gradientTransform="translate(727.69 304.03) scale(72.12 72.12)">
<stop stop-color="#C67438"/>
<stop offset="1" stop-color="#924428"/>
</radialGradient>
<radialGradient id="paint14_radial_364_79" cx="0" cy="0" r="1" gradientUnits="userSpaceOnUse" gradientTransform="translate(627.71 357.77) scale(122.6 122.6)">
<stop stop-color="#C67438"/>
<stop offset="1" stop-color="#924428"/>
</radialGradient>
<linearGradient id="paint15_linear_364_79" x1="375.99" y1="619.53" x2="375.99" y2="534.17" gradientUnits="userSpaceOnUse">
<stop stop-color="#C67412"/>
<stop offset="1" stop-color="#923808"/>
</linearGradient>
<linearGradient id="paint16_linear_364_79" x1="467" y1="603.5" x2="467" y2="469.5" gradientUnits="userSpaceOnUse">
<stop stop-color="#C67412"/>
<stop offset="0.604363" stop-color="#923808"/>
</linearGradient>
<linearGradient id="paint17_linear_364_79" x1="555.15" y1="619.65" x2="555.15" y2="533.74" gradientUnits="userSpaceOnUse">
<stop stop-color="#C67412"/>
<stop offset="1" stop-color="#923808"/>
</linearGradient>
<linearGradient id="paint18_linear_364_79" x1="83.24" y1="767.6" x2="83.24" y2="611.68" gradientUnits="userSpaceOnUse">
<stop stop-color="#C67412"/>
<stop offset="1" stop-color="#923808"/>
</linearGradient>
<linearGradient id="paint19_linear_364_79" x1="216.29" y1="736.93" x2="216.29" y2="636.55" gradientUnits="userSpaceOnUse">
<stop stop-color="#C67412"/>
<stop offset="1" stop-color="#923808"/>
</linearGradient>
<linearGradient id="paint20_linear_364_79" x1="331.95" y1="762.52" x2="331.95" y2="636.7" gradientUnits="userSpaceOnUse">
<stop stop-color="#C67412"/>
<stop offset="1" stop-color="#923808"/>
</linearGradient>
<linearGradient id="paint21_linear_364_79" x1="415.79" y1="763.6" x2="415.79" y2="636.41" gradientUnits="userSpaceOnUse">
<stop stop-color="#C67412"/>
<stop offset="1" stop-color="#923808"/>
</linearGradient>
<linearGradient id="paint22_linear_364_79" x1="510.77" y1="739.02" x2="510.77" y2="636.55" gradientUnits="userSpaceOnUse">
<stop stop-color="#C67412"/>
<stop offset="1" stop-color="#923808"/>
</linearGradient>
<linearGradient id="paint23_linear_364_79" x1="611.62" y1="736.93" x2="611.62" y2="636.55" gradientUnits="userSpaceOnUse">
<stop stop-color="#C67412"/>
<stop offset="1" stop-color="#923808"/>
</linearGradient>
<linearGradient id="paint24_linear_364_79" x1="708.86" y1="753" x2="708.86" y2="636.7" gradientUnits="userSpaceOnUse">
<stop stop-color="#C67412"/>
<stop offset="1" stop-color="#923808"/>
</linearGradient>
<linearGradient id="paint25_linear_364_79" x1="786.8" y1="736.79" x2="786.8" y2="636.91" gradientUnits="userSpaceOnUse">
<stop stop-color="#C67412"/>
<stop offset="1" stop-color="#923808"/>
</linearGradient>
<linearGradient id="paint26_linear_364_79" x1="870.49" y1="736.97" x2="870.49" y2="611.49" gradientUnits="userSpaceOnUse">
<stop stop-color="#C67412"/>
<stop offset="1" stop-color="#923808"/>
</linearGradient>
</defs>
</svg>
