<svg width="311" height="256" viewBox="0 0 311 256" fill="none" xmlns="http://www.w3.org/2000/svg">
<path d="M75.9808 202.154C72.3594 202.162 68.9726 201.401 65.6934 199.637L67.4963 200.075L74.2008 201.716L75.9808 202.154Z" fill="url(#paint0_linear_814_1135)"/>
<path d="M173.469 255.815H172.25C169.855 247.931 164.066 240.893 157.515 235.204C149.104 227.897 139.224 222.135 130.951 214.697C122.67 207.251 115.866 197.414 116.135 186.728C112.433 195.577 114.885 205.829 120.144 213.974C125.407 222.115 133.177 228.554 140.858 234.831C148.539 241.108 156.366 247.489 161.763 255.55C161.821 255.638 161.878 255.727 161.932 255.819H124.927C117.215 250.534 110.784 244.153 105.351 236.392C105.036 235.938 104.744 235.458 104.506 234.962C104.156 234.216 104.164 233.916 104.098 233.42C102.622 240.336 103.126 248.512 104.813 255.819H102.165C99.6004 251.583 98.0818 246.759 97.3668 241.919C96.3288 234.912 96.8325 227.8 97.3245 220.747C97.6744 215.811 98.0242 210.883 98.3702 205.948C98.5739 203.165 98.7661 200.37 98.4201 197.603C96.4941 199.697 95.2063 202.288 94.7334 204.998C94.399 206.932 94.4643 208.927 93.7993 210.787C92.8267 213.539 90.4124 215.592 88.2634 217.695C79.9559 225.836 74.866 236.941 73.4205 248.073C78.0721 236.722 85.1688 226.244 94.1799 217.426C94.1491 221.362 94.1068 225.29 94.0761 229.23C94.0607 230.864 94.2952 232.64 94.1337 234.254C93.9876 235.677 92.819 236.722 91.9425 237.86C87.656 243.438 83.8232 249.388 81.2322 255.819H62.6487C62.641 255.504 62.6256 255.177 62.6179 254.862C62.5372 252.363 62.568 249.846 62.641 247.335C62.6718 246.305 62.2335 241.297 63.2907 240.801C60.888 241.912 58.8351 243.684 57.4512 245.817C57.6549 238.333 61.9183 231.56 65.1091 224.687C66.9851 220.643 68.519 216.472 70.5795 212.502C72.6324 208.539 75.2812 204.748 78.9679 201.981C77.9607 202.085 76.9688 202.15 76.0039 202.158C93.8838 201.247 109.699 191.091 116.192 176.246C118.288 171.441 119.472 166.171 122.866 162.054C120.187 172.159 122.186 183.257 128.248 192.017C135.41 202.361 147.385 208.896 156.366 217.941C166.58 228.219 172.669 241.881 173.465 255.819L173.469 255.815Z" fill="url(#paint1_linear_814_1135)"/>
<path d="M156.668 217.687C153.143 214.139 149.11 210.933 145.212 207.831C139.173 203.033 132.929 198.071 128.593 191.813C122.619 183.191 120.628 172.094 123.269 162.142L123.73 160.396L122.546 161.826C120.101 164.782 118.778 168.361 117.494 171.828C116.968 173.239 116.429 174.704 115.814 176.099C109.391 190.81 93.748 200.885 75.9641 201.777V201.784C75.3644 201.784 74.7801 201.769 74.2034 201.719C71.8161 201.557 69.6171 201.012 67.4989 200.077C67.1337 199.924 66.7839 199.755 66.4187 199.566H66.411C66.3879 199.559 66.361 199.551 66.3379 199.524C66.1918 199.459 66.0535 199.386 65.9074 199.305L65.6959 199.639L65.4922 199.962C68.683 201.677 72.1236 202.526 75.941 202.526H76.0449C76.5984 202.526 77.1635 202.503 77.7325 202.468C74.8839 204.855 72.4158 208.096 70.2053 212.332C68.9559 214.75 67.8757 217.283 66.8377 219.735C66.1649 221.311 65.4653 222.941 64.7348 224.525C64.0928 225.913 63.3855 227.327 62.7127 228.688C60.0025 234.127 57.2076 239.755 57.0462 245.801L57.0039 247.231L57.7997 246.005C58.9184 244.275 60.5099 242.784 62.3629 241.711C62.1515 242.695 62.1438 244.237 62.2168 246.312C62.2322 246.758 62.2399 247.116 62.2322 247.32C62.1438 250.195 62.1361 252.59 62.2091 254.869C62.2168 255.184 62.2322 255.503 62.2399 255.811H63.051C63.0433 255.496 63.028 255.169 63.0203 254.846C62.9472 252.59 62.9626 250.202 63.051 247.346C63.051 247.135 63.0433 246.754 63.028 246.289C62.9126 243.057 63.0587 241.319 63.4739 241.135L63.2855 240.793L63.1087 240.458C61.0943 241.392 59.299 242.788 57.9381 244.46C58.4417 239.07 60.9828 233.954 63.4508 229.003C64.1236 227.631 64.8309 226.22 65.4806 224.821C66.2188 223.23 66.9184 221.588 67.5912 220.008C68.6215 217.571 69.694 215.05 70.9434 212.663C73.3384 208.042 76.0487 204.64 79.2241 202.265H79.2318C95.9738 200.373 110.409 190.452 116.564 176.376C117.179 174.965 117.733 173.485 118.259 172.067C119.29 169.264 120.362 166.385 122.027 163.86C120.047 173.504 122.188 183.968 127.905 192.217C132.299 198.567 138.588 203.568 144.678 208.396C148.56 211.49 152.578 214.681 156.068 218.194C166.137 228.334 172.226 242.003 173.037 255.815H173.848C173.037 241.827 166.867 227.954 156.66 217.683L156.668 217.687ZM157.798 234.93C153.754 231.425 149.314 228.227 145.02 225.132C140.36 221.773 135.528 218.298 131.234 214.423C118.786 203.237 116.376 193.193 116.537 186.739L116.595 184.586L115.749 186.593C112.362 194.696 113.873 205.005 119.793 214.169C125.202 222.538 133.375 229.222 140.587 235.115L140.718 235.219C148.268 241.388 156.08 247.769 161.412 255.742C161.427 255.765 161.443 255.792 161.462 255.815H162.419C162.323 255.661 162.215 255.499 162.112 255.346C156.703 247.285 148.853 240.862 141.252 234.654L141.129 234.55C133.96 228.696 125.833 222.057 120.489 213.785C115.188 205.586 113.489 196.468 115.764 188.942C116.187 195.511 119.344 204.798 130.661 214.969C134.99 218.867 139.838 222.357 144.52 225.724C148.799 228.811 153.224 232.001 157.233 235.484C162.777 240.297 169.208 247.354 171.822 255.818H172.668C170.046 247.1 163.461 239.858 157.794 234.93H157.798ZM105.688 236.187C105.346 235.699 105.081 235.246 104.877 234.807C104.601 234.231 104.57 233.962 104.527 233.589L104.193 231.033L103.697 233.347C102.302 239.897 102.567 247.992 104.378 255.818H105.216C103.551 248.715 103.17 241.377 104.178 235.207C104.397 235.653 104.666 236.107 105.004 236.595C110.329 244.187 116.679 250.541 124.245 255.818H125.617C117.733 250.475 111.159 243.991 105.685 236.187H105.688ZM97.773 241.869C96.735 234.869 97.2463 227.704 97.7307 220.769L98.7764 205.97C98.9724 203.218 99.1723 200.37 98.8263 197.56L98.7225 196.699L98.1151 197.356C96.1353 199.516 94.8282 202.138 94.34 204.94C94.217 205.64 94.1439 206.351 94.0786 207.035C93.9479 208.311 93.8287 209.511 93.4212 210.664C92.6024 212.985 90.6687 214.838 88.808 216.629C88.5235 216.899 88.2467 217.164 87.9699 217.433C79.9738 225.275 74.5148 236.422 73.0155 248.023L72.6196 251.083L73.8036 248.2C78.2861 237.264 85.179 226.97 93.7672 218.382L93.6711 229.23C93.6634 229.864 93.6942 230.521 93.7288 231.163C93.7787 232.186 93.8249 233.251 93.7288 234.216C93.625 235.223 92.9407 236.034 92.2256 236.895C92.0142 237.137 91.8027 237.391 91.6182 237.64C86.6475 244.102 83.103 250.053 80.7964 255.818H81.6653C83.9449 250.21 87.4317 244.387 92.2756 238.071C92.464 237.837 92.6639 237.591 92.8676 237.356C93.6211 236.445 94.4092 235.515 94.5399 234.289C94.636 233.266 94.5899 232.186 94.5399 231.129C94.5091 230.495 94.4745 229.845 94.4822 229.23L94.5976 216.468L93.8902 217.168C85.6903 225.19 78.9742 234.727 74.338 244.932C76.3255 234.654 81.4115 224.963 88.562 217.956C88.8311 217.687 89.1156 217.421 89.3885 217.152C91.3145 215.299 93.3097 213.385 94.1862 210.902C94.6245 209.668 94.7552 208.369 94.8782 207.112C94.9512 206.439 95.0166 205.74 95.1396 205.067C95.5471 202.703 96.5697 200.481 98.1113 198.571C98.315 201.015 98.1343 203.506 97.9652 205.924L96.9195 220.723C96.4236 227.696 95.9123 234.9 96.9695 241.976C97.7422 247.189 99.3568 251.871 101.721 255.818H102.64C100.214 251.882 98.5572 247.158 97.7768 241.873L97.773 241.869Z" fill="url(#paint2_linear_814_1135)"/>
<path d="M247.232 108.714C238.874 104.24 232.077 97.3056 228.072 89.168C230.69 86.1121 232.869 82.7371 234.53 79.1545C239.27 79.7849 242.595 83.8172 244.614 87.8457C246.628 91.8741 247.958 96.3254 251.161 99.6273C256.516 105.143 265.573 105.893 273.508 104.894C267.038 109.841 257.062 109.341 249.957 105.205C242.853 101.069 238.274 94.0037 235.43 86.6887C239.397 93.6462 240.889 102.118 247.12 107.461C249.677 109.652 252.856 111.128 256.131 112.216C259.434 113.316 263.013 114.046 266.446 113.373C270.405 112.597 273.727 110.006 276.053 106.935C278.375 103.863 279.832 100.312 281.262 96.8059C277.563 101.338 271.374 104.025 265.25 103.756C259.126 103.487 253.24 100.265 250.023 95.4259C247.878 92.2009 246.92 88.4338 245.386 84.9243C243.853 81.4109 241.208 78.9354 237.429 77.4863C236.894 77.8284 236.364 78.1705 235.829 78.5126C252.114 64.8474 266.157 48.945 280.435 33.5077C285.736 27.7725 291.007 22.0105 296.239 16.2215C298.78 13.4077 301.264 10.5401 303.843 7.76098C305.077 6.43097 310.39 2.36024 310.39 0.726562C293.56 10.9361 278.075 23.6211 262.609 35.5142C255.447 41.0226 248.339 46.5925 241.288 52.2239C237.844 54.9761 234.411 57.7438 230.989 60.5268C228.764 62.3373 225.519 66.4157 222.294 66.4772C219.529 66.531 217.75 63.9133 216.181 61.7991C212.348 56.6252 206.509 52.762 199.989 51.0784C205.671 53.8768 209.838 59.4543 213.429 64.4053C209.684 62.6486 205.94 60.892 202.195 59.1314C206.313 65.4547 207.085 73.5577 204.229 80.4538C207.281 80.0963 210.299 82.3066 211.037 85.0742C211.776 87.8418 210.457 90.8786 208.127 92.739C205.798 94.5995 202.607 95.3721 199.535 95.2568C203.206 97.1634 208.066 96.8905 211.46 94.5841C214.855 92.2777 216.6 88.0648 215.747 84.2477C222.444 91.7819 229.202 99.3737 237.456 105.436C240.174 107.431 243.038 109.249 245.898 111.063L247.243 108.718L247.232 108.714Z" fill="url(#paint3_linear_814_1135)"/>
<path d="M263.674 114.005C261.406 114.005 258.899 113.532 255.993 112.563C252.137 111.283 249.142 109.7 246.844 107.728C242.657 104.141 240.554 99.1096 238.517 94.247C238.394 93.9549 238.271 93.6627 238.148 93.3706C236.998 91.3641 235.964 89.1769 235.041 86.809L235.783 86.5053C236.975 88.5964 237.955 90.8451 238.886 93.0554C241.888 98.2947 245.667 102.258 250.169 104.876C256.201 108.385 265.408 109.565 272.043 105.425C266.034 105.99 256.554 105.744 250.853 99.8707C248.462 97.4067 247.09 94.297 245.759 91.2872C245.279 90.1955 244.779 89.0692 244.241 87.9968C242.834 85.183 239.751 80.4011 234.776 79.567C233.146 83.015 231.051 86.2593 228.545 89.2153C232.527 97.1876 239.228 103.988 247.436 108.385L247.028 109.039C238.605 104.526 231.739 97.5259 227.699 89.3191L227.595 89.1077L227.749 88.927C230.348 85.8941 232.5 82.5537 234.153 78.9981L234.276 78.7329L234.584 78.7751C240.116 79.5132 243.472 84.6718 244.975 87.6777C245.521 88.7656 246.021 89.9034 246.509 90.9989C247.812 93.9472 249.162 96.9993 251.457 99.3633C257.415 105.502 267.791 105.221 273.446 104.51L274.861 104.334L273.758 105.175C267.591 109.888 257.489 110.03 249.731 105.514C246.286 103.511 243.257 100.747 240.67 97.253C242.315 100.939 244.264 104.499 247.389 107.178C249.608 109.081 252.51 110.611 256.262 111.856C260.295 113.194 263.501 113.559 266.357 112.998C269.84 112.314 273.166 110.08 275.714 106.709C277.575 104.253 278.878 101.462 280.047 98.6752C276.218 102.312 270.709 104.364 265.223 104.122C258.934 103.845 252.971 100.582 249.669 95.6116C248.201 93.4013 247.274 90.9258 246.375 88.5272C245.944 87.3779 245.498 86.1901 245.002 85.0523C243.545 81.7158 241.012 79.3095 237.467 77.9026L236.053 78.8136L235.549 78.2255C249.65 66.3938 262.244 52.6902 274.427 39.4362C276.326 37.372 278.221 35.3117 280.12 33.2552C285.394 27.5508 290.707 21.7387 295.92 15.9728C296.893 14.8965 297.858 13.8125 298.823 12.7285C300.353 11.0064 301.933 9.22669 303.528 7.50845C303.882 7.1279 304.547 6.53977 305.32 5.85555C306.642 4.68699 308.637 2.92262 309.525 1.6964C296.166 9.91091 283.526 19.7476 271.29 29.269C268.476 31.4601 265.669 33.6396 262.867 35.796C255.732 41.2813 248.562 46.9012 241.554 52.5018C238.155 55.2156 234.692 58.0102 231.259 60.8047C230.728 61.2352 230.125 61.8118 229.486 62.423C227.445 64.3719 224.908 66.7974 222.301 66.8474C219.472 66.9012 217.665 64.4718 216.085 62.3269L215.847 62.004C212.717 57.7795 208.154 54.4007 203.022 52.4365C207.578 55.6461 211.084 60.4895 213.767 64.1874L214.636 65.3867L203.21 60.0244C206.678 66.0748 207.297 73.5781 204.825 80.0321C207.812 79.9975 210.665 82.1117 211.43 84.9754C212.168 87.7431 210.945 90.9758 208.389 93.017C206.559 94.4776 204.06 95.381 201.346 95.5885C204.598 96.6226 208.443 96.1536 211.214 94.2701C214.463 92.0637 216.162 87.9699 215.343 84.3143L215.009 82.8228L216.054 83.9991C222.64 91.4063 229.444 99.0673 237.702 105.129C240.404 107.113 243.299 108.954 246.105 110.734L245.663 111.368C242.83 109.569 239.92 107.724 237.198 105.721C229.256 99.8861 222.667 92.6172 216.335 85.4982C216.589 89.0577 214.801 92.771 211.695 94.8774C208.197 97.253 203.114 97.5413 199.332 95.577L197.855 94.8082L199.547 94.8697C202.753 94.9851 205.779 94.1009 207.858 92.4404C210.188 90.5799 211.307 87.6508 210.642 85.1484C209.93 82.4769 207.009 80.4934 204.279 80.8124L203.606 80.8893L203.849 80.3012C206.647 73.5474 205.878 65.5059 201.85 59.3094L201.119 58.187L212.225 63.3994C209.15 59.1903 205.079 53.9894 199.808 51.3947L196.514 49.7726L200.108 50.699C206.682 52.3942 212.664 56.3573 216.527 61.5697L216.766 61.8926C218.215 63.8607 219.856 66.0863 222.221 66.0863C222.244 66.0863 222.267 66.0863 222.294 66.0863C224.566 66.044 226.972 63.7415 228.91 61.8926C229.56 61.2698 230.175 60.6856 230.728 60.232C234.161 57.4374 237.629 54.6429 241.027 51.9252C248.039 46.3207 255.213 40.7009 262.352 35.2117C265.154 33.0553 267.96 30.8758 270.771 28.6847C283.357 18.8942 296.366 8.76926 310.167 0.397154L310.798 0.0166016V0.712354C310.798 1.95395 308.572 4.02199 305.889 6.39755C305.135 7.0664 304.482 7.63914 304.151 7.99662C302.563 9.71102 300.983 11.4869 299.457 13.2052C298.492 14.293 297.527 15.377 296.551 16.4571C291.338 22.2231 286.021 28.0428 280.747 33.7472C278.848 35.7999 276.952 37.8641 275.057 39.9244C263.378 52.6286 251.322 65.748 237.909 77.2568C241.6 78.7521 244.241 81.2814 245.771 84.7756C246.275 85.9326 246.724 87.128 247.159 88.2851C248.043 90.6452 248.954 93.0823 250.377 95.2195C253.54 99.9822 259.249 103.103 265.277 103.373C271.317 103.645 277.306 101.032 280.947 96.5726L282.65 94.4853L281.65 96.9339C280.228 100.417 278.759 104.018 276.395 107.147C273.727 110.672 270.229 113.013 266.542 113.74C265.627 113.92 264.677 114.009 263.686 114.009L263.674 114.005Z" fill="url(#paint4_linear_814_1135)"/>
<path d="M276.384 169.356C277.042 168.802 277.945 168.256 278.752 168.595C279.368 168.852 279.629 169.517 279.81 170.121C281.132 174.58 281.044 179.388 279.564 183.805C277.026 182.756 271.81 180.049 271.183 177.236C270.599 174.599 274.431 171.001 276.381 169.356H276.384Z" fill="url(#paint5_linear_814_1135)"/>
<path d="M279.818 184.323L279.399 184.15C278.599 183.819 271.568 180.821 270.788 177.311C270.211 174.709 273.363 171.395 276.112 169.078C277.165 168.186 278.111 167.913 278.922 168.255C279.683 168.574 279.999 169.327 280.202 170.023C281.536 174.528 281.448 179.464 279.953 183.919L279.818 184.323ZM276.658 169.635C273.048 172.683 271.199 175.424 271.583 177.161C272.122 179.587 276.508 182.066 279.311 183.285C280.633 179.072 280.671 174.451 279.418 170.223C279.264 169.696 279.041 169.135 278.584 168.943C277.977 168.689 277.2 169.181 276.658 169.639V169.635Z" fill="url(#paint6_linear_814_1135)"/>
<path d="M108.68 56.6562C114.573 52.8968 119.063 47.5307 122.877 41.9185C126.69 36.3064 129.923 30.3637 133.891 24.8438C133.145 25.8816 131.696 26.7926 130.723 27.6652C129.67 28.6108 128.62 29.5564 127.578 30.5097C125.464 32.4355 123.361 34.3729 121.274 36.3256C119.186 38.2783 117.114 40.2426 115.057 42.2184C114.308 42.941 113.035 43.7713 112.562 44.6708C112.032 45.6818 112.059 47.2731 111.778 48.3802C111.055 51.2286 110.018 54.0077 108.684 56.6562H108.68Z" fill="url(#paint7_linear_814_1135)"/>
<path d="M188.84 76.9699C185.641 72.6647 184.407 67.1256 185.499 61.9977C174.835 61.5864 164.175 64.9691 154.745 67.9597L152.054 68.813L154.376 67.2947C163.314 61.4596 174.216 58.5843 185.126 59.1878L185.119 55.5169C171.175 56.0166 158.439 61.0098 149.213 69.5972L147.01 71.6499L148.574 69.1436C151.984 63.6814 157.709 59.1686 164.69 56.4432C170.695 54.0984 177.618 53.0029 185.265 53.1913L185.365 49.6472C177.445 50.2507 167.466 51.6268 159.496 56.6854C157.513 57.9462 155.652 59.4377 153.849 60.8792C151.931 62.4167 149.947 64.0043 147.794 65.3343C142.75 68.4517 136.646 70.1661 130.583 70.1738C130.46 70.243 130.333 70.2353 130.229 70.2084L129.918 70.4736L129.63 69.6779L129.83 69.4781L129.806 69.4165H129.914C129.941 69.405 129.968 69.3935 129.995 69.3858C132.99 66.868 136.33 64.7462 139.936 63.0625C132.144 61.9555 123.794 63.7429 117.362 67.952L116.624 68.4325L116.72 67.6022C117.024 65.0191 118.377 62.3668 120.634 59.9297C122.341 58.0885 124.367 56.5355 126.389 55.0671C123.306 55.3247 119.992 56.0204 116.305 57.1697C114.671 57.681 112.915 58.296 110.769 59.1071C110.454 59.2263 110.1 59.3416 109.739 59.4569C108.563 59.8374 107.229 60.2718 106.737 61.079C106.148 62.0477 105.795 63.3162 105.453 64.5424C105.237 65.3112 105.014 66.1031 104.741 66.8027C103.992 68.7054 103.154 70.6043 102.258 72.4456C100.467 76.1319 98.3676 79.7375 96.0187 83.1663C91.3171 90.0201 85.639 96.1665 79.1306 101.437C78.354 102.067 77.5236 102.594 76.724 103.101C76.0513 103.528 75.3554 103.97 74.6981 104.469L72.9989 105.761L74.0907 103.989C76.6279 99.8644 79.7649 96.0282 82.7981 92.3188C85.9312 88.4902 89.1681 84.5309 91.7284 80.268C92.4973 78.988 93.0932 78.0846 93.6698 77.2121C94.1427 76.4971 94.5963 75.809 95.1114 74.9634C95.4382 74.429 95.765 73.9217 96.0956 73.4066C96.776 72.3495 97.4834 71.2578 98.2292 69.8355C99.7669 66.9065 100.82 63.716 101.843 60.6293C102.346 59.1032 102.869 57.5272 103.442 55.9973C105.814 49.6779 108.174 43.3585 110.535 37.0352C114.683 25.93 118.958 14.4789 123.24 3.17773C118.285 10.1814 113.91 17.5464 109.666 24.6923C104.888 32.7415 99.9476 41.0636 94.1811 48.8553C92.0206 51.7729 90.0446 54.8826 88.134 57.8847C86.3233 60.7331 84.4473 63.6775 82.4175 66.4682C78.7846 71.4577 74.552 76.0896 69.8427 80.2334L67.0901 82.6512L69.2237 79.7452C70.1618 78.469 71.2036 77.2121 72.2146 75.9974C74.8288 72.8453 77.5352 69.5857 78.577 65.7725C80.3531 59.2762 81.7716 53.1836 83.2709 46.7373C83.9744 43.7236 84.6895 40.6446 85.4737 37.3965C83.8975 40.9944 82.1484 44.5693 80.4338 48.0635C79.8495 49.2551 79.269 50.439 78.7 51.6191C76.724 55.7091 75.5515 57.9885 74.0676 60.8715C72.3607 64.1926 70.2348 68.3249 65.9522 76.993L64.5145 79.9028L65.1834 76.7623C67.809 64.4617 70.1733 51.9535 72.2223 39.5376C63.5418 58.296 55.4303 77.9539 47.4725 99.5146C47.6532 99.5607 47.8185 99.653 47.9492 99.7875L48.2645 100.118L47.8608 100.356C46.1885 101.34 44.6239 102.24 43.0593 103.139C41.5215 104.024 39.9838 104.912 38.3423 105.876C35.213 112.895 32.9448 120.28 31.5993 127.821L31.3264 129.351L30.8112 127.875C30.0462 125.684 29.1659 123.505 28.1894 121.379C27.6935 127.745 26.2865 134.014 23.9991 140.041C24.9909 141.056 26.052 142.159 27.113 143.263C28.2317 144.423 29.3504 145.584 30.3845 146.645L30.5652 146.83L30.4499 147.057C24.7334 158.338 18.2595 171.127 7.36084 179.984L6.8803 180.372C5.46559 181.51 4.0009 182.686 3.27432 184.235C2.61694 185.638 2.53237 187.337 3.01291 189.59C4.33536 195.786 8.63716 201.394 14.5113 204.593C16.1105 205.465 19.1475 206.738 21.5003 205.481C22.9573 204.704 23.7838 203.117 24.4489 201.837L37.1082 177.516C40.0722 171.823 43.1361 165.934 47.8454 161.145C53.1314 155.767 59.8244 152.83 66.1829 153.018L68.0435 153.08L66.3251 153.741C54.3078 158.369 46.5307 169.643 41.7253 177.723C40.4605 179.849 39.2188 182.052 38.0155 184.177C33.6868 191.846 29.2082 199.768 22.6843 206.115C25.2639 208.875 25.5522 213.192 23.4955 216.278C27.0284 214.821 29.7886 211.804 30.6882 208.306L30.8727 207.591L31.3917 208.148C33.4561 210.362 34.6171 213.238 34.6517 216.155C37.4581 213.357 39.4533 209.943 40.449 206.226L40.5259 205.946L40.8372 205.938C43.7974 205.884 46.7383 205.235 49.4062 204.051C45.5965 203.001 42.6056 199.615 42.398 195.913L42.3827 195.629L42.671 195.536C44.3894 194.987 46.1655 194.418 47.6455 193.43C49.2525 192.357 50.2405 190.904 50.3558 189.444C50.4365 188.429 50.1174 187.441 49.7791 186.392C49.4408 185.342 49.091 184.258 49.164 183.128C49.3409 180.407 51.832 178.404 54.2462 176.801C64.0762 170.274 72.6221 166.276 81.1373 164.212C81.6102 164.097 82.1099 163.993 82.6135 163.885C85.17 163.343 87.8111 162.786 88.9413 160.776C90.4367 158.112 92.6357 155.644 95.4766 153.441C96.6607 152.523 97.9255 151.665 99.148 150.839C100.828 149.697 102.569 148.521 104.099 147.18C108.47 143.359 111.231 138.212 113.899 133.23C116.351 128.652 118.892 123.916 122.691 120.137L123.286 120.652C122.86 121.079 122.548 122.121 122.302 122.959C122.175 123.389 122.052 123.793 121.926 124.108C117.259 135.409 111.727 146.538 105.48 157.185C102.358 162.501 99.0096 167.787 95.5189 172.892C95.0038 173.645 94.4925 174.406 93.9812 175.167C91.1518 179.376 88.2301 183.724 84.3896 187.295C83.8168 187.829 83.2094 188.36 82.5905 188.863C79.1729 191.662 75.094 194.064 70.1118 196.217L68.9546 196.716C74.4866 195.705 80.0647 193.53 85.9235 190.116C93.6506 185.611 104.092 178.069 109.958 167.729C115.11 158.646 118.258 148.575 121.299 138.838C122.479 135.056 123.702 131.146 125.024 127.345C128.638 116.958 134.789 102.328 146.964 92.7031C139.44 95.7014 133.359 101.237 127.461 106.611C122.268 111.342 116.897 116.232 110.496 119.495C106.975 121.291 103.842 122.186 100.955 122.136C97.2181 122.109 93.8736 120.503 92.2282 117.939L91.6208 116.993L92.728 117.397C98.4675 119.488 104.738 117.066 108.69 114.099C112.695 111.093 115.659 106.999 118.527 103.043C118.889 102.547 119.246 102.052 119.607 101.56C122.71 97.3236 126.466 92.5725 131.813 89.8164C135.431 87.952 139.544 87.1294 143.519 86.3299C144.872 86.057 146.272 85.7764 147.625 85.4612C149.578 85.0037 151.335 84.4656 152.892 83.8467C152.423 83.9889 151.965 84.1081 151.531 84.2157C149.182 84.7846 146.741 85.0883 144.384 85.3766C142.827 85.5688 141.22 85.7687 139.659 86.0416C128.234 88.0443 117.985 94.3407 111.538 103.309L109.608 105.992L110.819 102.966C115.248 91.8921 127.039 84.9038 137.987 79.5261C151.05 73.1106 166.577 66.6989 182.67 67.8175L184.177 67.9212L182.816 68.5324C170.237 74.1754 161.73 84.4233 153.887 96.7854C158.416 91.4347 163.856 86.7566 169.987 82.9741L170.495 83.5584C157.92 94.9288 149.793 109.49 147.613 124.562C145.422 139.718 149.359 154.91 158.439 166.668C152.43 151.231 151.796 134.199 156.694 118.404C161.576 102.655 173.278 87.5715 188.825 76.9622L188.84 76.9699ZM13.5464 189.278C12.4123 189.932 10.84 191.031 9.54058 191.212C10.0634 189.963 11.2244 188.621 11.9817 187.46C12.5238 186.626 13.0927 185.807 13.6886 185.004C13.8924 184.727 15.5723 182.932 15.4839 182.717C16.0413 184.058 16.814 185.319 17.7751 186.449C16.4411 187.483 15.0264 188.429 13.5502 189.278H13.5464ZM54.6653 132.123C50.6364 133.595 47.115 135.356 43.7897 137.927C44.4778 135.01 45.4389 132.146 46.6614 129.386C46.6614 129.386 47.4572 128.31 47.5071 128.179C47.5071 128.171 47.5071 128.164 47.5071 128.16C52.1126 122.636 56.4106 118.815 62.204 114.352C60.4126 120.618 58.6749 125.4 55.3573 131.108C55.5226 130.977 54.4961 132.257 54.6614 132.127L54.6653 132.123Z" fill="url(#paint8_linear_814_1135)"/>
<path d="M153.155 200.445C160.232 205.404 166.014 211.904 170.062 219.211C173.557 225.523 177.812 235.01 175.952 242.248C178.124 233.818 180.296 224.962 177.878 216.59C175.732 209.163 170.197 202.99 164.203 197.678C158.21 192.365 151.579 187.622 146.316 181.687C137.351 171.581 135.033 160.115 130.861 148.141C129.101 155.456 128.674 163.397 129.927 170.804C131.304 178.938 135.106 186.888 141.618 192.484C145.135 195.51 149.33 197.766 153.159 200.445H153.155Z" fill="url(#paint9_linear_814_1135)"/>
<path d="M187.619 59.6909C188.404 67.2788 191.348 74.7246 196.419 80.7288C194.208 75.2435 193.809 69.1432 195.293 63.4503C198.283 67.4787 200.406 72.0569 201.497 76.8387C202.528 69.9658 201.436 62.9352 199.321 56.2813C197.572 50.7768 195.143 45.4914 192.602 40.2675C192.294 39.6371 191.99 39.0028 191.675 38.3724C191.291 37.6074 191.16 37.3038 190.645 38.1417C189.968 39.2373 189.695 40.8364 189.342 42.051C188.542 44.7995 187.973 47.6055 187.662 50.4385C187.327 53.5137 187.296 56.6157 187.615 59.6947L187.619 59.6909Z" fill="url(#paint10_linear_814_1135)"/>
<path d="M222.587 109.803C225.528 110.557 228.511 111.33 231.117 112.802C236.538 115.865 239.548 121.443 242.739 126.528C248.394 135.543 255.383 143.765 262.349 151.952C254.587 145.664 246.664 139.194 241.705 130.814C239.702 127.432 237.703 123.376 233.662 122.446C231.033 121.843 228.23 122.804 225.57 122.339C221.418 121.612 218.9 117.784 216.963 114.301C215.025 110.818 212.676 106.947 208.578 105.994C209.316 106.167 210.054 106.455 210.762 106.713C214.283 107.882 218.719 108.804 222.587 109.796V109.803Z" fill="url(#paint11_linear_814_1135)"/>
<path d="M256.383 168.622C253.149 165.623 252.888 160.78 250.151 157.382C247.091 153.58 240.821 151.716 235.873 152.077C239.333 153.699 242.508 154.472 245.476 157.055C249.517 160.572 252.308 165.131 256.383 168.622Z" fill="url(#paint12_linear_814_1135)"/>
<path d="M247.026 108.414C247.564 118.009 252.151 126.946 258.113 134.63C267.286 146.288 279.857 155.056 289.763 166.189C294.884 171.389 293.8 175.376 291.309 181.411C288.764 188.207 284.704 195.968 277.377 199.692C274.744 201.099 271.76 201.81 268.785 201.737C267.908 192.247 261.25 183.398 251.951 179.35L252.385 178.489C261.877 182.633 268.681 191.528 269.758 201.203C269.758 201.203 269.116 200.788 269.131 200.788C278.1 196.079 282.39 188.307 286.603 179.646C288.833 174.995 290.824 172.885 286.823 168.345C277.523 156.867 265.44 147.58 256.821 135.456C251.297 127.495 246.68 117.843 247.026 108.418V108.414Z" fill="url(#paint13_linear_814_1135)"/>
<path d="M268.754 200.594C268.519 199.586 268.292 198.587 268.054 197.58L268.031 197.603C265.813 199.625 262.46 200.494 259.443 199.844C256.406 199.187 253.807 197.011 252.792 194.282C254.237 193.34 254.668 191.457 254.268 189.865C253.88 188.266 252.815 186.894 251.75 185.587C245.684 178.118 238.752 171.257 231.102 165.16C233.401 164.764 235.696 164.364 237.995 163.957C235.754 160.87 231.394 159.583 227.385 159.809C223.375 160.036 219.588 161.539 215.898 163.007C212.204 164.476 208.413 165.956 204.4 166.148C199.187 166.398 194.039 164.395 190.053 161.27C186.074 158.153 183.167 153.99 180.991 149.596C174.844 137.192 174.514 122.02 179.727 109.246C171.088 117.407 168.344 129.73 169.651 141.093C170.643 149.723 173.695 157.995 177.162 166.002C180.484 173.674 185.412 180.355 189.372 187.759C192.044 192.752 194.585 197.811 196.995 202.915C200.94 211.295 204.538 219.875 206.437 228.854C208.305 237.672 208.409 246.852 206.883 255.816H210.024C212.703 247.52 214.053 238.848 212.557 230.357C210.535 218.845 203.527 208.712 197.676 198.395C191.848 188.108 186.942 176.469 189.484 165.102C195.988 168.966 204.626 167.497 212.461 167.497C214.914 167.497 217.374 167.659 219.777 168.105C229.684 169.98 237.68 176.515 245.172 182.808C246.779 184.165 248.436 185.56 249.386 187.378C250.343 189.196 250.443 191.541 249.051 193.102C250.351 196.665 253.322 199.686 257.04 201.197C260.719 202.681 265.044 202.692 268.723 201.205C268.754 201.197 268.788 201.182 268.819 201.174C268.834 201.166 268.861 201.159 268.877 201.151C268.834 200.963 268.788 200.778 268.746 200.59L268.754 200.594ZM188.795 164.68C188.884 164.737 188.972 164.795 189.065 164.849C188.999 164.856 188.918 164.826 188.795 164.68Z" fill="url(#paint14_linear_814_1135)"/>
<path d="M73.4124 202.163C69.7911 202.17 66.4042 201.409 63.125 199.645L64.928 200.083L71.6325 201.724L73.4124 202.163Z" fill="url(#paint15_linear_814_1135)"/>
<path d="M170.901 255.824H169.682C167.287 247.939 161.497 240.9 154.947 235.21C146.535 227.902 136.655 222.14 128.382 214.701C120.102 207.254 113.297 197.417 113.566 186.729C109.864 195.579 112.317 205.832 117.576 213.978C122.839 222.12 130.608 228.56 138.289 234.837C145.97 241.115 153.797 247.497 159.195 255.558C159.252 255.647 159.31 255.735 159.364 255.827H122.358C114.647 250.541 108.215 244.16 102.783 236.398C102.468 235.945 102.176 235.464 101.937 234.968C101.588 234.222 101.595 233.922 101.53 233.427C100.054 240.342 100.557 248.519 102.245 255.827H99.5962C97.032 251.591 95.5135 246.766 94.7984 241.926C93.7605 234.918 94.2641 227.806 94.7562 220.752C95.106 215.816 95.4558 210.887 95.8018 205.951C96.0056 203.168 96.1978 200.373 95.8518 197.605C93.9258 199.7 92.6379 202.291 92.1651 205.002C91.8306 206.935 91.896 208.93 91.2309 210.791C90.2583 213.544 87.8441 215.597 85.6951 217.699C77.3875 225.842 72.2976 236.948 70.8521 248.081C75.5038 236.729 82.6004 226.249 91.6115 217.43C91.5807 221.367 91.5385 225.296 91.5077 229.236C91.4923 230.87 91.7268 232.646 91.5654 234.261C91.4193 235.683 90.2506 236.729 89.3741 237.867C85.0877 243.445 81.2549 249.396 78.6638 255.827H60.0803C60.0726 255.512 60.0573 255.185 60.0496 254.87C59.9689 252.371 59.9996 249.853 60.0727 247.343C60.1034 246.313 59.6652 241.304 60.7223 240.808C58.3196 241.919 56.2668 243.691 54.8828 245.824C55.0866 238.34 59.3499 231.566 62.5407 224.692C64.4167 220.648 65.9506 216.477 68.0112 212.506C70.0641 208.542 72.7128 204.752 76.3995 201.984C75.3923 202.088 74.4004 202.153 73.4355 202.161C91.3155 201.249 107.131 191.093 113.624 176.246C115.719 171.441 116.903 166.17 120.298 162.053C117.618 172.159 119.617 183.258 125.68 192.019C132.842 202.364 144.817 208.9 153.797 217.945C164.012 228.225 170.101 241.888 170.897 255.827L170.901 255.824Z" fill="url(#paint16_linear_814_1135)"/>
<path d="M154.1 217.692C150.574 214.144 146.542 210.938 142.644 207.835C136.604 203.038 130.361 198.075 126.025 191.816C120.051 183.193 118.059 172.095 120.7 162.142L121.162 160.396L119.977 161.827C117.532 164.783 116.21 168.362 114.926 171.83C114.399 173.24 113.861 174.705 113.246 176.101C106.822 190.813 91.1796 200.889 73.3958 201.781V201.788C72.7961 201.788 72.2117 201.773 71.6351 201.723C69.2477 201.562 67.0488 201.016 64.9306 200.081C64.5653 199.928 64.2155 199.759 63.8503 199.57H63.8426C63.8195 199.562 63.7926 199.555 63.7696 199.528C63.6235 199.463 63.4851 199.389 63.339 199.309L63.1276 199.643L62.9238 199.966C66.1146 201.681 69.5553 202.53 73.3727 202.53H73.4765C74.0301 202.53 74.5952 202.507 75.1641 202.473C72.3155 204.86 69.8474 208.101 67.637 212.337C66.3876 214.755 65.3073 217.289 64.2693 219.741C63.5966 221.318 62.8969 222.947 62.1665 224.531C61.5245 225.919 60.8171 227.334 60.1444 228.695C57.4341 234.134 54.6393 239.763 54.4778 245.81L54.4355 247.24L55.2313 246.013C56.35 244.284 57.9416 242.792 59.7945 241.719C59.5831 242.703 59.5754 244.245 59.6485 246.321C59.6638 246.767 59.6715 247.124 59.6638 247.328C59.5754 250.204 59.5677 252.599 59.6408 254.878C59.6485 255.194 59.6638 255.513 59.6715 255.82H60.4827C60.475 255.505 60.4596 255.178 60.4519 254.855C60.3789 252.599 60.3942 250.211 60.4827 247.355C60.4827 247.144 60.475 246.763 60.4596 246.298C60.3443 243.065 60.4904 241.327 60.9055 241.143L60.7172 240.801L60.5403 240.466C58.5259 241.4 56.7306 242.796 55.3697 244.468C55.8733 239.078 58.4144 233.961 60.8825 229.01C61.5552 227.638 62.2626 226.227 62.9123 224.827C63.6504 223.236 64.3501 221.594 65.0228 220.014C66.0531 217.577 67.1257 215.055 68.3751 212.668C70.7701 208.047 73.4803 204.645 76.6557 202.269H76.6634C93.4055 200.377 107.841 190.455 113.996 176.377C114.611 174.966 115.164 173.486 115.691 172.068C116.721 169.265 117.794 166.386 119.458 163.86C117.479 173.506 119.62 183.97 125.336 192.22C129.731 198.571 136.02 203.572 142.109 208.401C145.992 211.495 150.009 214.686 153.5 218.2C163.568 228.341 169.658 242.012 170.469 255.824H171.28C170.469 241.835 164.299 227.96 154.092 217.688L154.1 217.692ZM155.23 234.938C151.186 231.432 146.745 228.233 142.451 225.139C137.792 221.779 132.96 218.304 128.666 214.428C116.218 203.241 113.807 193.196 113.969 186.742L114.026 184.589L113.181 186.596C109.794 194.699 111.305 205.01 117.225 214.175C122.634 222.544 130.807 229.229 138.019 235.122L138.15 235.226C145.7 241.396 153.512 247.778 158.844 255.751C158.859 255.774 158.874 255.801 158.894 255.824H159.851C159.755 255.67 159.647 255.509 159.543 255.355C154.134 247.294 146.284 240.87 138.684 234.661L138.561 234.557C131.391 228.702 123.264 222.063 117.921 213.79C112.619 205.59 110.92 196.472 113.196 188.944C113.619 195.514 116.775 204.802 128.093 214.974C132.422 218.873 137.269 222.363 141.952 225.731C146.23 228.818 150.655 232.009 154.665 235.492C160.208 240.305 166.64 247.363 169.254 255.828H170.1C167.478 247.109 160.893 239.866 155.226 234.938H155.23ZM103.12 236.195C102.778 235.707 102.513 235.253 102.309 234.815C102.032 234.238 102.001 233.969 101.959 233.596L101.625 231.04L101.129 233.354C99.7332 239.905 99.9985 248.001 101.809 255.828H102.647C100.983 248.724 100.602 241.385 101.609 235.215C101.828 235.661 102.097 236.114 102.436 236.603C107.76 244.195 114.111 250.55 121.677 255.828H123.049C115.164 250.484 108.591 243.999 103.116 236.195H103.12ZM95.2046 241.877C94.1667 234.876 94.678 227.711 95.1623 220.775L96.208 205.975C96.4041 203.222 96.604 200.374 96.258 197.563L96.1542 196.702L95.5468 197.36C93.5669 199.52 92.2599 202.142 91.7716 204.945C91.6486 205.644 91.5756 206.355 91.5102 207.04C91.3795 208.316 91.2603 209.515 90.8528 210.669C90.034 212.991 88.1003 214.844 86.2396 216.635C85.9552 216.904 85.6784 217.169 85.4016 217.439C77.4054 225.281 71.9464 236.43 70.4472 248.032L70.0512 251.092L71.2352 248.209C75.7177 237.271 82.6106 226.976 91.1988 218.388L91.1027 229.237C91.095 229.871 91.1258 230.529 91.1604 231.171C91.2104 232.193 91.2565 233.258 91.1604 234.223C91.0566 235.23 90.3723 236.041 89.6573 236.902C89.4458 237.145 89.2344 237.398 89.0499 237.648C84.0791 244.11 80.5347 250.062 78.2281 255.828H79.0969C81.3766 250.219 84.8634 244.395 89.7072 238.079C89.8956 237.844 90.0955 237.598 90.2993 237.364C91.0528 236.453 91.8408 235.522 91.9715 234.296C92.0676 233.273 92.0215 232.193 91.9715 231.136C91.9408 230.502 91.9062 229.852 91.9139 229.237L92.0292 216.474L91.3218 217.173C83.1219 225.196 76.4059 234.734 71.7696 244.941C73.7571 234.661 78.8432 224.97 85.9936 217.961C86.2627 217.692 86.5472 217.427 86.8201 217.158C88.7462 215.305 90.7414 213.39 91.6179 210.907C92.0561 209.673 92.1868 208.374 92.3098 207.117C92.3829 206.444 92.4482 205.744 92.5713 205.071C92.9788 202.707 94.0014 200.485 95.5429 198.574C95.7467 201.019 95.566 203.511 95.3968 205.929L94.3512 220.729C93.8553 227.703 93.344 234.907 94.4012 241.985C95.1739 247.198 96.7885 251.88 99.1528 255.828H100.072C97.6458 251.891 95.9889 247.167 95.2085 241.881L95.2046 241.877Z" fill="url(#paint17_linear_814_1135)"/>
<path d="M244.663 108.708C236.306 104.233 229.509 97.2977 225.503 89.1593C228.121 86.103 230.301 82.7277 231.962 79.1448C236.702 79.7753 240.027 83.808 242.045 87.8368C244.06 91.8657 245.39 96.3174 248.592 99.6197C253.947 105.136 263.005 105.886 270.939 104.886C264.469 109.834 254.493 109.334 247.389 105.198C240.285 101.061 235.706 93.9954 232.861 86.6797C236.829 93.6379 238.32 102.111 244.552 107.454C247.108 109.646 250.288 111.122 253.563 112.21C256.865 113.309 260.444 114.04 263.877 113.367C267.837 112.59 271.158 109.999 273.484 106.928C275.806 103.856 277.263 100.304 278.693 96.7979C274.995 101.33 268.806 104.018 262.682 103.748C256.558 103.479 250.672 100.258 247.454 95.4178C245.309 92.1924 244.352 88.425 242.818 84.9151C241.284 81.4014 238.639 78.9257 234.86 77.4763C234.326 77.8185 233.795 78.1606 233.261 78.5028C249.546 64.8362 263.589 48.9322 277.867 33.4934C283.168 27.7577 288.439 21.995 293.671 16.2055C296.212 13.3914 298.695 10.5236 301.275 7.7441C302.509 6.41397 307.822 2.34282 307.822 0.708984C290.991 10.9195 275.506 23.6058 260.041 35.5001C252.879 41.0091 245.771 46.5795 238.72 52.2114C235.275 54.964 231.843 57.7319 228.421 60.5152C226.195 62.3259 222.951 66.4047 219.725 66.4662C216.961 66.52 215.181 63.902 213.613 61.7877C209.78 56.6132 203.94 52.7496 197.42 51.0658C203.102 53.8645 207.27 59.4426 210.86 64.3941C207.116 62.6373 203.371 60.8804 199.627 59.1197C203.744 65.4436 204.517 73.5474 201.661 80.4442C204.713 80.0866 207.731 82.2971 208.469 85.065C209.207 87.833 207.889 90.87 205.559 92.7306C203.229 94.5913 200.038 95.364 196.967 95.2487C200.638 97.1555 205.497 96.8825 208.892 94.5759C212.286 92.2693 214.032 88.0559 213.178 84.2385C219.875 91.7734 226.633 99.366 234.887 105.428C237.605 107.424 240.469 109.242 243.329 111.057L244.675 108.712L244.663 108.708Z" fill="url(#paint18_linear_814_1135)"/>
<path d="M261.108 114C258.839 114 256.333 113.527 253.427 112.558C249.571 111.278 246.576 109.694 244.277 107.722C240.091 104.135 237.988 99.1029 235.95 94.2398C235.827 93.9477 235.704 93.6555 235.581 93.3633C234.432 91.3566 233.398 89.1692 232.475 86.801L233.217 86.4974C234.409 88.5887 235.389 90.8376 236.319 93.0481C239.322 98.2879 243.101 102.251 247.603 104.869C253.634 108.379 262.841 109.559 269.477 105.419C263.468 105.984 253.988 105.738 248.287 99.8641C245.896 97.3999 244.523 94.2898 243.193 91.2797C242.713 90.1879 242.213 89.0615 241.675 87.9889C240.268 85.1749 237.184 80.3926 232.21 79.5583C230.58 83.0067 228.485 86.2513 225.978 89.2076C229.961 97.1807 236.662 103.981 244.869 108.379L244.462 109.033C236.039 104.52 229.173 97.519 225.132 89.3114L225.029 89.1L225.182 88.9193C227.781 85.8861 229.934 82.5454 231.587 78.9894L231.71 78.7241L232.018 78.7664C237.55 79.5045 240.906 84.6636 242.409 87.6699C242.955 88.7578 243.454 89.8957 243.943 90.9914C245.246 93.94 246.595 96.9924 248.89 99.3566C254.849 105.496 265.225 105.215 270.88 104.504L272.295 104.327L271.191 105.169C265.025 109.882 254.922 110.025 247.164 105.508C243.72 103.505 240.69 100.741 238.103 97.2461C239.749 100.933 241.698 104.493 244.823 107.172C247.041 109.075 249.944 110.605 253.696 111.851C257.728 113.189 260.935 113.554 263.791 112.992C267.274 112.308 270.599 110.075 273.148 106.703C275.009 104.247 276.312 101.456 277.481 98.6685C273.652 102.305 268.143 104.358 262.657 104.116C256.368 103.839 250.405 100.575 247.103 95.6046C245.634 93.3941 244.708 90.9183 243.808 88.5195C243.378 87.37 242.932 86.1821 242.436 85.0442C240.979 81.7073 238.445 79.3008 234.901 77.8938L233.486 78.8049L232.983 78.2167C247.084 66.3838 259.678 52.6788 271.86 39.4236C273.759 37.3592 275.655 35.2986 277.554 33.2419C282.828 27.5369 288.141 21.7243 293.354 15.9578C294.326 14.8814 295.291 13.7973 296.256 12.7132C297.786 10.9909 299.366 9.21101 300.962 7.49259C301.315 7.11201 301.981 6.52382 302.753 5.83953C304.076 4.67086 306.071 2.90631 306.959 1.67997C293.6 9.8953 280.96 19.7329 268.723 29.2553C265.909 31.4466 263.103 33.6263 260.3 35.783C253.165 41.2688 245.996 46.8893 238.987 52.4904C235.589 55.2045 232.125 57.9994 228.692 60.7942C228.162 61.2247 227.558 61.8014 226.92 62.4126C224.879 64.3617 222.341 66.7875 219.735 66.8375C216.906 66.8913 215.099 64.4617 213.519 62.3165L213.28 61.9936C210.151 57.7687 205.588 54.3895 200.456 52.4251C205.011 55.6351 208.517 60.4789 211.201 64.1772L212.069 65.3766L200.644 60.0138C204.112 66.0648 204.731 73.5689 202.259 80.0235C205.246 79.9889 208.098 82.1033 208.863 84.9673C209.601 87.7352 208.379 90.9683 205.822 93.0096C203.992 94.4705 201.494 95.3739 198.78 95.5815C202.032 96.6156 205.876 96.1466 208.648 94.2629C211.896 92.0562 213.596 87.962 212.777 84.3061L212.442 82.8145L213.488 83.9909C220.073 91.3989 226.878 99.0606 235.135 105.123C237.838 107.107 240.733 108.948 243.539 110.728L243.097 111.362C240.264 109.563 237.354 107.718 234.632 105.715C226.689 99.8794 220.1 92.6098 213.769 85.4901C214.022 89.05 212.235 92.7636 209.129 94.8703C205.63 97.2461 200.548 97.5344 196.765 95.57L195.289 94.8011L196.98 94.8626C200.187 94.9779 203.212 94.0937 205.292 92.433C207.622 90.5723 208.74 87.643 208.075 85.1403C207.364 82.4685 204.442 80.4848 201.713 80.8039L201.04 80.8808L201.282 80.2926C204.081 73.5381 203.312 65.4958 199.283 59.2987L198.553 58.1762L209.659 63.3891C206.584 59.1796 202.512 53.9782 197.242 51.3833L193.947 49.761L197.542 50.6874C204.115 52.3828 210.097 56.3463 213.961 61.5592L214.199 61.8821C215.648 63.8504 217.29 66.0763 219.654 66.0763C219.677 66.0763 219.7 66.0763 219.727 66.0763C221.999 66.034 224.406 63.7313 226.343 61.8821C226.993 61.2594 227.608 60.675 228.162 60.2214C231.595 57.4266 235.062 54.6317 238.461 51.9138C245.473 46.3088 252.646 40.6884 259.785 35.1987C262.588 33.042 265.394 30.8623 268.204 28.671C280.791 18.8795 293.8 8.75353 307.601 0.38059L308.231 0V0.695822C308.231 1.93754 306.006 4.00579 303.322 6.38158C302.569 7.0505 301.915 7.6233 301.585 7.98082C299.997 9.69539 298.417 11.4715 296.891 13.1899C295.926 14.2778 294.961 15.3619 293.984 16.4422C288.771 22.2087 283.455 28.029 278.18 33.734C276.281 35.7868 274.386 37.8512 272.491 39.9118C260.812 52.6173 248.756 65.738 235.343 77.2479C239.034 78.7433 241.675 81.2729 243.205 84.7674C243.708 85.9246 244.158 87.1201 244.592 88.2773C245.477 90.6377 246.388 93.075 247.81 95.2124C250.974 99.9756 256.683 103.097 262.711 103.366C268.75 103.639 274.74 101.025 278.38 96.5656L280.083 94.4782L279.084 96.927C277.661 100.41 276.193 104.012 273.828 107.141C271.161 110.667 267.662 113.008 263.975 113.734C263.061 113.915 262.111 114.004 261.119 114.004L261.108 114Z" fill="url(#paint19_linear_814_1135)"/>
<path d="M273.814 169.355C274.471 168.801 275.375 168.255 276.182 168.594C276.797 168.851 277.059 169.516 277.239 170.12C278.562 174.579 278.473 179.388 276.993 183.806C274.456 182.756 269.239 180.05 268.613 177.236C268.028 174.598 271.861 171 273.81 169.355H273.814Z" fill="url(#paint20_linear_814_1135)"/>
<path d="M277.248 184.322L276.829 184.149C276.029 183.819 268.998 180.82 268.217 177.31C267.641 174.708 270.793 171.394 273.542 169.076C274.595 168.184 275.541 167.911 276.352 168.253C277.113 168.572 277.428 169.326 277.632 170.021C278.966 174.527 278.878 179.463 277.382 183.919L277.248 184.322ZM274.088 169.633C270.478 172.682 268.629 175.423 269.013 177.16C269.551 179.586 273.938 182.066 276.74 183.284C278.063 179.071 278.101 174.45 276.848 170.221C276.694 169.695 276.471 169.133 276.014 168.941C275.406 168.687 274.63 169.179 274.088 169.637V169.633Z" fill="url(#paint21_linear_814_1135)"/>
<path d="M106.111 56.6428C112.005 52.883 116.495 47.5164 120.308 41.9036C124.122 36.2909 127.355 30.3476 131.322 24.8271C130.577 25.8651 129.127 26.7762 128.155 27.6489C127.101 28.5946 126.052 29.5403 125.01 30.4937C122.896 32.4197 120.793 34.3572 118.705 36.3101C116.618 38.2631 114.546 40.2275 112.489 42.2035C111.739 42.9262 110.467 43.7566 109.994 44.6562C109.464 45.6672 109.49 47.2588 109.21 48.3659C108.487 51.2146 107.449 53.994 106.115 56.6428H106.111Z" fill="url(#paint22_linear_814_1135)"/>
<path d="M186.274 76.9607C183.075 72.655 181.841 67.1154 182.933 61.987C172.269 61.5757 161.608 64.9587 152.178 67.9496L149.487 68.803L151.809 67.2845C160.747 61.4488 171.65 58.5732 182.56 59.1768L182.552 55.5055C168.609 56.0052 155.873 60.999 146.646 69.5872L144.443 71.6401L146.008 69.1336C149.418 63.6708 155.142 59.1576 162.123 56.432C168.128 54.0869 175.052 52.9913 182.698 53.1797L182.798 49.6352C174.879 50.2388 164.899 51.615 156.93 56.6742C154.946 57.9351 153.085 59.4267 151.283 60.8683C149.364 62.4061 147.381 63.9938 145.228 65.3239C140.184 68.4416 134.079 70.1562 128.017 70.1639C127.894 70.2331 127.767 70.2254 127.663 70.1985L127.352 70.4638L127.063 69.668L127.263 69.4681L127.24 69.4066H127.348C127.375 69.395 127.402 69.3835 127.428 69.3758C130.423 66.8578 133.764 64.7357 137.37 63.0519C129.577 61.9447 121.228 63.7323 114.796 67.9419L114.058 68.4224L114.154 67.592C114.458 65.0087 115.811 62.3561 118.068 59.9188C119.774 58.0773 121.8 56.5242 123.822 55.0557C120.739 55.3133 117.425 56.0091 113.739 57.1585C112.105 57.6698 110.348 58.2849 108.203 59.0961C107.888 59.2153 107.534 59.3306 107.173 59.4459C105.996 59.8265 104.662 60.2609 104.17 61.0682C103.582 62.037 103.228 63.3056 102.886 64.532C102.671 65.3008 102.448 66.0928 102.175 66.7924C101.425 68.6954 100.587 70.5945 99.6916 72.4359C97.9002 76.1226 95.8012 79.7286 93.4523 83.1577C88.7507 90.0122 83.0726 96.1592 76.5642 101.43C75.7876 102.06 74.9572 102.587 74.1576 103.094C73.4849 103.521 72.789 103.963 72.1317 104.463L70.4325 105.755L71.5243 103.982C74.0615 99.8575 77.1985 96.0208 80.2317 92.3111C83.3648 88.4821 86.6017 84.5225 89.162 80.2591C89.9309 78.9789 90.5268 78.0755 91.1034 77.2029C91.5763 76.4878 92.0299 75.7997 92.545 74.9539C92.8718 74.4196 93.1986 73.9121 93.5292 73.397C94.2096 72.3398 94.917 71.248 95.6628 69.8256C97.2005 66.8962 98.2538 63.7054 99.2764 60.6184C99.78 59.0922 100.303 57.5161 100.876 55.986C103.248 49.666 105.608 43.3459 107.968 37.022C112.116 25.9157 116.391 14.4635 120.674 3.16113C115.719 10.1655 111.344 17.5312 107.1 24.6778C102.321 32.7278 97.3812 41.0508 91.6147 48.8433C89.4542 51.7611 87.4782 54.8712 85.5676 57.8736C83.7569 60.7222 81.8809 63.667 79.8511 66.458C76.2182 71.4479 71.9856 76.0803 67.2763 80.2245L64.5237 82.6426L66.6573 79.7363C67.5954 78.46 68.6372 77.2029 69.6482 75.9881C72.2624 72.8357 74.9688 69.5757 76.0106 65.7621C77.7867 59.2652 79.2052 53.172 80.7045 46.725C81.408 43.7111 82.1231 40.6318 82.9073 37.3833C81.3311 40.9816 79.582 44.5568 77.8674 48.0513C77.2831 49.2431 76.7026 50.4271 76.1336 51.6073C74.1576 55.6977 72.9851 57.9774 71.5012 60.8606C69.7943 64.1821 67.6684 68.3148 63.3858 76.9837L61.948 79.8939L62.617 76.7531C65.2426 64.4512 67.6069 51.9418 69.6559 39.5246C60.9754 58.2849 52.8639 77.9448 44.9061 99.5076C45.0868 99.5538 45.2521 99.646 45.3828 99.7806L45.6981 100.111L45.2944 100.35C43.6221 101.334 42.0575 102.233 40.4929 103.133C38.9551 104.017 37.4174 104.905 35.7759 105.87C32.6466 112.89 30.3784 120.275 29.0329 127.817L28.76 129.347L28.2448 127.871C27.4798 125.68 26.5995 123.5 25.623 121.374C25.1271 127.74 23.7201 134.01 21.4327 140.038C22.4245 141.053 23.4856 142.157 24.5466 143.26C25.6653 144.421 26.784 145.582 27.8181 146.643L27.9988 146.827L27.8835 147.054C22.1669 158.337 15.6931 171.127 4.79444 179.985L4.3139 180.373C2.89918 181.511 1.43449 182.687 0.707916 184.237C0.0505366 185.64 -0.0340357 187.339 0.446505 189.592C1.76895 195.789 6.07076 201.398 11.9449 204.596C13.5441 205.469 16.5811 206.741 18.9339 205.484C20.3909 204.708 21.2174 203.12 21.8825 201.84L34.5418 177.517C37.5058 171.823 40.5697 165.934 45.279 161.144C50.565 155.766 57.258 152.828 63.6165 153.017L65.4771 153.078L63.7587 153.74C51.7414 158.368 43.9643 169.644 39.1589 177.724C37.8941 179.85 36.6524 182.053 35.4491 184.179C31.1204 191.848 26.6417 199.772 20.1179 206.119C22.6975 208.879 22.9858 213.196 20.9291 216.283C24.462 214.826 27.2222 211.808 28.1218 208.31L28.3063 207.595L28.8253 208.152C30.8897 210.366 32.0507 213.242 32.0853 216.16C34.8917 213.361 36.8869 209.947 37.8826 206.23L37.9594 205.949L38.2708 205.942C41.231 205.888 44.1719 205.238 46.8398 204.054C43.0301 203.005 40.0392 199.618 39.8316 195.916L39.8163 195.631L40.1046 195.539C41.823 194.989 43.5991 194.42 45.0791 193.432C46.6861 192.36 47.6741 190.906 47.7894 189.446C47.8701 188.431 47.551 187.443 47.2127 186.393C46.8744 185.344 46.5246 184.26 46.5976 183.129C46.7745 180.408 49.2656 178.405 51.6798 176.802C61.5098 170.274 70.0557 166.276 78.5709 164.212C79.0438 164.096 79.5435 163.992 80.0471 163.885C82.6036 163.343 85.2447 162.785 86.3749 160.775C87.8703 158.111 90.0693 155.643 92.9102 153.44C94.0943 152.521 95.3591 151.664 96.5816 150.837C98.2616 149.695 100.003 148.519 101.533 147.177C105.904 143.356 108.664 138.208 111.332 133.226C113.785 128.648 116.326 123.911 120.124 120.132L120.72 120.648C120.293 121.074 119.982 122.116 119.736 122.954C119.609 123.385 119.486 123.788 119.359 124.104C114.692 135.406 109.16 146.535 102.913 157.184C99.7916 162.501 96.4432 167.787 92.9525 172.892C92.4374 173.645 91.9261 174.407 91.4148 175.168C88.5854 179.377 85.6637 183.725 81.8232 187.297C81.2504 187.831 80.643 188.362 80.0241 188.865C76.6065 191.664 72.5276 194.067 67.5454 196.219L66.3882 196.719C71.9202 195.708 77.4983 193.532 83.3571 190.118C91.0842 185.613 101.525 178.07 107.392 167.729C112.543 158.645 115.692 148.573 118.733 138.835C119.913 135.052 121.135 131.143 122.458 127.341C126.071 116.953 132.222 102.322 144.397 92.6955C136.874 95.6941 130.792 101.23 124.895 106.604C119.701 111.337 114.331 116.227 107.93 119.49C104.409 121.286 101.275 122.181 98.3884 122.132C94.6517 122.105 91.3072 120.498 89.6618 117.934L89.0544 116.988L90.1616 117.391C95.9011 119.483 102.171 117.061 106.123 114.093C110.129 111.087 113.093 106.993 115.961 103.037C116.322 102.541 116.68 102.045 117.041 101.553C120.143 97.3164 123.899 92.5648 129.247 89.8084C132.864 87.9439 136.978 87.1212 140.953 86.3216C142.306 86.0487 143.705 85.768 145.059 85.4528C147.011 84.9953 148.768 84.4571 150.325 83.8382C149.856 83.9804 149.399 84.0996 148.964 84.2072C146.615 84.7762 144.174 85.0799 141.818 85.3682C140.261 85.5604 138.654 85.7603 137.093 86.0333C125.668 88.0362 115.419 94.3332 108.972 103.302L107.042 105.985L108.253 102.96C112.682 91.8843 124.472 84.8954 135.421 79.5171C148.484 73.101 164.011 66.6886 180.103 67.8073L181.61 67.9111L180.249 68.5224C167.671 74.1658 159.163 84.4148 151.321 96.7782C155.85 91.4269 161.289 86.7483 167.421 82.9655L167.928 83.5499C155.354 94.9214 147.227 109.484 145.047 124.557C142.856 139.715 146.792 154.908 155.873 166.668C149.864 151.229 149.23 134.195 154.127 118.399C159.01 102.648 170.712 87.5633 186.258 76.953L186.274 76.9607ZM10.98 189.28C9.84588 189.934 8.27355 191.033 6.97417 191.214C7.497 189.965 8.65799 188.623 9.41532 187.462C9.95737 186.628 10.5263 185.809 11.1222 185.005C11.3259 184.729 13.0059 182.933 12.9175 182.718C13.4749 184.06 14.2476 185.321 15.2087 186.451C13.8747 187.485 12.46 188.431 10.9838 189.28H10.98ZM52.0989 132.119C48.07 133.591 44.5486 135.352 41.2233 137.924C41.9114 135.006 42.8725 132.142 44.095 129.382C44.095 129.382 44.8908 128.306 44.9407 128.175C44.9407 128.167 44.9407 128.159 44.9407 128.156C49.5462 122.631 53.8442 118.81 59.6376 114.347C57.8461 120.613 56.1085 125.395 52.7909 131.104C52.9562 130.973 51.9297 132.254 52.095 132.123L52.0989 132.119Z" fill="url(#paint23_linear_814_1135)"/>
<path d="M150.584 200.45C157.662 205.41 163.444 211.91 167.492 219.218C170.986 225.531 175.242 235.019 173.381 242.257C175.553 233.827 177.725 224.969 175.307 216.597C173.162 209.169 167.626 202.995 161.633 197.682C155.64 192.37 149.008 187.626 143.745 181.69C134.78 171.583 132.462 160.116 128.291 148.141C126.53 155.456 126.104 163.399 127.357 170.807C128.733 178.941 132.535 186.891 139.048 192.489C142.565 195.514 146.759 197.771 150.588 200.45H150.584Z" fill="url(#paint24_linear_814_1135)"/>
<path d="M185.051 59.6833C185.835 67.272 188.78 74.7185 193.851 80.7233C191.64 75.2375 191.24 69.1365 192.724 63.4431C195.715 67.4719 197.837 72.0505 198.929 76.8329C199.959 69.9592 198.867 62.9279 196.753 56.2734C195.004 50.7683 192.574 45.4824 190.033 40.258C189.726 39.6275 189.422 38.9932 189.107 38.3627C188.722 37.5977 188.592 37.294 188.076 38.132C187.4 39.2277 187.127 40.8269 186.773 42.0417C185.974 44.7904 185.405 47.5968 185.093 50.43C184.759 53.5055 184.728 56.6079 185.047 59.6872L185.051 59.6833Z" fill="url(#paint25_linear_814_1135)"/>
<path d="M220.018 109.795C222.959 110.549 225.943 111.321 228.549 112.794C233.97 115.858 236.98 121.436 240.17 126.522C245.825 135.537 252.814 143.76 259.78 151.948C252.019 145.659 244.095 139.189 239.136 130.808C237.133 127.425 235.134 123.369 231.094 122.439C228.464 121.836 225.662 122.797 223.002 122.331C218.85 121.605 216.332 117.776 214.394 114.293C212.457 110.81 210.108 106.939 206.01 105.985C206.748 106.158 207.486 106.447 208.193 106.704C211.715 107.873 216.151 108.796 220.018 109.787V109.795Z" fill="url(#paint26_linear_814_1135)"/>
<path d="M253.814 168.622C250.581 165.624 250.32 160.78 247.583 157.382C244.522 153.58 238.252 151.715 233.305 152.076C236.765 153.699 239.94 154.471 242.908 157.055C246.948 160.572 249.739 165.132 253.814 168.622Z" fill="url(#paint27_linear_814_1135)"/>
<path d="M244.456 108.405C244.994 118.001 249.58 126.939 255.543 134.624C264.715 146.283 277.286 155.052 287.193 166.186C292.314 171.387 291.23 175.373 288.739 181.409C286.194 188.206 282.134 195.967 274.807 199.693C272.173 201.1 269.19 201.811 266.215 201.738C265.338 192.246 258.68 183.397 249.38 179.348L249.815 178.487C259.306 182.632 266.111 191.527 267.187 201.203C267.187 201.203 266.545 200.788 266.561 200.788C275.529 196.079 279.82 188.306 284.033 179.644C286.263 174.993 288.254 172.882 284.252 168.342C274.953 156.863 262.87 147.575 254.251 135.45C248.727 127.489 244.11 117.835 244.456 108.409V108.405Z" fill="url(#paint28_linear_814_1135)"/>
<path d="M266.183 200.595C265.949 199.588 265.722 198.588 265.484 197.581L265.461 197.604C263.242 199.626 259.89 200.495 256.872 199.845C253.835 199.188 251.237 197.012 250.222 194.282C251.667 193.341 252.098 191.457 251.698 189.865C251.31 188.266 250.245 186.894 249.18 185.587C243.113 178.117 236.182 171.255 228.532 165.158C230.831 164.762 233.126 164.362 235.425 163.955C233.184 160.868 228.824 159.58 224.814 159.807C220.805 160.033 217.018 161.536 213.328 163.005C209.633 164.474 205.843 165.954 201.829 166.146C196.616 166.396 191.469 164.393 187.482 161.267C183.503 158.15 180.597 153.986 178.421 149.592C172.274 137.187 171.943 122.013 177.156 109.238C168.518 117.4 165.773 129.725 167.08 141.089C168.072 149.719 171.125 157.992 174.592 166C177.914 173.673 182.842 180.354 186.802 187.759C189.474 192.752 192.015 197.812 194.425 202.917C198.369 211.297 201.968 219.878 203.867 228.858C205.735 237.677 205.839 246.857 204.313 255.822H207.454C210.133 247.526 211.482 238.854 209.987 230.361C207.965 218.848 200.957 208.714 195.106 198.396C189.278 188.108 184.372 176.468 186.913 165.1C193.418 168.964 202.056 167.495 209.891 167.495C212.343 167.495 214.804 167.657 217.207 168.103C227.113 169.979 235.11 176.514 242.602 182.807C244.209 184.164 245.866 185.56 246.816 187.378C247.773 189.196 247.873 191.541 246.481 193.102C247.78 196.666 250.752 199.688 254.47 201.198C258.149 202.682 262.473 202.694 266.153 201.206C266.183 201.198 266.218 201.183 266.249 201.175C266.264 201.168 266.291 201.16 266.306 201.152C266.264 200.964 266.218 200.779 266.176 200.591L266.183 200.595ZM186.225 164.677C186.314 164.735 186.402 164.793 186.494 164.846C186.429 164.854 186.348 164.823 186.225 164.677Z" fill="url(#paint29_linear_814_1135)"/>
<defs>
<linearGradient id="paint0_linear_814_1135" x1="66.1412" y1="200.896" x2="75.5336" y2="200.896" gradientUnits="userSpaceOnUse">
<stop offset="0.0288809" stop-color="#6C0DBC"/>
<stop offset="1" stop-color="#B220C7"/>
</linearGradient>
<linearGradient id="paint1_linear_814_1135" x1="62.5012" y1="208.936" x2="168.427" y2="208.936" gradientUnits="userSpaceOnUse">
<stop offset="0.0288809" stop-color="#6C0DBC"/>
<stop offset="1" stop-color="#B220C7"/>
</linearGradient>
<linearGradient id="paint2_linear_814_1135" x1="62.0899" y1="208.107" x2="168.77" y2="208.107" gradientUnits="userSpaceOnUse">
<stop offset="0.0288809" stop-color="#6C0DBC"/>
<stop offset="1" stop-color="#B220C7"/>
</linearGradient>
<linearGradient id="paint3_linear_814_1135" x1="204.36" y1="57.1792" x2="305.572" y2="57.1792" gradientUnits="userSpaceOnUse">
<stop offset="0.0288809" stop-color="#6C0DBC"/>
<stop offset="1" stop-color="#B220C7"/>
</linearGradient>
<linearGradient id="paint4_linear_814_1135" x1="201.488" y1="57.0127" x2="305.831" y2="57.0127" gradientUnits="userSpaceOnUse">
<stop offset="0.0288809" stop-color="#6C0DBC"/>
<stop offset="1" stop-color="#B220C7"/>
</linearGradient>
<linearGradient id="paint5_linear_814_1135" x1="271.542" y1="176.148" x2="280.323" y2="176.148" gradientUnits="userSpaceOnUse">
<stop offset="0.0288809" stop-color="#6C0DBC"/>
<stop offset="1" stop-color="#B220C7"/>
</linearGradient>
<linearGradient id="paint6_linear_814_1135" x1="271.172" y1="176.217" x2="280.689" y2="176.217" gradientUnits="userSpaceOnUse">
<stop offset="0.0288809" stop-color="#6C0DBC"/>
<stop offset="1" stop-color="#B220C7"/>
</linearGradient>
<linearGradient id="paint7_linear_814_1135" x1="109.777" y1="40.75" x2="132.795" y2="40.75" gradientUnits="userSpaceOnUse">
<stop offset="0.0288809" stop-color="#6C0DBC"/>
<stop offset="1" stop-color="#B220C7"/>
</linearGradient>
<linearGradient id="paint8_linear_814_1135" x1="10.8091" y1="109.728" x2="180.75" y2="109.728" gradientUnits="userSpaceOnUse">
<stop offset="0.0288809" stop-color="#6C0DBC"/>
<stop offset="1" stop-color="#B220C7"/>
</linearGradient>
<linearGradient id="paint9_linear_814_1135" x1="131.372" y1="195.194" x2="176.778" y2="195.194" gradientUnits="userSpaceOnUse">
<stop offset="0.0288809" stop-color="#6C0DBC"/>
<stop offset="1" stop-color="#B220C7"/>
</linearGradient>
<linearGradient id="paint10_linear_814_1135" x1="188.024" y1="59.1842" x2="201.26" y2="59.1842" gradientUnits="userSpaceOnUse">
<stop offset="0.0288809" stop-color="#6C0DBC"/>
<stop offset="1" stop-color="#B220C7"/>
</linearGradient>
<linearGradient id="paint11_linear_814_1135" x1="210.919" y1="128.973" x2="260.012" y2="128.973" gradientUnits="userSpaceOnUse">
<stop offset="0.0288809" stop-color="#6C0DBC"/>
<stop offset="1" stop-color="#B220C7"/>
</linearGradient>
<linearGradient id="paint12_linear_814_1135" x1="236.766" y1="160.327" x2="255.491" y2="160.327" gradientUnits="userSpaceOnUse">
<stop offset="0.0288809" stop-color="#6C0DBC"/>
<stop offset="1" stop-color="#B220C7"/>
</linearGradient>
<linearGradient id="paint13_linear_814_1135" x1="249.027" y1="155.078" x2="291.377" y2="155.078" gradientUnits="userSpaceOnUse">
<stop offset="0.0288809" stop-color="#6C0DBC"/>
<stop offset="1" stop-color="#B220C7"/>
</linearGradient>
<linearGradient id="paint14_linear_814_1135" x1="173.674" y1="182.531" x2="264.551" y2="182.531" gradientUnits="userSpaceOnUse">
<stop offset="0.0288809" stop-color="#6C0DBC"/>
<stop offset="1" stop-color="#B220C7"/>
</linearGradient>
<linearGradient id="paint15_linear_814_1135" x1="63.5728" y1="200.904" x2="72.9653" y2="200.904" gradientUnits="userSpaceOnUse">
<stop stop-color="white"/>
<stop offset="1" stop-color="#9D71C3"/>
</linearGradient>
<linearGradient id="paint16_linear_814_1135" x1="59.9329" y1="208.94" x2="165.858" y2="208.94" gradientUnits="userSpaceOnUse">
<stop stop-color="white"/>
<stop offset="1" stop-color="#9D71C3"/>
</linearGradient>
<linearGradient id="paint17_linear_814_1135" x1="59.5216" y1="208.112" x2="166.202" y2="208.112" gradientUnits="userSpaceOnUse">
<stop stop-color="white"/>
<stop offset="1" stop-color="#9D71C3"/>
</linearGradient>
<linearGradient id="paint18_linear_814_1135" x1="201.792" y1="57.1672" x2="303.004" y2="57.1672" gradientUnits="userSpaceOnUse">
<stop stop-color="white"/>
<stop offset="1" stop-color="#9D71C3"/>
</linearGradient>
<linearGradient id="paint19_linear_814_1135" x1="198.922" y1="57.0018" x2="303.264" y2="57.0018" gradientUnits="userSpaceOnUse">
<stop stop-color="white"/>
<stop offset="1" stop-color="#9D71C3"/>
</linearGradient>
<linearGradient id="paint20_linear_814_1135" x1="268.971" y1="176.147" x2="277.753" y2="176.147" gradientUnits="userSpaceOnUse">
<stop stop-color="white"/>
<stop offset="1" stop-color="#9D71C3"/>
</linearGradient>
<linearGradient id="paint21_linear_814_1135" x1="268.602" y1="176.216" x2="278.119" y2="176.216" gradientUnits="userSpaceOnUse">
<stop stop-color="white"/>
<stop offset="1" stop-color="#9D71C3"/>
</linearGradient>
<linearGradient id="paint22_linear_814_1135" x1="107.209" y1="40.735" x2="130.227" y2="40.735" gradientUnits="userSpaceOnUse">
<stop stop-color="white"/>
<stop offset="1" stop-color="#9D71C3"/>
</linearGradient>
<linearGradient id="paint23_linear_814_1135" x1="8.24268" y1="109.722" x2="178.184" y2="109.722" gradientUnits="userSpaceOnUse">
<stop stop-color="white"/>
<stop offset="1" stop-color="#9D71C3"/>
</linearGradient>
<linearGradient id="paint24_linear_814_1135" x1="128.802" y1="195.199" x2="174.208" y2="195.199" gradientUnits="userSpaceOnUse">
<stop stop-color="white"/>
<stop offset="1" stop-color="#9D71C3"/>
</linearGradient>
<linearGradient id="paint25_linear_814_1135" x1="185.455" y1="59.1766" x2="198.691" y2="59.1766" gradientUnits="userSpaceOnUse">
<stop stop-color="white"/>
<stop offset="1" stop-color="#9D71C3"/>
</linearGradient>
<linearGradient id="paint26_linear_814_1135" x1="208.35" y1="128.967" x2="257.443" y2="128.967" gradientUnits="userSpaceOnUse">
<stop stop-color="white"/>
<stop offset="1" stop-color="#9D71C3"/>
</linearGradient>
<linearGradient id="paint27_linear_814_1135" x1="234.197" y1="160.327" x2="252.923" y2="160.327" gradientUnits="userSpaceOnUse">
<stop stop-color="white"/>
<stop offset="1" stop-color="#9D71C3"/>
</linearGradient>
<linearGradient id="paint28_linear_814_1135" x1="246.457" y1="155.074" x2="288.807" y2="155.074" gradientUnits="userSpaceOnUse">
<stop stop-color="white"/>
<stop offset="1" stop-color="#9D71C3"/>
</linearGradient>
<linearGradient id="paint29_linear_814_1135" x1="171.104" y1="182.53" x2="261.98" y2="182.53" gradientUnits="userSpaceOnUse">
<stop stop-color="white"/>
<stop offset="1" stop-color="#9D71C3"/>
</linearGradient>
</defs>
</svg>
