<svg width="871" height="612" viewBox="0 0 871 612" fill="none" xmlns="http://www.w3.org/2000/svg">
<path d="M410.534 277.581C407.406 282.969 404 288.217 401.221 293.784C395.175 305.912 386.958 315.823 375.404 323.308C370.145 326.718 366.46 332.444 361.669 336.688C359.069 338.985 355.862 341.311 352.595 342.007C334.726 345.814 318.939 353.985 304.088 364.195C298.002 368.38 297.445 370.477 299.277 377.654C300.831 383.758 299.277 387.376 293.67 390.428C291.797 391.442 289.775 392.208 287.474 393.241C288.64 400.299 293.709 403.232 299.905 406.145C295.672 407.298 291.359 408.252 287.235 409.713C285.542 410.31 283.859 411.741 282.843 413.252C279.765 417.785 277.006 422.527 273.619 428.014C271.817 422.527 270.522 418.59 268.858 413.54C264.775 420.598 260.601 425.45 252.723 427.11C256.298 422.109 257.952 417.517 255.173 412.596C254.446 411.304 252.504 409.743 251.249 409.843C243.489 410.509 237.922 406.483 232.682 401.761C226.856 396.512 223.15 390.011 221.457 382.297C220.282 376.929 221.268 372.247 225.641 368.897C242.852 355.685 253.37 337.563 263.171 318.815C264.934 315.455 265.093 312.91 261.926 310.783C255.521 306.469 255.263 301.329 257.723 294.271C260.392 286.607 261.179 278.277 262.882 269.737C264.346 272.879 265.761 275.901 267.603 279.857C268.211 277.789 268.55 276.626 268.898 275.463C270.611 269.757 272.514 264.111 273.988 258.345C275.92 250.83 279.924 245.243 287.375 242.44C291.08 241.048 292.673 238.116 294.148 234.527C306.797 203.611 319.666 172.785 332.505 141.949C333.381 139.841 334.477 137.824 336.29 136.004C332.784 155.25 329.268 174.485 325.762 193.73C326.011 193.85 326.25 193.969 326.499 194.088C336.858 173.044 347.216 152.009 357.575 130.964L358.322 131.173C353.342 151.432 348.362 171.692 343.401 191.871C370.733 155.786 392.964 116.013 417.835 78C418.213 78.2088 418.582 78.4175 418.96 78.6163C414.279 91.1019 409.568 103.588 404.936 116.093C396.829 137.963 388.801 159.852 380.673 181.712C374.876 197.279 365.035 210.421 355.125 223.493C350.643 229.398 345.862 235.084 341.22 240.869L342.256 241.933C346.439 238.205 350.872 234.716 354.776 230.71C369.039 216.037 380.344 199.486 386.45 179.714C387.038 177.805 388.382 175.688 389.996 174.624C395.803 170.807 414.897 166.204 423.443 166.393C416.948 172.119 409.548 176.314 406.859 185.539C419.379 179.356 431.72 176.602 445.375 179.535C439.897 182.805 434.767 185.867 429.638 188.939C437.706 189.814 444.957 187.935 451.451 184.038C456.83 180.817 461.87 176.96 466.78 173.054C481.113 161.661 498.006 158.689 515.785 157.407V165.31C497.587 165.678 480.246 168.252 466.133 180.947C481.312 172.378 497.368 167.049 515.366 167.029V175.091C502.059 174.803 488.882 176.423 476.681 182.776C489.639 179.793 502.518 176.254 516.512 177.457C514.52 186.662 516.651 194.883 522 202.409C470.694 240.422 452.128 288.794 474.4 350.009C452.487 328.994 435.704 273.714 479.37 221.346C476.402 224.109 473.304 226.734 470.505 229.656C467.417 232.887 464.479 236.277 461.73 239.796C459.16 243.086 456.939 246.645 454.13 249.747C467.129 226.445 480.824 203.721 505.356 190.052C486.193 183.611 416.66 213.383 403.552 233.424C404.08 233.424 404.618 233.593 404.827 233.404C417.775 221.743 433.224 216.057 450.355 214.367C459.858 213.433 469.011 211.574 476.551 203.134C474.23 208.522 471.312 211.654 465.077 213.771C457.736 216.266 450.156 218.224 442.556 219.775C430.923 222.141 421.719 227.996 414.648 237.38C410.952 242.281 407.317 247.212 403.572 252.063C395.295 262.779 385.195 270.225 369.488 269.549C374.019 273.167 378.073 273.634 382.316 273.127C390.842 272.093 398.113 267.998 404.598 262.779C414.14 255.085 423.214 246.814 432.596 238.921C440.246 232.489 448.582 227.181 459.419 224.308C455.475 227.658 452.168 230.233 449.14 233.096C433.971 247.401 425.644 265.711 419.03 284.967C413.652 300.603 408.92 316.479 403.034 331.917C389.767 366.69 362.585 385.498 328.232 395.806C335.971 399.484 344.328 398.6 352.495 396.651C378.601 390.428 397.366 375.736 406.381 349.731C408.432 343.826 411.799 338.368 415.305 332.981C411.241 352.435 414.09 370.258 426.7 385.557C432.646 392.774 439.927 399.017 447.168 405.021C459.678 415.399 472.906 425.012 481.481 439.208C485.286 445.5 488.434 452.2 492.229 459.367C482.736 459.457 475.605 458.403 468.772 452.309C457.806 442.528 445.315 434.476 433.712 425.38C420.763 415.24 409.707 403.53 404.837 387.227C404.418 385.836 404.06 384.434 403.203 383.072C401.251 388.937 402.157 394.772 403.661 400.558C407.795 416.483 418.184 428.173 430.076 438.73C436.869 444.764 443.931 450.48 451.61 456.962C449.479 457.161 448.144 457.379 446.8 457.399C428.572 457.737 410.335 458.155 392.107 458.214C389.886 458.214 387.655 456.286 385.235 455.162C383.751 461.713 377.665 458.294 371.699 460.262C372.844 437.995 373.94 416.801 375.035 395.607C374.627 395.448 374.229 395.289 373.82 395.12C372.625 398.749 370.603 402.337 370.414 406.015C370.065 413.053 366.868 418.133 361.948 422.726C350.702 433.233 342.186 447.568 339.348 460.898C344.188 453.582 348.252 446.802 352.963 440.51C357.685 434.217 363.063 428.412 369.258 422.905C369.258 432.537 370.085 442.279 368.9 451.773C368.332 456.326 364.527 460.58 358.332 461.296C345.015 462.837 331.778 464.984 318.072 466.942C317.843 466.167 317.515 465.004 316.997 463.244C314.656 465.223 312.485 467.062 310.204 469C308.082 459.039 323.551 424.207 340.214 400.767C334.228 399.325 328.102 397.844 321.967 396.373C321.997 395.975 322.017 395.568 322.047 395.17C325.333 393.738 328.64 392.357 331.897 390.876C341.977 386.283 351.29 380.478 358.043 371.551C379.806 342.742 397.685 311.687 411.61 278.386C411.271 278.108 410.932 277.829 410.584 277.561L410.534 277.581ZM260.093 397.725C260.781 398.102 261.458 398.49 262.145 398.868C267.354 390.249 272.753 381.75 277.733 373.002C288.022 354.96 298.58 337.205 317.335 326.231C306.259 327.99 297.205 333.696 291.568 342.822C280.482 360.755 270.522 379.374 260.093 397.715V397.725ZM316.03 264.161C304.596 273.644 291.548 281.776 289.058 297.432C307.564 294.192 312.544 279.708 316.03 264.161ZM234.206 383.49C234.525 383.798 234.844 384.106 235.163 384.404C238.718 382.197 242.284 379.99 246.099 377.624C244.844 375.626 243.838 374.036 242.483 371.889C239.446 376.143 236.826 379.811 234.206 383.49Z" fill="white"/>
<path d="M524.346 135.163C527.016 140.85 529.686 146.238 532.068 151.756C533.269 154.534 534.797 156.073 537.964 156.906C548.812 159.744 557.784 165.58 564.633 174.67C571.154 183.343 574.101 183.055 582.577 176.059C623.976 141.852 665.691 108.022 710.583 78.3695C711.675 77.645 712.856 77.0397 715 77C713.918 78.7267 713.084 80.6916 711.715 82.1604C688.688 106.99 665.801 131.958 642.427 156.46C628.968 170.561 614.706 183.889 600.81 197.574C600.364 198.02 599.976 198.527 599.103 199.549C606.954 202.843 611.093 209.155 613.068 216.637C619.986 242.826 651.3 249.515 668.431 228.516C667.557 238.43 657.89 252.512 649.037 256.303C636.948 261.483 626.298 256.005 613.931 250.388C615.142 256.829 615.47 262.237 617.207 267.149C623.043 283.613 634.328 296.335 646.685 308.214C658.476 319.547 670.297 330.86 682.018 342.272C687.011 347.135 688.162 353.099 685.899 359.619C682.425 369.642 678.564 379.467 671.18 387.435C665.076 394.025 657.622 397.816 648.62 398.491C644.044 398.838 639.459 399.612 634.893 399.453C627.876 399.205 622.427 395.543 618.199 390.065C616.274 387.564 615.192 385.193 616.204 381.521C616.889 379.05 615.688 374.842 613.792 373.066C600.999 361.068 587.828 349.338 569.903 345.607C564.623 344.505 559.055 344.098 553.675 344.396C542.916 344.991 532.257 345.547 521.508 341.3C520.237 350.45 520.287 359.222 523.711 367.31C528.515 378.653 533.924 389.787 539.76 400.644C546.787 413.704 554.896 426.198 558.082 441.004C560.017 449.995 560.385 458.936 558.469 467.927C550.569 468.215 549.963 468.007 549.626 460.385C548.474 434.434 538.003 411.53 526.52 388.994C521.279 378.712 515.523 368.689 509.657 358.756C499.761 341.995 491.97 324.37 489.062 305.078C485.975 284.645 489.171 265.532 504.585 250.11C505.131 249.564 505.786 249.128 505.885 249.048C504.168 257.345 501.528 265.879 500.784 274.582C499.106 294.221 503.91 312.313 516.962 327.545C527.552 339.911 541.447 343.275 556.802 337.926C564.097 335.385 571.352 332.577 578.826 330.721C587.093 328.667 595.53 332.2 599.242 338.442C596.314 339.037 593.466 339.603 589.902 340.327C592.83 342.977 595.55 345.18 597.972 347.681C605.783 355.739 613.594 363.807 621.177 372.083C624.75 375.983 627.281 380.4 623.857 385.937C623.44 386.612 624.194 388.408 624.879 389.321C628.581 394.283 635.846 395.891 641.881 393.38C645.017 392.08 646.099 390.462 644.571 386.929C640.402 377.313 633.792 370.019 624.829 364.75C623.45 363.936 622.05 363.162 620.452 362.249C628.72 359.828 642.506 375.626 649.92 396.377C654.883 391.663 660.332 387.971 663.756 382.9C669.552 374.336 674.148 364.948 679.071 355.808C681.224 351.809 679.219 348.346 676.569 345.448C668.867 337.043 661.334 328.439 653.156 320.519C638.437 306.269 625.663 290.629 616.035 272.498C614.259 269.144 611.787 265.959 610.884 262.386C608.79 254.07 602.875 249.564 596.612 244.503C586.885 236.644 578.21 227.484 569.129 218.84C567.61 217.402 566.241 215.804 564.593 214.057C560.524 229.558 546.291 235.979 535.065 227.315C544.544 227.296 552.921 225.658 554.856 214.95C555.73 210.157 551.561 206.624 543.78 204.759C547.948 192.662 547.085 180.961 539.254 168.785C545.159 171.445 549.685 173.479 554.211 175.523C549.636 167.654 543.899 161.253 534.748 157.273C539.73 171.822 543.7 185.864 540.594 200.918C537.696 194.071 534.847 187.333 531.999 180.594L530.43 181.14C528.932 190.121 530.142 198.834 534.142 207.934C516.555 192.612 510.481 148.203 524.366 135.183L524.346 135.163ZM593.267 214.98C593.853 214.663 594.438 214.355 595.024 214.037C596.493 217.054 597.892 220.111 599.44 223.088C605.743 235.185 614.805 244.156 628.432 247.381C635.608 249.078 642.883 249.267 649.523 245.069C647.032 244.692 644.561 244.732 642.099 244.682C627.886 244.364 617.514 238.222 611.817 224.844C610.209 221.063 608.78 217.054 606.368 213.819C603.788 210.346 600.294 207.468 596.84 204.798C596.056 204.183 593.088 204.967 592.324 205.989C589.297 210.068 586.736 214.504 583.858 219.029C589.555 229.985 597.624 239.006 608.363 245.684C603.282 235.334 598.279 225.172 593.277 215L593.267 214.98Z" fill="white"/>
<path d="M427.764 311.149C429.572 316.609 431.676 321.979 433.146 327.528C439.302 350.699 452.616 368.758 471.6 383.029C476.863 386.987 481.609 391.661 486.494 396.126C503.393 411.54 508.417 430.445 502.797 452.422C502.31 454.342 501.814 456.251 501.288 458.16C501.119 458.767 500.851 459.354 499.729 460C499.461 457.593 499.391 455.147 498.905 452.78C494.049 429.182 481.499 410.615 462.079 396.593C459.14 394.465 456.082 392.476 452.964 390.607C434.417 379.469 425.481 362.404 424.15 341.45C423.515 331.376 425.064 321.153 425.63 311C426.345 311.05 427.05 311.099 427.764 311.149Z" fill="white"/>
<path d="M638 318.99C624.716 309.918 612.504 299.869 604.114 285.987C602.834 283.861 601.553 281.736 600.242 279.62C597.085 274.53 592.677 271.716 586.571 272.664C576.344 274.261 569.931 269.251 565.344 260.778C562.038 254.67 558.602 248.653 552 245C557.093 246.347 562.177 247.695 567.27 249.022C571.092 250.02 574.905 251.048 578.747 251.976C587.852 254.151 594.682 259.461 600.153 266.985C612.305 283.712 624.656 300.288 636.908 316.944C637.365 317.563 637.633 318.311 637.99 319L638 318.99Z" fill="white"/>
<path d="M432 116C419.995 134.71 411.225 155.757 391 168C393.042 161.06 394.975 154.367 397.017 147.713C397.288 146.825 398.009 145.987 398.719 145.347C409.172 135.933 419.655 126.558 430.138 117.193C430.678 116.71 431.369 116.394 431.99 116.01L432 116Z" fill="white"/>
<path d="M665.876 371C663.941 370.148 662.532 369.662 661.262 368.932C648.372 361.623 647.24 356.402 660.061 345.494C663.157 342.859 665.509 343.761 666.601 347.796C668.665 355.388 668.466 362.971 665.866 371H665.876Z" fill="white"/>
<path d="M628 346C617.084 336.871 610.013 322.847 593 320.205C602.126 316.441 617.202 321.906 621.067 330.915C623.25 336 625.679 340.975 628 345.99V346Z" fill="white"/>
</svg>
