<svg width="73" height="61" viewBox="0 0 73 61" fill="none" xmlns="http://www.w3.org/2000/svg">
<path d="M17.2245 47.7611C16.3726 47.7635 15.5771 47.5833 14.8057 47.1687L15.2298 47.272L16.8064 47.6578L17.2245 47.7611Z" fill="#FEC049"/>
<path d="M40.1486 60.3819H39.8627C39.2991 58.5278 37.9377 56.872 36.3972 55.5346C34.4193 53.8163 32.0954 52.4609 30.15 50.7113C28.2022 48.9606 26.6028 46.6462 26.6653 44.1337C25.7942 46.2149 26.3709 48.6265 27.6086 50.5419C28.8463 52.4573 30.6727 53.9713 32.4787 55.4469C34.2848 56.9225 36.1256 58.4233 37.3957 60.3194C37.409 60.3398 37.4222 60.3615 37.4354 60.3819H28.7321C26.9177 59.1394 25.406 57.6386 24.1287 55.8134C24.0542 55.7064 23.9857 55.5935 23.9305 55.4769C23.8487 55.3015 23.8499 55.2306 23.8355 55.114C23.4883 56.741 23.606 58.6636 24.0038 60.3819H23.3813C22.7781 59.3858 22.4212 58.2514 22.253 57.1135C22.0091 55.4661 22.1268 53.7935 22.2434 52.134C22.3251 50.9733 22.408 49.8137 22.4897 48.6529C22.5378 47.9981 22.5834 47.3408 22.5017 46.6907C22.0487 47.1834 21.7459 47.7926 21.6354 48.4306C21.5573 48.8849 21.5729 49.3547 21.4155 49.7921C21.186 50.4397 20.6188 50.9228 20.1129 51.4167C18.1591 53.332 16.9623 55.9431 16.6222 58.5615C17.7157 55.8927 19.3847 53.427 21.5044 51.3542C21.4972 52.2806 21.4876 53.2047 21.4792 54.1299C21.4756 54.5132 21.5308 54.9314 21.4924 55.3123C21.4575 55.6463 21.1836 55.8927 20.9769 56.1606C19.9687 57.4728 19.0675 58.8715 18.4583 60.3843H14.088C14.0856 60.3098 14.082 60.2329 14.0808 60.1596C14.0616 59.572 14.0688 58.9796 14.0868 58.3896C14.094 58.1469 13.9919 56.9693 14.2394 56.8528C13.6747 57.1147 13.1916 57.5305 12.8672 58.0327C12.9153 56.2724 13.9174 54.6802 14.6672 53.0629C15.1082 52.1124 15.4687 51.1307 15.9541 50.197C16.4372 49.2658 17.0596 48.3742 17.926 47.7229C17.6893 47.7481 17.4562 47.7625 17.2291 47.765C21.4335 47.5511 25.1525 45.1623 26.6797 41.6704C27.1724 40.5396 27.4512 39.3008 28.2491 38.3323C27.6194 40.7091 28.0892 43.319 29.5144 45.3797C31.1978 47.8118 34.0144 49.3499 36.1268 51.4767C38.5289 53.8944 39.9612 57.1075 40.1474 60.3855L40.1486 60.3819Z" fill="#FEC049"/>
<path d="M36.1978 51.4136C35.3687 50.5797 34.4206 49.8251 33.5038 49.0957C32.0835 47.9674 30.6151 46.8006 29.5949 45.3286C28.1902 43.3015 27.7216 40.6904 28.3428 38.3497L28.4522 37.9387L28.1734 38.2752C27.599 38.9697 27.2878 39.812 26.9862 40.6279C26.8624 40.9596 26.7363 41.3044 26.5909 41.6325C25.0804 45.0919 21.4011 47.4615 17.2195 47.6718V47.6742C17.0777 47.6742 16.9407 47.6706 16.8049 47.6586C16.2438 47.6201 15.7259 47.4928 15.2284 47.2729C15.1419 47.2368 15.0602 47.196 14.9749 47.1527H14.9725C14.9725 47.1527 14.9604 47.1491 14.9556 47.1431C14.9208 47.1275 14.8884 47.1106 14.8547 47.0914L14.8054 47.1695L14.7574 47.2464C15.5072 47.649 16.3171 47.8496 17.2147 47.8496H17.2399C17.3697 47.8496 17.5031 47.8436 17.6376 47.8364C16.9671 48.3976 16.3868 49.1594 15.8677 50.1567C15.5733 50.7263 15.3197 51.3211 15.0758 51.8979C14.9172 52.268 14.7526 52.6525 14.5807 53.025C14.4293 53.3518 14.2635 53.6835 14.1049 54.0043C13.4668 55.284 12.8108 56.607 12.7723 58.0297L12.7627 58.3662L12.9501 58.0778C13.2133 57.6716 13.5882 57.3196 14.0232 57.0672C13.9739 57.2979 13.9715 57.6608 13.9883 58.1499C13.9919 58.2544 13.9944 58.3385 13.9919 58.3866C13.9715 59.0631 13.9691 59.6255 13.9859 60.1626C13.9883 60.2371 13.9919 60.3116 13.9932 60.3837H14.1842C14.1818 60.3092 14.1782 60.2323 14.177 60.1566C14.1602 59.6255 14.1638 59.0643 14.1842 58.3926C14.1842 58.3433 14.1818 58.2532 14.1782 58.1439C14.1518 57.3845 14.1854 56.9759 14.2827 56.9314L14.2383 56.8509L14.1962 56.7728C13.7228 56.9927 13.301 57.3208 12.9802 57.7137C13.0991 56.446 13.6964 55.2432 14.2767 54.0788C14.4353 53.7556 14.6012 53.4239 14.7538 53.0959C14.928 52.7222 15.0914 52.3365 15.25 51.964C15.4928 51.3908 15.7451 50.7972 16.0383 50.236C16.6019 49.1498 17.2387 48.3495 17.9861 47.7908H17.9885C21.925 47.3462 25.3208 45.0126 26.7675 41.7022C26.9129 41.3705 27.0427 41.0221 27.1664 40.688C27.4092 40.0295 27.6615 39.3518 28.052 38.7582C27.5858 41.0269 28.0905 43.4878 29.4339 45.4272C30.4673 46.9208 31.9465 48.096 33.3788 49.2327C34.292 49.9597 35.2365 50.7107 36.0572 51.5374C38.4244 53.9226 39.8567 57.1369 40.0478 60.3849H40.2388C40.0478 57.0949 38.5962 53.8325 36.1966 51.4172L36.1978 51.4136ZM36.4633 55.4691C35.5129 54.6448 34.4687 53.8914 33.4581 53.1644C32.3622 52.3737 31.2255 51.5566 30.2161 50.6458C27.289 48.0143 26.7219 45.6531 26.7603 44.1354L26.7735 43.6296L26.5753 44.1006C25.7786 46.0064 26.1343 48.4312 27.5257 50.5869C28.797 52.5552 30.7196 54.1269 32.4151 55.5135L32.4451 55.5388C34.2211 56.9903 36.0572 58.4911 37.3117 60.3657C37.3153 60.3717 37.3189 60.3777 37.3237 60.3825H37.5484C37.5256 60.3464 37.5003 60.308 37.4763 60.2719C36.205 58.3758 34.3581 56.8653 32.5713 55.4054L32.5425 55.3802C30.8566 54.0031 28.9448 52.4422 27.6892 50.4956C26.4419 48.567 26.0429 46.4233 26.5777 44.6533C26.6774 46.1974 27.42 48.382 30.0816 50.7744C31.0993 51.6912 32.2397 52.5119 33.3403 53.3038C34.3461 54.0295 35.3867 54.7793 36.33 55.5988C37.6337 56.7308 39.1465 58.3902 39.7606 60.3813H39.9588C39.3424 58.3301 37.7935 56.6274 36.4609 55.4691H36.4633ZM24.2093 55.7647C24.1288 55.6505 24.0663 55.5436 24.0182 55.4402C23.9533 55.3045 23.9461 55.242 23.9365 55.1543L23.8584 54.5522L23.7418 55.0966C23.4138 56.637 23.4763 58.5416 23.9017 60.3813H24.0987C23.707 58.711 23.6181 56.9843 23.8548 55.534C23.9065 55.6385 23.969 55.7454 24.0495 55.8608C25.3015 57.6464 26.7951 59.1412 28.5747 60.3825H28.898C27.0439 59.1256 25.4974 57.6007 24.2105 55.7659L24.2093 55.7647ZM22.348 57.1009C22.104 55.4547 22.2242 53.7688 22.3384 52.1382L22.5847 48.6571C22.6304 48.0095 22.6784 47.3402 22.5967 46.6793L22.5715 46.4774L22.4285 46.6324C21.9623 47.1407 21.6546 47.7571 21.5405 48.4156C21.5117 48.5802 21.4948 48.7472 21.4792 48.9083C21.4492 49.2075 21.4203 49.491 21.3242 49.7614C21.1319 50.3069 20.6765 50.7431 20.2391 51.1649C20.1718 51.2274 20.107 51.2911 20.0421 51.3535C18.1616 53.198 16.8782 55.8199 16.5249 58.5476L16.4312 59.2674L16.71 58.5897C17.7638 56.0182 19.3848 53.597 21.4047 51.577L21.3819 54.1281C21.3795 54.2771 21.3879 54.4321 21.3951 54.5823C21.4071 54.8226 21.4179 55.0725 21.3951 55.2996C21.3699 55.5364 21.21 55.7274 21.0418 55.9293C20.9926 55.987 20.9421 56.0458 20.8988 56.1047C19.7309 57.6248 18.8957 59.0247 18.3538 60.3801H18.5581C19.0952 59.0607 19.9135 57.6921 21.0538 56.2057C21.0983 56.1504 21.1452 56.0927 21.1932 56.0374C21.3711 55.8236 21.5561 55.6037 21.5862 55.3153C21.609 55.0749 21.5982 54.8202 21.5862 54.5727C21.5789 54.4237 21.5705 54.2711 21.5729 54.1257L21.5994 51.124L21.4335 51.2887C19.505 53.1752 17.926 55.4186 16.8362 57.8182C17.3036 55.4006 18.4992 53.1211 20.1815 51.4737C20.2439 51.4112 20.3112 51.3475 20.3761 51.2851C20.8291 50.8501 21.2978 50.3995 21.5044 49.8143C21.6078 49.5235 21.6378 49.2183 21.6667 48.9227C21.6835 48.7641 21.6991 48.5994 21.7279 48.442C21.8229 47.8869 22.0644 47.363 22.4273 46.9148C22.4753 47.4892 22.4333 48.0755 22.3924 48.6451L22.1461 52.1262C22.0295 53.7664 21.9094 55.4595 22.1581 57.1249C22.3396 58.3505 22.7193 59.4524 23.2756 60.3801H23.4919C22.9211 59.4536 22.5318 58.3433 22.348 57.0997V57.1009Z" fill="#FEC049"/>
<path d="M57.4963 25.7835C55.5317 24.7309 53.9323 23.1003 52.9902 21.1862C53.6055 20.4676 54.1186 19.6733 54.5091 18.831C55.6242 18.98 56.4064 19.9281 56.8799 20.8749C57.3533 21.8218 57.6669 22.8696 58.4191 23.6459C59.6784 24.9436 61.8089 25.119 63.6738 24.8847C62.1513 26.0479 59.8058 25.9301 58.1356 24.958C56.4653 23.9859 55.3875 22.3241 54.7182 20.6034C55.6518 22.24 56.0015 24.2322 57.4675 25.4891C58.0683 26.0046 58.8157 26.3519 59.5859 26.6078C60.3621 26.8662 61.2045 27.038 62.012 26.8794C62.9432 26.6968 63.7243 26.0875 64.271 25.3642C64.8177 24.642 65.159 23.8069 65.4954 22.9814C64.6255 24.0472 63.1703 24.6793 61.7296 24.6156C60.2888 24.5519 58.9046 23.7949 58.1488 22.6569C57.6441 21.8975 57.4194 21.0131 57.0589 20.1864C56.6984 19.3609 56.076 18.7781 55.188 18.4369C55.063 18.5174 54.9369 18.5979 54.8119 18.6784C58.6414 15.4641 61.9447 11.7246 65.3008 8.09457C66.5481 6.74636 67.7869 5.39094 69.0174 4.02951C69.6146 3.36742 70.1986 2.69331 70.8054 2.03963C71.0962 1.72721 72.3446 0.769526 72.3446 0.38501C68.3865 2.78584 64.7456 5.76944 61.1083 8.5668C59.4237 9.86214 57.7522 11.1719 56.0952 12.4961C55.2853 13.1438 54.4778 13.795 53.674 14.4487C53.1513 14.8741 52.387 15.833 51.6288 15.8474C50.9787 15.8594 50.5594 15.2442 50.1917 14.7467C49.2905 13.5307 47.917 12.6211 46.3838 12.2257C47.72 12.8842 48.7005 14.1964 49.544 15.3607C48.6632 14.9474 47.7824 14.534 46.9017 14.1207C47.8702 15.6083 48.0516 17.5128 47.3799 19.135C48.0973 19.0509 48.8074 19.57 48.9805 20.2213C49.1547 20.8725 48.8435 21.5863 48.2955 22.0249C47.7476 22.4623 46.9978 22.6437 46.2744 22.6173C47.1372 23.0655 48.2811 23.0006 49.079 22.4587C49.8769 21.9167 50.2878 20.9254 50.0871 20.0278C51.6612 21.799 53.2522 23.5858 55.1928 25.0109C55.8321 25.4807 56.505 25.9073 57.1779 26.3351L57.4939 25.7835H57.4963Z" fill="#FEC049"/>
<path d="M61.3627 27.0282C60.8292 27.0282 60.2404 26.9164 59.5566 26.6893C58.6494 26.3877 57.9453 26.0164 57.4046 25.5526C56.4204 24.709 55.9254 23.5255 55.4459 22.3815C55.4171 22.313 55.3882 22.2445 55.3594 22.1748C55.089 21.7026 54.8463 21.1883 54.6288 20.632L54.8031 20.5599C55.083 21.0513 55.3137 21.5812 55.5324 22.1003C56.239 23.332 57.127 24.2644 58.1856 24.8809C59.6047 25.7064 61.7688 25.984 63.3297 25.0094C61.9166 25.1428 59.6876 25.0839 58.3466 23.7033C57.7843 23.1241 57.461 22.3923 57.1486 21.6846C57.0357 21.4286 56.9179 21.1631 56.7917 20.9107C56.4601 20.2486 55.7355 19.1251 54.5651 18.9281C54.1818 19.7392 53.6892 20.5022 53.0992 21.1967C54.0364 23.0712 55.6118 24.6718 57.5415 25.7052L57.4454 25.859C55.464 24.798 53.8502 23.1505 52.8997 21.222L52.8757 21.1727L52.9117 21.1306C53.5221 20.4181 54.0292 19.6322 54.4173 18.7947L54.4462 18.7322L54.5183 18.7418C55.8196 18.9149 56.6079 20.1285 56.9624 20.8362C57.0909 21.0922 57.2087 21.3589 57.3228 21.6173C57.6293 22.3106 57.9465 23.028 58.486 23.5843C59.8871 25.0275 62.3276 24.9626 63.6578 24.7944L63.9906 24.7523L63.7311 24.9506C62.2807 26.0585 59.9051 26.0921 58.0811 25.0299C57.2712 24.5588 56.5586 23.9088 55.9494 23.0869C56.3363 23.9532 56.7941 24.7908 57.5295 25.4204C58.051 25.8674 58.7335 26.2279 59.6155 26.5211C60.5636 26.8359 61.3182 26.9212 61.9887 26.789C62.8082 26.628 63.5893 26.1029 64.1889 25.3098C64.6263 24.7319 64.9327 24.0758 65.2078 23.4197C64.3066 24.2753 63.0113 24.7583 61.722 24.7006C60.2428 24.6357 58.8405 23.8679 58.0642 22.6987C57.7194 22.1796 57.5007 21.5969 57.2892 21.0321C57.1883 20.7617 57.0837 20.483 56.966 20.215C56.6235 19.4303 56.0275 18.8644 55.1948 18.5327L54.8619 18.7466L54.743 18.6084C58.0582 15.8255 61.0214 12.6028 63.8849 9.48579C64.3307 9.00033 64.7765 8.51488 65.2235 8.03183C66.4635 6.69083 67.7132 5.3234 68.9389 3.96677C69.1672 3.71323 69.3943 3.45849 69.6214 3.20375C69.9807 2.7988 70.3532 2.38064 70.7281 1.9757C70.811 1.88558 70.9684 1.74739 71.1486 1.58758C71.4598 1.31241 71.9285 0.897849 72.1376 0.609461C68.9953 2.54166 66.0225 4.85477 63.1459 7.09337C62.4838 7.60766 61.8241 8.12195 61.1644 8.62903C59.487 9.91837 57.8011 11.2413 56.1525 12.5583C55.3534 13.1964 54.5387 13.8537 53.7312 14.5109C53.6063 14.6131 53.4645 14.7477 53.3143 14.8919C52.8348 15.3497 52.2376 15.9204 51.6248 15.9324C50.9591 15.9457 50.5349 15.3737 50.1624 14.869L50.106 14.7933C49.3694 13.7996 48.2975 13.0053 47.0899 12.5427C48.1605 13.2973 48.986 14.4364 49.6169 15.3064L49.8212 15.5888L47.1344 14.3283C47.9503 15.751 48.0944 17.5162 47.5141 19.0338C48.217 19.0254 48.8875 19.5229 49.0666 20.197C49.2408 20.8483 48.9524 21.6077 48.3516 22.0883C47.9214 22.432 47.3338 22.6435 46.6946 22.6939C47.4588 22.9379 48.3636 22.8273 49.0149 22.3839C49.7791 21.8648 50.178 20.9023 49.9858 20.042L49.9077 19.6911L50.154 19.9675C51.7017 21.7098 53.3035 23.511 55.2453 24.9373C55.8809 25.4036 56.5622 25.8362 57.2207 26.2555L57.1162 26.4045C56.4505 25.9816 55.7656 25.5478 55.1251 25.0767C53.2566 23.7045 51.7077 21.9946 50.2189 20.3207C50.279 21.1583 49.8584 22.0306 49.1278 22.5269C48.3059 23.0857 47.1103 23.1529 46.2199 22.6915L45.8727 22.5113L46.2704 22.5257C47.0238 22.5521 47.7364 22.3455 48.2254 21.9549C48.7734 21.5176 49.0365 20.8278 48.8803 20.2402C48.7133 19.6118 48.026 19.1456 47.3843 19.2201L47.2257 19.2381L47.2834 19.0999C47.9418 17.5114 47.7616 15.62 46.8123 14.1625L46.6405 13.8981L49.2516 15.1238C48.5282 14.1336 47.5705 12.9116 46.3317 12.3L45.5566 11.9179L46.4014 12.1353C47.9466 12.5343 49.3537 13.4655 50.2622 14.6912L50.3186 14.7669C50.6599 15.2295 51.0456 15.7534 51.602 15.7534C51.608 15.7534 51.6128 15.7534 51.6188 15.7534C52.1523 15.7438 52.7195 15.2019 53.1749 14.7669C53.3275 14.6203 53.4717 14.4821 53.6026 14.3764C54.4101 13.7191 55.2248 13.0618 56.0251 12.4225C57.6737 11.1044 59.3608 9.78259 61.0394 8.49205C61.6991 7.98497 62.3588 7.47188 63.0197 6.95759C65.9793 4.6553 69.0398 2.2737 72.2854 0.305453L72.4332 0.215332V0.378752C72.4332 0.670744 71.9105 1.1574 71.2784 1.71495C71.1006 1.87236 70.948 2.00694 70.8699 2.09105C70.4961 2.49359 70.1248 2.91176 69.7656 3.3155C69.5385 3.57144 69.3114 3.82618 69.0818 4.07972C67.8562 5.43635 66.6053 6.80378 65.3653 8.14599C64.9183 8.62904 64.4737 9.11329 64.0267 9.59874C61.281 12.5872 58.4452 15.6729 55.2909 18.3789C56.1585 18.731 56.7797 19.3258 57.139 20.1465C57.258 20.4181 57.3637 20.6993 57.4646 20.972C57.6725 21.5272 57.8876 22.1003 58.2217 22.6038C58.9655 23.7237 60.3089 24.4579 61.7256 24.5204C63.1459 24.5841 64.5542 23.97 65.4109 22.921L65.8111 22.4296L65.5755 23.0052C65.2415 23.8247 64.8954 24.6718 64.3391 25.4072C63.7118 26.2363 62.8887 26.7866 62.0224 26.9573C61.8073 26.9993 61.5838 27.0209 61.3507 27.0209L61.3627 27.0282Z" fill="#FEC049"/>
<path d="M64.3525 40.0454C64.5063 39.9157 64.719 39.7859 64.91 39.8664C65.0542 39.9277 65.1167 40.0827 65.1588 40.2245C65.47 41.2735 65.4496 42.4042 65.1011 43.4436C64.5051 43.1973 63.2782 42.5604 63.1304 41.8983C62.9923 41.2783 63.8947 40.4324 64.3525 40.0454Z" fill="#FEC049"/>
<path d="M65.1602 43.5652L65.0617 43.5244C64.8731 43.4463 63.2196 42.7421 63.0358 41.9166C62.9 41.305 63.6414 40.5251 64.2879 39.9796C64.5354 39.7705 64.7577 39.7056 64.9488 39.7861C65.1278 39.8618 65.2011 40.0385 65.2504 40.2019C65.564 41.2605 65.5435 42.4225 65.1915 43.4703L65.159 43.5652H65.1602ZM64.4176 40.1118C63.5681 40.8279 63.1331 41.4732 63.2244 41.8818C63.3518 42.4525 64.3828 43.0353 65.0413 43.3213C65.3513 42.33 65.3609 41.2437 65.0665 40.2488C65.0305 40.125 64.9776 39.9928 64.8706 39.9472C64.7277 39.8871 64.545 40.0036 64.4176 40.1106V40.1118Z" fill="#FEC049"/>
<path d="M24.915 13.5406C26.3005 12.6562 27.3567 11.3945 28.2531 10.0739C29.1495 8.75453 29.9102 7.35585 30.8438 6.05811C30.6684 6.30203 30.3283 6.51712 30.0988 6.7226C29.8513 6.9449 29.6049 7.1672 29.3586 7.3907C28.8611 7.84371 28.3673 8.29912 27.8758 8.75813C27.3856 9.21715 26.8977 9.67857 26.4135 10.1448C26.2368 10.3142 25.9376 10.5101 25.8271 10.7216C25.7021 10.9595 25.7093 11.3332 25.6432 11.5939C25.4738 12.2632 25.2299 12.9169 24.915 13.5406Z" fill="#FEC049"/>
<path d="M43.7664 18.3178C43.0142 17.3048 42.7234 16.0023 42.9806 14.7971C40.4728 14.7009 37.965 15.4964 35.748 16.1993L35.116 16.4L35.6627 16.0431C37.7644 14.6709 40.3286 13.9944 42.894 14.1362V13.2734C39.6136 13.3912 36.618 14.5651 34.4479 16.5851L33.93 17.0681L34.2977 16.4781C35.0992 15.1936 36.445 14.1326 38.0876 13.4909C39.4995 12.9394 41.1277 12.6822 42.9265 12.7255L42.9493 11.8916C41.0868 12.0333 38.7401 12.3566 36.8655 13.5474C36.3993 13.8442 35.9607 14.195 35.5378 14.5339C35.0872 14.8956 34.6209 15.2693 34.1138 15.5817C32.9279 16.3147 31.4919 16.7184 30.0668 16.7196C30.038 16.7353 30.0079 16.7341 29.9839 16.7281L29.9106 16.7905L29.8433 16.6031L29.8902 16.5562L29.8854 16.5418H29.9106C29.9166 16.5382 29.9238 16.5358 29.9298 16.5346C30.634 15.9422 31.4198 15.4435 32.2682 15.047C30.4357 14.7862 28.4723 15.2068 26.9594 16.1969L26.7864 16.3099L26.8092 16.114C26.8813 15.506 27.1998 14.8824 27.7297 14.3092C28.131 13.8754 28.6068 13.5113 29.0827 13.1653C28.3569 13.2265 27.5783 13.3888 26.7119 13.6603C26.3274 13.7805 25.914 13.9247 25.4094 14.1157C25.3349 14.1434 25.2519 14.171 25.1666 14.1987C24.8903 14.2888 24.5766 14.3897 24.4613 14.5808C24.3231 14.8079 24.2402 15.1071 24.1597 15.3955C24.1092 15.5757 24.0575 15.7632 23.9927 15.9266C23.816 16.3736 23.6189 16.8206 23.4087 17.2544C22.9881 18.1207 22.4942 18.9691 21.9415 19.7753C20.836 21.3867 19.4998 22.8335 17.9702 24.0723C17.7875 24.2201 17.5929 24.3439 17.4042 24.464C17.2456 24.565 17.0822 24.6683 16.9284 24.7861L16.5282 25.0901L16.7842 24.6731C17.3814 23.7022 18.1192 22.801 18.8317 21.9286C19.5683 21.0286 20.3301 20.0974 20.9321 19.094C21.1124 18.7936 21.253 18.5809 21.3888 18.3755C21.4993 18.2072 21.6062 18.045 21.7276 17.8468C21.8045 17.7206 21.8814 17.6016 21.9595 17.4803C22.1193 17.2315 22.2852 16.9756 22.4618 16.6403C22.8235 15.9518 23.071 15.2008 23.3113 14.475C23.4303 14.1157 23.5529 13.7456 23.6874 13.3852C24.245 11.8988 24.8001 10.4124 25.3553 8.92477C26.3298 6.31366 27.3355 3.61964 28.3437 0.96167C27.1781 2.60908 26.1495 4.34061 25.1522 6.02167C24.0287 7.91421 22.8667 9.87164 21.5101 11.7041C21.0018 12.3902 20.5368 13.1208 20.0874 13.8286C19.6608 14.4991 19.221 15.1912 18.7428 15.8473C17.8884 17.0212 16.8935 18.1099 15.7856 19.0844L15.1392 19.654L15.6414 18.9703C15.8613 18.6699 16.1077 18.3743 16.3444 18.0883C16.9596 17.3469 17.5953 16.5803 17.8404 15.6838C18.2585 14.1554 18.5914 12.7231 18.9447 11.2066C19.1093 10.4977 19.2787 9.77311 19.4626 9.00888C19.0925 9.85482 18.6803 10.6959 18.2778 11.5178C18.1408 11.7978 18.0038 12.0766 17.8704 12.3542C17.4054 13.3167 17.1302 13.8514 16.7818 14.5303C16.3804 15.3113 15.8806 16.2835 14.8736 18.3214L14.5347 19.0063L14.6922 18.2673C15.3098 15.3738 15.8649 12.4323 16.348 9.51236C14.3064 13.9235 12.3995 18.5473 10.5274 23.6181C10.5694 23.6289 10.6091 23.6505 10.6391 23.683L10.7136 23.7611L10.6187 23.8164C10.2246 24.0483 9.85686 24.2598 9.49037 24.4713C9.12868 24.6791 8.767 24.8882 8.38128 25.1153C7.64589 26.7663 7.11237 28.5027 6.79515 30.2763L6.73146 30.6355L6.6101 30.2883C6.42985 29.7728 6.22318 29.2609 5.99367 28.761C5.87712 30.2582 5.54667 31.7326 5.00835 33.1493C5.24146 33.3884 5.4914 33.648 5.74013 33.9063C6.00328 34.1791 6.26644 34.4531 6.50916 34.7018L6.55242 34.7451L6.52478 34.7991C5.18138 37.4523 3.65773 40.4599 1.09469 42.5435L0.981736 42.6349C0.648888 42.9028 0.305227 43.1792 0.133396 43.5433C-0.0216122 43.8725 -0.0408392 44.2727 0.0721126 44.8026C0.383331 46.2601 1.39389 47.5783 2.77695 48.3305C3.15305 48.536 3.86801 48.8352 4.42076 48.5396C4.76322 48.3569 4.95788 47.9832 5.11409 47.6828L8.09169 41.9632C8.78863 40.6246 9.50959 39.2391 10.6175 38.112C11.86 36.8467 13.4341 36.157 14.9301 36.2014L15.3675 36.2158L14.9637 36.372C12.1375 37.4607 10.3087 40.1127 9.17915 42.0124C8.88115 42.5123 8.58916 43.0302 8.30678 43.5301C7.28901 45.3337 6.2364 47.1974 4.70194 48.6886C5.30875 49.3375 5.37724 50.3528 4.89299 51.0786C5.72451 50.7361 6.37218 50.0272 6.58486 49.2041L6.62812 49.0359L6.75069 49.1668C7.23614 49.6883 7.50891 50.3636 7.51732 51.0498C8.177 50.3913 8.64684 49.5886 8.88115 48.715L8.89917 48.6489H8.97247C9.66821 48.6345 10.3603 48.4819 10.9876 48.2043C10.0912 47.958 9.38823 47.1613 9.33897 46.2902L9.33536 46.2241L9.40385 46.2024C9.80759 46.0739 10.2258 45.9393 10.573 45.7074C10.9515 45.455 11.1834 45.1138 11.2111 44.7701C11.2303 44.5322 11.1546 44.2991 11.0753 44.0528C10.996 43.8064 10.9131 43.5505 10.9311 43.2849C10.972 42.6457 11.5583 42.1734 12.1267 41.7961C14.4386 40.2617 16.4477 39.3208 18.4508 38.8354C18.5626 38.8089 18.6791 38.7837 18.7981 38.7584C19.3989 38.6311 20.0201 38.5001 20.2857 38.0267C20.6365 37.4006 21.1544 36.8202 21.8225 36.3023C22.1013 36.0861 22.3981 35.8854 22.6853 35.6895C23.0806 35.4216 23.4892 35.144 23.8497 34.8292C24.877 33.9304 25.5271 32.7191 26.1544 31.5488C26.7311 30.4721 27.3283 29.3582 28.2223 28.469L28.3629 28.5904C28.262 28.6913 28.1899 28.9365 28.131 29.1335C28.101 29.2345 28.0721 29.3306 28.0421 29.4039C26.945 32.0619 25.6437 34.679 24.1741 37.1831C23.4399 38.4328 22.6517 39.6765 21.8321 40.8781C21.7108 41.0559 21.5906 41.2338 21.4705 41.4128C20.8048 42.4029 20.1174 43.4255 19.215 44.2654C19.0805 44.3916 18.9375 44.5154 18.7921 44.6343C17.9882 45.2916 17.0293 45.8576 15.8577 46.3635L15.5862 46.4812C16.8863 46.2433 18.1985 45.7326 19.5767 44.9287C21.3936 43.8689 23.8485 42.0953 25.2291 39.6633C26.4415 37.5268 27.1805 35.1584 27.8967 32.8681C28.1743 31.9789 28.4615 31.0585 28.7727 30.1645C29.6222 27.7216 31.069 24.2802 33.9312 22.0176C32.1612 22.7217 30.7313 24.0243 29.3446 25.2884C28.1238 26.401 26.8597 27.551 25.3553 28.3188C24.5274 28.7418 23.7908 28.9509 23.1119 28.9401C22.2335 28.934 21.4464 28.5555 21.0595 27.9535L20.9165 27.7312L21.1773 27.8262C22.5267 28.3176 24.0011 27.7481 24.9311 27.0511C25.8732 26.3434 26.5701 25.3821 27.2454 24.4508C27.3295 24.3343 27.4148 24.2177 27.499 24.1024C28.2283 23.1062 29.1115 21.9887 30.3696 21.341C31.2204 20.9025 32.1877 20.709 33.1225 20.5215C33.4409 20.4579 33.7702 20.3918 34.0886 20.3173C34.5476 20.2103 34.961 20.083 35.3275 19.9376C35.2169 19.9712 35.11 19.9988 35.0067 20.0241C34.4539 20.1587 33.8807 20.2296 33.3256 20.298C32.9603 20.3437 32.5818 20.3906 32.2141 20.4543C29.5273 20.9253 27.1168 22.4057 25.6004 24.5157L25.1462 25.1466L25.431 24.4352C26.4728 21.8301 29.2449 20.1863 31.82 18.9222C34.8925 17.413 38.543 15.9061 42.3281 16.1681L42.6826 16.1921L42.3629 16.3363C39.4046 17.6629 37.4039 20.0733 35.5594 22.9813C36.624 21.7232 37.9037 20.6225 39.3457 19.7333L39.4658 19.8703C36.5087 22.5439 34.5969 25.9685 34.085 29.5132C33.5695 33.0784 34.4948 36.6508 36.6312 39.4157C35.2181 35.7844 35.0691 31.7783 36.2203 28.0641C37.369 24.3607 40.1207 20.8123 43.776 18.3178H43.7664ZM2.54263 44.7317C2.27588 44.8855 1.90698 45.1438 1.60057 45.1859C1.72313 44.8927 1.9971 44.5767 2.17494 44.3027C2.30231 44.1068 2.43689 43.9146 2.57628 43.7259C2.62434 43.661 3.01967 43.2393 2.99804 43.1876C3.12902 43.5024 3.31167 43.8004 3.53637 44.066C3.22275 44.3087 2.8899 44.531 2.54263 44.7317ZM12.212 31.2904C11.2652 31.6365 10.436 32.0498 9.65379 32.6554C9.8148 31.9693 10.0419 31.2964 10.3291 30.6463C10.3291 30.6463 10.5165 30.3928 10.5274 30.3628V30.358C11.6112 29.059 12.6218 28.1602 13.9832 27.11C13.5614 28.5832 13.1541 29.7091 12.373 31.0501C12.4115 31.0188 12.17 31.3205 12.2096 31.2892L12.212 31.2904Z" fill="#FEC049"/>
<path d="M35.3725 47.3583C37.0367 48.5239 38.3969 50.0535 39.3486 51.7718C40.1705 53.257 41.1702 55.4872 40.7341 57.1899C41.2447 55.2072 41.7554 53.1248 41.1871 51.1554C40.6824 49.4095 39.381 47.9567 37.9715 46.7082C36.5621 45.4585 35.0036 44.3434 33.7647 42.9472C31.6559 40.5704 31.1115 37.874 30.1298 35.0574C29.7165 36.7769 29.6155 38.6454 29.9111 40.3877C30.2343 42.3007 31.1283 44.1704 32.6604 45.4862C33.4883 46.1975 34.4736 46.7275 35.3737 47.3583H35.3725Z" fill="#FEC049"/>
<path d="M43.4767 14.2559C43.6618 16.0402 44.3539 17.7922 45.5459 19.2029C45.0256 17.9124 44.9319 16.4776 45.2803 15.139C45.9833 16.0859 46.482 17.1626 46.7391 18.2873C46.9818 16.6711 46.7247 15.0177 46.2272 13.452C45.8163 12.1578 45.2443 10.9142 44.6471 9.68611C44.575 9.53711 44.5041 9.38811 44.4296 9.24031C44.3395 9.06127 44.3082 8.98917 44.1869 9.18624C44.0271 9.44459 43.9634 9.81949 43.8805 10.1055C43.693 10.7519 43.5584 11.4128 43.4851 12.0785C43.4058 12.8019 43.3998 13.5313 43.4743 14.2559H43.4767Z" fill="#FEC049"/>
<path d="M51.7006 26.0407C52.3928 26.2186 53.0945 26.4 53.7073 26.7461C54.9822 27.4658 55.69 28.778 56.441 29.9748C57.7712 32.0944 59.415 34.0278 61.0528 35.954C59.2275 34.4748 57.3638 32.9536 56.1983 30.9829C55.7272 30.1875 55.2562 29.2334 54.3069 29.0147C53.6881 28.8729 53.0296 29.0988 52.4036 28.9895C51.4279 28.8188 50.8343 27.9176 50.3801 27.0993C49.9258 26.281 49.3719 25.3702 48.4082 25.1455C48.5812 25.1864 48.7555 25.2537 48.9213 25.3149C49.7492 25.5901 50.7922 25.8064 51.7018 26.0395L51.7006 26.0407Z" fill="#FEC049"/>
<path d="M59.6504 39.8734C58.8898 39.1681 58.8285 38.029 58.1845 37.2299C57.4647 36.3359 55.9903 35.8973 54.8271 35.9826C55.6406 36.3647 56.3868 36.5462 57.085 37.1542C58.0355 37.9809 58.6915 39.0527 59.6504 39.8747V39.8734Z" fill="#FEC049"/>
<path d="M57.4495 25.7129C57.5769 27.9695 58.6547 30.0711 60.057 31.8784C62.2139 34.6205 65.1699 36.6824 67.4998 39.3007C68.7038 40.524 68.4491 41.4612 67.8639 42.8804C67.2655 44.4785 66.3114 46.3038 64.5883 47.1797C63.9683 47.5114 63.2677 47.6772 62.5672 47.6604C62.3605 45.4278 60.796 43.3466 58.6079 42.3949L58.71 42.193C60.9426 43.1675 62.542 45.2595 62.7955 47.5342C62.7955 47.5342 62.6441 47.4369 62.6489 47.4369C64.7577 46.3302 65.7671 44.5013 66.7572 42.4646C67.2811 41.3699 67.7498 40.8749 66.8089 39.8066C64.622 37.1066 61.7801 34.9221 59.753 32.0718C58.4541 30.1997 57.369 27.9299 57.4495 25.7129Z" fill="#FEC049"/>
<path d="M62.558 47.3922C62.5027 47.1554 62.4486 46.9211 62.3934 46.6832L62.3873 46.6892C61.8658 47.1651 61.0776 47.3693 60.3674 47.2167C59.6537 47.0617 59.0421 46.5498 58.8041 45.9094C59.1442 45.6883 59.2451 45.2449 59.1514 44.8712C59.0601 44.4951 58.8101 44.1718 58.559 43.8654C57.1327 42.1087 55.5021 40.4949 53.7033 39.0614C54.244 38.9677 54.7835 38.8739 55.3243 38.779C54.7967 38.0532 53.7718 37.7504 52.8285 37.8033C51.8852 37.8562 50.996 38.2094 50.1273 38.5555C49.2585 38.9016 48.3669 39.2488 47.4236 39.2945C46.198 39.3534 44.9868 38.8823 44.0495 38.1469C43.1134 37.414 42.4309 36.4346 41.919 35.4013C40.4735 32.4837 40.3954 28.9149 41.621 25.9121C39.5891 27.8311 38.9438 30.7294 39.2515 33.403C39.4846 35.4325 40.2019 37.3779 41.0178 39.2608C41.7989 41.0657 42.9572 42.6362 43.8897 44.3773C44.5181 45.5513 45.1153 46.7409 45.6825 47.9425C46.6101 49.9132 47.4561 51.9307 47.9031 54.0431C48.3417 56.1171 48.3669 58.2764 48.0076 60.384H48.7466C49.3763 58.4326 49.6935 56.3935 49.3426 54.3964C48.8668 51.6891 47.2194 49.3063 45.8423 46.8791C44.4713 44.4602 43.3177 41.7217 43.9161 39.0494C45.4458 39.9578 47.4765 39.6129 49.3198 39.6129C49.8966 39.6129 50.4745 39.6514 51.0405 39.7559C53.3704 40.1969 55.251 41.7338 57.0125 43.2142C57.391 43.5326 57.7804 43.8618 58.0039 44.2896C58.2286 44.7174 58.2526 45.2689 57.9258 45.6354C58.231 46.4741 58.9303 47.1843 59.8051 47.5388C60.6702 47.8884 61.688 47.8896 62.5532 47.5412C62.5604 47.5388 62.5688 47.5352 62.576 47.534C62.5796 47.5315 62.5856 47.5303 62.5892 47.5279C62.5796 47.4835 62.5688 47.4402 62.5592 47.3958L62.558 47.3922ZM43.7551 38.9448C43.7755 38.958 43.7972 38.9713 43.8176 38.9845C43.802 38.9869 43.7828 38.9785 43.7551 38.9448Z" fill="#FEC049"/>
</svg>
