<svg width="181" height="31" viewBox="0 0 181 31" fill="none" xmlns="http://www.w3.org/2000/svg">
<path d="M8.91182 24.551C8.47819 24.5523 8.07331 24.4605 7.68066 24.2495L7.89656 24.3021L8.69898 24.4984L8.91182 24.551Z" fill="#FEC049"/>
<path d="M20.5811 30.9749H20.4356C20.1487 30.0312 19.4558 29.1884 18.6717 28.5076C17.665 27.6331 16.4822 26.9432 15.492 26.0527C14.5006 25.1616 13.6865 23.9836 13.7183 22.7048C13.2749 23.7641 13.5685 24.9915 14.1984 25.9664C14.8284 26.9413 15.758 27.712 16.6773 28.463C17.5965 29.2141 18.5335 29.9779 19.1799 30.943C19.1867 30.9534 19.1934 30.9645 19.2001 30.9749H14.7703C13.8468 30.3425 13.0774 29.5786 12.4272 28.6495C12.3893 28.5951 12.3545 28.5376 12.3263 28.4783C12.2847 28.389 12.2854 28.3529 12.278 28.2936C12.1013 29.1217 12.1612 30.1003 12.3636 30.9749H12.0468C11.7398 30.4678 11.5582 29.8905 11.4725 29.3113C11.3484 28.4728 11.4083 27.6214 11.4676 26.7768C11.5092 26.186 11.5514 25.5958 11.593 25.005C11.6175 24.6717 11.6407 24.3371 11.5991 24.0063C11.3686 24.257 11.2144 24.5671 11.1582 24.8919C11.1184 25.123 11.1264 25.3622 11.0463 25.5848C10.9294 25.9145 10.6408 26.1603 10.3833 26.4117C9.38881 27.3866 8.77965 28.7156 8.60657 30.0483C9.16313 28.6899 10.0126 27.4349 11.0915 26.3799C11.0878 26.8514 11.0829 27.3218 11.0787 27.7927C11.0768 27.9878 11.105 28.2006 11.0854 28.3945C11.0677 28.5645 10.9282 28.6899 10.823 28.8263C10.3099 29.4942 9.85118 30.2061 9.5411 30.9761H7.3167C7.31548 30.9382 7.31364 30.899 7.31303 30.8617C7.30325 30.5626 7.30692 30.2611 7.31609 29.9608C7.31976 29.8373 7.26777 29.2379 7.39376 29.1786C7.10631 29.3119 6.86045 29.5235 6.69531 29.7792C6.71978 28.8832 7.22985 28.0728 7.61149 27.2496C7.83595 26.7658 8.01943 26.2661 8.26652 25.7909C8.51238 25.3169 8.82919 24.8631 9.27016 24.5316C9.14967 24.5445 9.03102 24.5518 8.91543 24.553C11.0554 24.4442 12.9483 23.2283 13.7257 21.451C13.9764 20.8755 14.1183 20.2449 14.5244 19.752C14.204 20.9617 14.4431 22.2901 15.1685 23.339C16.0253 24.5769 17.4589 25.3597 18.5341 26.4423C19.7567 27.6728 20.4857 29.3082 20.5805 30.9767L20.5811 30.9749Z" fill="#FEC049"/>
<path d="M18.5697 26.4103C18.1477 25.9858 17.6651 25.6017 17.1985 25.2305C16.4755 24.6562 15.7282 24.0623 15.2089 23.3131C14.494 22.2813 14.2554 20.9523 14.5716 19.7609L14.6273 19.5518L14.4854 19.723C14.1931 20.0765 14.0346 20.5052 13.8811 20.9205C13.8181 21.0893 13.7539 21.2649 13.6799 21.4318C12.9111 23.1926 11.0384 24.3987 8.91003 24.5057V24.507C8.83786 24.507 8.76814 24.5051 8.69903 24.499C8.41341 24.4794 8.14981 24.4146 7.89661 24.3027C7.85257 24.2843 7.81098 24.2635 7.76756 24.2415H7.76634C7.76634 24.2415 7.76022 24.2397 7.75778 24.2366C7.74004 24.2287 7.72353 24.2201 7.7064 24.2103L7.68132 24.2501L7.65686 24.2892C8.0385 24.4941 8.45072 24.5963 8.90759 24.5963H8.92043C8.98648 24.5963 9.05437 24.5932 9.12287 24.5895C8.7816 24.8751 8.48619 25.2629 8.22198 25.7705C8.07214 26.0604 7.94309 26.3632 7.81894 26.6567C7.7382 26.8451 7.65441 27.0408 7.56696 27.2304C7.48989 27.3968 7.40549 27.5656 7.32476 27.7289C7 28.3802 6.66607 29.0536 6.6465 29.7777L6.6416 29.949L6.73701 29.8022C6.87095 29.5955 7.06177 29.4163 7.28317 29.2879C7.2581 29.4053 7.25687 29.59 7.26544 29.8389C7.26727 29.8921 7.26849 29.9349 7.26727 29.9594C7.25687 30.3037 7.25565 30.59 7.26421 30.8633C7.26544 30.9013 7.26727 30.9392 7.26788 30.9759H7.36513C7.3639 30.938 7.36207 30.8988 7.36146 30.8603C7.3529 30.59 7.35473 30.3043 7.36513 29.9624C7.36513 29.9374 7.3639 29.8915 7.36207 29.8358C7.34861 29.4493 7.36574 29.2414 7.41528 29.2187L7.39265 29.1778L7.37124 29.138C7.13027 29.2499 6.9156 29.4169 6.7523 29.6169C6.81285 28.9717 7.11682 28.3594 7.41222 27.7668C7.49295 27.6023 7.57735 27.4335 7.65503 27.2665C7.74371 27.0763 7.82689 26.88 7.90762 26.6904C8.03116 26.3986 8.1596 26.0965 8.30883 25.8109C8.59567 25.258 8.91982 24.8507 9.30024 24.5663H9.30146C11.3051 24.34 13.0335 23.1523 13.7698 21.4673C13.8438 21.2985 13.9099 21.1211 13.9729 20.9511C14.0964 20.6159 14.2249 20.271 14.4236 19.9689C14.1863 21.1236 14.4432 22.3761 15.127 23.3633C15.6529 24.1235 16.4058 24.7216 17.1349 25.3002C17.5997 25.6702 18.0804 26.0525 18.4981 26.4733C19.703 27.6873 20.432 29.3233 20.5292 30.9765H20.6265C20.5293 29.3019 19.7904 27.6414 18.5691 26.4121L18.5697 26.4103ZM18.7048 28.4744C18.2211 28.0549 17.6896 27.6714 17.1752 27.3014C16.6174 26.8989 16.0389 26.483 15.5251 26.0195C14.0353 24.68 13.7466 23.4782 13.7662 22.7058L13.7729 22.4483L13.672 22.6881C13.2665 23.6581 13.4475 24.8923 14.1557 25.9895C14.8028 26.9913 15.7814 27.7913 16.6444 28.4971L16.6596 28.5099C17.5636 29.2487 18.4981 30.0126 19.1366 30.9667C19.1385 30.9698 19.1403 30.9728 19.1427 30.9753H19.2571C19.2455 30.9569 19.2327 30.9373 19.2204 30.919C18.5733 29.9539 17.6333 29.1851 16.7239 28.442L16.7092 28.4292C15.8511 27.7283 14.878 26.9338 14.2389 25.943C13.6041 24.9614 13.401 23.8703 13.6732 22.9694C13.724 23.7553 14.1019 24.8672 15.4566 26.0849C15.9746 26.5515 16.5551 26.9693 17.1153 27.3723C17.6272 27.7417 18.1568 28.1234 18.637 28.5405C19.3005 29.1166 20.0705 29.9612 20.3831 30.9747H20.484C20.1702 29.9306 19.3819 29.064 18.7036 28.4744H18.7048ZM12.4677 28.6249C12.4267 28.5668 12.3949 28.5123 12.3705 28.4597C12.3375 28.3906 12.3338 28.3588 12.3289 28.3142L12.2891 28.0078L12.2298 28.2848C12.0628 29.0689 12.0946 30.0383 12.3112 30.9747H12.4115C12.2121 30.1245 12.1668 29.2457 12.2873 28.5074C12.3136 28.5607 12.3454 28.6151 12.3864 28.6738C13.0237 29.5826 13.7839 30.3435 14.6897 30.9753H14.8542C13.9105 30.3355 13.1234 29.5594 12.4683 28.6255L12.4677 28.6249ZM11.5204 29.305C11.3962 28.4671 11.4574 27.609 11.5155 26.7791L11.6408 25.0072C11.6641 24.6776 11.6885 24.3369 11.647 24.0006L11.6341 23.8978L11.5613 23.9767C11.324 24.2354 11.1675 24.5492 11.1094 24.8843C11.0947 24.9681 11.0861 25.0531 11.0782 25.1351C11.0629 25.2874 11.0482 25.4317 10.9993 25.5693C10.9014 25.847 10.6696 26.069 10.447 26.2837C10.4127 26.3155 10.3797 26.3479 10.3467 26.3797C9.38953 27.3185 8.73634 28.653 8.55653 30.0413L8.50882 30.4077L8.65071 30.0628C9.18709 28.7539 10.0121 27.5215 11.0402 26.4934L11.0286 27.7919C11.0274 27.8677 11.0317 27.9466 11.0354 28.0231C11.0415 28.1454 11.047 28.2726 11.0354 28.3882C11.0225 28.5087 10.9412 28.6059 10.8555 28.7087C10.8305 28.738 10.8048 28.768 10.7828 28.798C10.1883 29.5716 9.76322 30.2842 9.48739 30.974H9.59136C9.86474 30.3025 10.2812 29.6059 10.8617 28.8493C10.8843 28.8212 10.9081 28.7918 10.9326 28.7637C11.0231 28.6548 11.1173 28.5429 11.1326 28.3961C11.1442 28.2738 11.1387 28.1442 11.1326 28.0182C11.1289 27.9423 11.1246 27.8647 11.1259 27.7907L11.1393 26.2629L11.0549 26.3467C10.0733 27.3069 9.26966 28.4487 8.71493 29.6701C8.95285 28.4396 9.56139 27.2794 10.4176 26.4408C10.4494 26.409 10.4837 26.3766 10.5167 26.3448C10.7473 26.1234 10.9858 25.8941 11.091 25.5962C11.1436 25.4482 11.1589 25.2929 11.1736 25.1424C11.1821 25.0617 11.1901 24.9779 11.2048 24.8978C11.2531 24.6152 11.376 24.3486 11.5607 24.1204C11.5852 24.4128 11.5638 24.7112 11.543 25.0011L11.4176 26.7729C11.3583 27.6078 11.2971 28.4695 11.4237 29.3172C11.5161 29.941 11.7093 30.5019 11.9925 30.974H12.1026C11.8121 30.5025 11.6139 29.9374 11.5204 29.3044V29.305Z" fill="#FEC049"/>
<path d="M29.411 13.3649C28.411 12.8292 27.597 11.9992 27.1175 11.0249C27.4306 10.6592 27.6918 10.2549 27.8905 9.8262C28.4581 9.90204 28.8562 10.3846 29.0972 10.8665C29.3382 11.3485 29.4978 11.8818 29.8807 12.2769C30.5216 12.9374 31.606 13.0267 32.5552 12.9075C31.7803 13.4995 30.5865 13.4395 29.7363 12.9448C28.8862 12.45 28.3376 11.6041 27.9969 10.7283C28.4722 11.5613 28.6501 12.5754 29.3963 13.2151C29.7021 13.4775 30.0825 13.6542 30.4745 13.7845C30.8696 13.916 31.2984 14.0034 31.7094 13.9227C32.1834 13.8298 32.5809 13.5197 32.8592 13.1515C33.1375 12.7839 33.3112 12.3588 33.4824 11.9387C33.0396 12.4812 32.299 12.8029 31.5656 12.7705C30.8323 12.738 30.1278 12.3527 29.7431 11.7735C29.4862 11.387 29.3718 10.9369 29.1883 10.5161C29.0049 10.0959 28.6881 9.79929 28.2361 9.6256C28.1725 9.66658 28.1083 9.70755 28.0447 9.74853C29.9938 8.11249 31.6751 6.20919 33.3833 4.36154C34.0182 3.67532 34.6487 2.98543 35.275 2.29249C35.579 1.9555 35.8762 1.61239 36.1851 1.27968C36.3331 1.12066 36.9685 0.633213 36.9685 0.4375C34.9539 1.65948 33.1008 3.17809 31.2494 4.6019C30.392 5.26121 29.5412 5.92785 28.6978 6.60184C28.2856 6.93149 27.8746 7.26298 27.4655 7.59569C27.1994 7.8122 26.8104 8.30026 26.4245 8.30759C26.0936 8.31371 25.8802 8.00057 25.693 7.74737C25.2343 7.12843 24.5353 6.66544 23.7549 6.46423C24.435 6.79939 24.934 7.46725 25.3634 8.0599C24.9151 7.84951 24.4668 7.63911 24.0185 7.42872C24.5114 8.18589 24.6038 9.15528 24.2619 9.98094C24.627 9.93813 24.9885 10.2023 25.0765 10.5338C25.1652 10.8653 25.0068 11.2286 24.7279 11.4518C24.449 11.6745 24.0674 11.7668 23.6992 11.7534C24.1383 11.9815 24.7206 11.9485 25.1267 11.6726C25.5328 11.3968 25.742 10.8922 25.6398 10.4354C26.441 11.3369 27.2508 12.2463 28.2385 12.9717C28.5639 13.2108 28.9064 13.4279 29.2489 13.6457L29.4097 13.3649H29.411Z" fill="#FEC049"/>
<path d="M31.378 13.9984C31.1065 13.9984 30.8068 13.9415 30.4588 13.8259C29.997 13.6724 29.6386 13.4834 29.3634 13.2473C28.8625 12.818 28.6105 12.2155 28.3665 11.6333C28.3518 11.5984 28.3371 11.5636 28.3225 11.5281C28.1848 11.2877 28.0613 11.026 27.9506 10.7428L28.0393 10.7061C28.1818 10.9563 28.2992 11.226 28.4105 11.4902C28.7701 12.1171 29.2221 12.5917 29.7609 12.9054C30.4832 13.3256 31.5847 13.4669 32.3792 12.9709C31.66 13.0388 30.5254 13.0088 29.8429 12.3061C29.5567 12.0113 29.3921 11.6388 29.2331 11.2786C29.1756 11.1483 29.1157 11.0131 29.0515 10.8847C28.8827 10.5477 28.5139 9.97586 27.9182 9.87555C27.7231 10.2884 27.4723 10.6768 27.172 11.0303C27.6491 11.9844 28.4509 12.799 29.4331 13.325L29.3842 13.4033C28.3757 12.8632 27.5543 12.0247 27.0705 11.0431L27.0583 11.018L27.0766 10.9966C27.3873 10.6339 27.6454 10.234 27.843 9.80766L27.8576 9.77586L27.8943 9.78075C28.5567 9.86882 28.9579 10.4865 29.1383 10.8468C29.2038 10.977 29.2637 11.1128 29.3218 11.2443C29.4778 11.5972 29.6392 11.9623 29.9138 12.2455C30.627 12.98 31.8691 12.947 32.5462 12.8614L32.7156 12.84L32.5835 12.9409C31.8453 13.5048 30.6361 13.5219 29.7077 12.9813C29.2955 12.7415 28.9328 12.4106 28.6228 11.9923C28.8197 12.4333 29.0527 12.8596 29.427 13.18C29.6924 13.4076 30.0398 13.591 30.4888 13.7403C30.9713 13.9005 31.3554 13.9439 31.6967 13.8767C32.1138 13.7947 32.5113 13.5274 32.8165 13.1238C33.0391 12.8296 33.1951 12.4957 33.3351 12.1617C32.8764 12.5972 32.2171 12.843 31.5609 12.8137C30.808 12.7807 30.0943 12.3898 29.6992 11.7948C29.5236 11.5305 29.4123 11.2339 29.3047 10.9465C29.2533 10.8089 29.2001 10.667 29.1402 10.5306C28.9659 10.1312 28.6625 9.84314 28.2387 9.67434L28.0693 9.7832L28.0087 9.71287C29.6961 8.2964 31.2043 6.65608 32.6618 5.06958C32.8887 4.8225 33.1156 4.57541 33.3431 4.32955C33.9743 3.647 34.6103 2.95099 35.2342 2.2605C35.3504 2.13145 35.466 2.00179 35.5816 1.87213C35.7644 1.66602 35.954 1.45318 36.1448 1.24707C36.187 1.2012 36.2672 1.13087 36.3589 1.04952C36.5173 0.909467 36.7558 0.698464 36.8623 0.55168C35.2629 1.53514 33.7498 2.71247 32.2856 3.85188C31.9486 4.11365 31.6129 4.37542 31.2771 4.63351C30.4233 5.28976 29.5652 5.96313 28.7261 6.63345C28.3194 6.95821 27.9047 7.29276 27.4937 7.6273C27.4301 7.67929 27.358 7.74779 27.2815 7.82118C27.0375 8.0542 26.7335 8.34471 26.4216 8.35083C26.0828 8.35756 25.8669 8.06643 25.6773 7.80956L25.6485 7.77103C25.2736 7.26524 24.7281 6.86097 24.1134 6.6255C24.6583 7.00959 25.0785 7.58938 25.3996 8.03218L25.5036 8.17591L24.136 7.53434C24.5513 8.25848 24.6247 9.15692 24.3293 9.92937C24.6871 9.92509 25.0284 10.1783 25.1195 10.5214C25.2082 10.8529 25.0614 11.2394 24.7556 11.4841C24.5366 11.659 24.2376 11.7666 23.9122 11.7923C24.3012 11.9165 24.7617 11.8602 25.0932 11.6345C25.4822 11.3703 25.6852 10.8804 25.5874 10.4425L25.5476 10.2639L25.673 10.4046C26.4607 11.2914 27.276 12.2082 28.2644 12.9342C28.5879 13.1715 28.9347 13.3917 29.2698 13.6051L29.2166 13.6809C28.8778 13.4657 28.5292 13.2449 28.2032 13.0051C27.2522 12.3067 26.4638 11.4364 25.706 10.5844C25.7366 11.0107 25.5225 11.4547 25.1507 11.7073C24.7324 11.9917 24.1238 12.0259 23.6706 11.7911L23.4939 11.6993L23.6963 11.7067C24.0798 11.7201 24.4425 11.615 24.6914 11.4162C24.9703 11.1936 25.1042 10.8425 25.0247 10.5434C24.9397 10.2236 24.5898 9.98625 24.2633 10.0242L24.1825 10.0333L24.2119 9.96301C24.547 9.15447 24.4553 8.19181 23.9721 7.44994L23.8847 7.31539L25.2137 7.93922C24.8455 7.43526 24.358 6.81326 23.7275 6.50196L23.333 6.30747L23.763 6.41817C24.5495 6.62122 25.2657 7.09521 25.728 7.71904L25.7568 7.75758C25.9305 7.99304 26.1268 8.2597 26.41 8.2597C26.413 8.2597 26.4155 8.2597 26.4185 8.2597C26.6901 8.25481 26.9788 7.97898 27.2106 7.75758C27.2882 7.68296 27.3616 7.61263 27.4283 7.5588C27.8393 7.22426 28.254 6.88971 28.6613 6.56434C29.5004 5.89341 30.3591 5.22065 31.2135 4.56379C31.5493 4.30569 31.885 4.04454 32.2214 3.78277C33.7278 2.61094 35.2855 1.39875 36.9375 0.396944L37.0127 0.351074V0.434252C37.0127 0.582871 36.7467 0.83057 36.425 1.11435C36.3344 1.19447 36.2568 1.26297 36.217 1.30579C36.0268 1.51067 35.8378 1.72351 35.655 1.92901C35.5394 2.05928 35.4238 2.18894 35.307 2.31799C34.6831 3.00849 34.0464 3.70449 33.4153 4.38765C33.1878 4.63351 32.9615 4.87999 32.7339 5.12707C31.3364 6.64813 29.893 8.21872 28.2876 9.59605C28.7292 9.77525 29.0454 10.078 29.2282 10.4957C29.2888 10.6339 29.3426 10.7771 29.394 10.9159C29.4998 11.1984 29.6093 11.4902 29.7793 11.7464C30.1579 12.3165 30.8416 12.6901 31.5627 12.7219C32.2856 12.7544 33.0024 12.4418 33.4385 11.9079L33.6422 11.6578L33.5223 11.9507C33.3523 12.3678 33.1761 12.799 32.893 13.1733C32.5737 13.5953 32.1548 13.8754 31.7138 13.9623C31.6043 13.9837 31.4906 13.9947 31.3719 13.9947L31.378 13.9984Z" fill="#FEC049"/>
<path d="M32.8988 20.6248C32.9771 20.5587 33.0853 20.4927 33.1826 20.5336C33.2559 20.5648 33.2878 20.6437 33.3092 20.7159C33.4676 21.2498 33.4572 21.8254 33.2798 22.3544C32.9764 22.229 32.352 21.9049 32.2768 21.5679C32.2064 21.2523 32.6658 20.8217 32.8988 20.6248Z" fill="#FEC049"/>
<path d="M33.3093 22.4156L33.2592 22.3948C33.1631 22.3551 32.3216 21.9967 32.228 21.5765C32.1589 21.2652 32.5362 20.8683 32.8653 20.5906C32.9913 20.4842 33.1044 20.4512 33.2017 20.4921C33.2928 20.5307 33.3301 20.6206 33.3552 20.7037C33.5148 21.2426 33.5044 21.834 33.3252 22.3673L33.3087 22.4156H33.3093ZM32.9313 20.6579C32.4989 21.0224 32.2775 21.3508 32.324 21.5588C32.3888 21.8493 32.9136 22.1459 33.2488 22.2915C33.4066 21.7869 33.4114 21.234 33.2616 20.7276C33.2433 20.6646 33.2163 20.5973 33.1619 20.5741C33.0891 20.5435 32.9962 20.6028 32.9313 20.6573V20.6579Z" fill="#FEC049"/>
<path d="M12.8262 7.13315C13.5313 6.68302 14.0689 6.04083 14.5252 5.36868C14.9815 4.69714 15.3686 3.98524 15.8438 3.32471C15.7545 3.44886 15.5814 3.55834 15.4646 3.66292C15.3386 3.77607 15.2133 3.88922 15.0879 4.00297C14.8347 4.23355 14.5833 4.46535 14.3332 4.69898C14.0836 4.93261 13.8353 5.16746 13.5888 5.40477C13.4989 5.491 13.3466 5.59069 13.2904 5.69833C13.2268 5.81943 13.2304 6.00964 13.1968 6.14236C13.1106 6.48302 12.9864 6.81573 12.8262 7.13315Z" fill="#FEC049"/>
<path d="M22.4209 9.56494C22.0381 9.04936 21.8901 8.38638 22.0209 7.77294C20.7445 7.72402 19.4681 8.12889 18.3397 8.48668L18.018 8.58882L18.2963 8.40717C19.366 7.70872 20.6711 7.36439 21.9769 7.43656V6.99743C20.3072 7.05737 18.7825 7.6549 17.6779 8.68301L17.4143 8.92887L17.6015 8.62857C18.0094 7.97477 18.6944 7.43473 19.5305 7.10813C20.2491 6.82741 21.0778 6.69652 21.9934 6.71854L22.005 6.29409C21.057 6.36626 19.8626 6.53078 18.9085 7.13688C18.6712 7.28794 18.448 7.46653 18.2327 7.639C18.0033 7.82309 17.766 8.0133 17.5079 8.17232C16.9043 8.5454 16.1734 8.75089 15.448 8.75151C15.4334 8.75946 15.4181 8.75885 15.4058 8.75579L15.3685 8.78759L15.3343 8.69218L15.3581 8.66833L15.3557 8.66099H15.3685C15.3716 8.65915 15.3753 8.65793 15.3783 8.65732C15.7367 8.3558 16.1367 8.10198 16.5685 7.90016C15.6358 7.76744 14.6365 7.9815 13.8664 8.48546L13.7784 8.54295L13.79 8.44326C13.8267 8.13379 13.9888 7.81637 14.2585 7.52463C14.4628 7.30384 14.7049 7.11853 14.9471 6.94239C14.5777 6.97358 14.1814 7.05615 13.7405 7.19437C13.5447 7.25553 13.3344 7.32892 13.0775 7.42616C13.0396 7.44023 12.9974 7.4543 12.9539 7.46836C12.8133 7.51424 12.6536 7.56561 12.5949 7.66285C12.5246 7.77845 12.4824 7.93074 12.4414 8.07752C12.4157 8.16926 12.3894 8.26467 12.3564 8.34785C12.2665 8.57536 12.1662 8.80288 12.0592 9.02367C11.8451 9.46463 11.5937 9.89643 11.3124 10.3068C10.7497 11.127 10.0696 11.8633 9.29105 12.4939C9.19808 12.5691 9.09901 12.6321 9.00299 12.6933C8.92225 12.7447 8.83908 12.7973 8.76079 12.8572L8.55713 13.0119L8.6874 12.7997C8.99136 12.3055 9.36689 11.8468 9.72957 11.4028C10.1045 10.9447 10.4922 10.4707 10.7986 9.96003C10.8904 9.80713 10.9619 9.69888 11.0311 9.59429C11.0873 9.50867 11.1418 9.4261 11.2035 9.32519C11.2427 9.26097 11.2818 9.20042 11.3216 9.13865C11.4029 9.01205 11.4873 8.88178 11.5772 8.71114C11.7613 8.36069 11.8873 7.97844 12.0096 7.60903C12.0702 7.42617 12.1326 7.23779 12.2011 7.05431C12.4848 6.29776 12.7674 5.54121 13.05 4.78404C13.546 3.45503 14.0579 2.08382 14.571 0.730957C13.9778 1.56946 13.4542 2.45078 12.9466 3.30641C12.3747 4.26969 11.7833 5.26599 11.0928 6.19868C10.8341 6.5479 10.5974 6.91976 10.3687 7.27999C10.1516 7.62127 9.92773 7.97355 9.68431 8.30748C9.24946 8.90502 8.74305 9.45913 8.17916 9.95514L7.85011 10.245L8.10576 9.89704C8.21769 9.74414 8.34307 9.59368 8.46355 9.44812C8.77669 9.07076 9.10023 8.68056 9.225 8.22431C9.43783 7.44635 9.60725 6.71732 9.78706 5.94548C9.87085 5.58463 9.95708 5.21583 10.0507 4.82686C9.86229 5.25742 9.65251 5.68554 9.44762 6.10388C9.3779 6.24638 9.30817 6.38828 9.24029 6.52956C9.0036 7.01945 8.86354 7.29161 8.68618 7.63717C8.4819 8.03471 8.22747 8.52949 7.71495 9.56677L7.54248 9.91539L7.6226 9.53925C7.93696 8.06651 8.21952 6.56931 8.46539 5.08312C7.42627 7.32831 6.45566 9.68175 5.50279 12.2627C5.52419 12.2682 5.54437 12.2792 5.55966 12.2957L5.59758 12.3355L5.54927 12.3636C5.34866 12.4817 5.16151 12.5893 4.97497 12.6969C4.79088 12.8028 4.60679 12.9092 4.41047 13.0248C4.03616 13.8651 3.76461 14.7489 3.60315 15.6516L3.57073 15.8345L3.50896 15.6577C3.41722 15.3953 3.31203 15.1348 3.19521 14.8804C3.13589 15.6424 2.9677 16.3929 2.6937 17.1139C2.81235 17.2357 2.93956 17.3678 3.06616 17.4993C3.2001 17.6381 3.33404 17.7775 3.45759 17.9041L3.47961 17.9261L3.46554 17.9537C2.78177 19.3041 2.00626 20.8349 0.701709 21.8954L0.644219 21.9419C0.474805 22.0783 0.299887 22.219 0.212428 22.4043C0.133531 22.5719 0.123745 22.7755 0.181235 23.0453C0.33964 23.7871 0.853998 24.4581 1.55795 24.8409C1.74938 24.9455 2.11329 25.0978 2.39462 24.9473C2.56893 24.8544 2.66801 24.6642 2.74752 24.5113L4.26307 21.6C4.6178 20.9187 4.98476 20.2135 5.54866 19.6399C6.18105 18.9958 6.98225 18.6448 7.7437 18.6674L7.96632 18.6748L7.76082 18.7543C6.32233 19.3084 5.39147 20.6582 4.81657 21.6251C4.66489 21.8795 4.51627 22.1431 4.37255 22.3976C3.85452 23.3156 3.31876 24.2642 2.53774 25.0232C2.8466 25.3534 2.88146 25.8702 2.63498 26.2397C3.05821 26.0653 3.38787 25.7045 3.49612 25.2856L3.51814 25.1999L3.58052 25.2666C3.82761 25.532 3.96644 25.8758 3.97072 26.225C4.30649 25.8898 4.54563 25.4813 4.66489 25.0366L4.67407 25.003H4.71137C5.06549 24.9957 5.41777 24.918 5.73703 24.7767C5.28078 24.6513 4.92299 24.2458 4.89791 23.8024L4.89608 23.7688L4.93094 23.7578C5.13644 23.6923 5.34927 23.6238 5.52603 23.5058C5.71868 23.3774 5.83672 23.2037 5.85079 23.0287C5.86057 22.9076 5.82204 22.789 5.78168 22.6636C5.74131 22.5382 5.69911 22.408 5.70828 22.2728C5.72908 21.9474 6.02754 21.7071 6.31683 21.515C7.49355 20.734 8.51615 20.2551 9.53569 20.008C9.59257 19.9946 9.65189 19.9817 9.71244 19.9689C10.0182 19.9041 10.3344 19.8374 10.4696 19.5964C10.6482 19.2778 10.9118 18.9824 11.2518 18.7188C11.3937 18.6087 11.5448 18.5066 11.691 18.4069C11.8922 18.2705 12.1001 18.1292 12.2836 17.969C12.8065 17.5115 13.1374 16.895 13.4567 16.2993C13.7502 15.7513 14.0542 15.1843 14.5092 14.7318L14.5808 14.7935C14.5294 14.8449 14.4927 14.9697 14.4628 15.07C14.4475 15.1213 14.4328 15.1703 14.4175 15.2076C13.8591 16.5604 13.1967 17.8925 12.4488 19.1671C12.0751 19.8032 11.6739 20.4362 11.2567 21.0478C11.195 21.1383 11.1338 21.2288 11.0726 21.3199C10.7338 21.8239 10.384 22.3444 9.92467 22.7719C9.85617 22.8361 9.78339 22.8991 9.70938 22.9596C9.30022 23.2942 8.81217 23.5822 8.21585 23.8397L8.07763 23.8997C8.73938 23.7786 9.40725 23.5186 10.1088 23.1095C11.0335 22.57 12.283 21.6673 12.9857 20.4294C13.6028 19.342 13.979 18.1365 14.3435 16.9708C14.4848 16.5182 14.6309 16.0498 14.7894 15.5947C15.2218 14.3513 15.9581 12.5997 17.415 11.4481C16.5141 11.8065 15.7863 12.4694 15.0805 13.1128C14.4591 13.6792 13.8157 14.2645 13.05 14.6553C12.6286 14.8706 12.2536 14.977 11.9081 14.9715C11.461 14.9684 11.0604 14.7758 10.8635 14.4694L10.7907 14.3562L10.9234 14.4045C11.6102 14.6547 12.3607 14.3648 12.8341 14.0101C13.3136 13.6498 13.6683 13.1605 14.012 12.6866C14.0548 12.6272 14.0982 12.5679 14.1411 12.5092C14.5123 12.0022 14.9618 11.4334 15.6022 11.1037C16.0352 10.8805 16.5275 10.782 17.0033 10.6866C17.1654 10.6542 17.333 10.6206 17.4951 10.5826C17.7287 10.5282 17.9391 10.4634 18.1256 10.3894C18.0694 10.4065 18.0149 10.4206 17.9623 10.4334C17.681 10.5019 17.3893 10.538 17.1067 10.5729C16.9208 10.5961 16.7281 10.62 16.541 10.6524C15.1734 10.8921 13.9466 11.6456 13.1747 12.7196L12.9435 13.0407L13.0885 12.6786C13.6187 11.3526 15.0297 10.516 16.3404 9.87257C17.9042 9.1044 19.7623 8.33745 21.6888 8.47078L21.8693 8.48301L21.7066 8.55641C20.2008 9.23161 19.1825 10.4585 18.2437 11.9386C18.7856 11.2982 19.4369 10.738 20.1708 10.2854L20.232 10.3551C18.7268 11.7159 17.7538 13.459 17.4932 15.2632C17.2309 17.0779 17.7018 18.8961 18.7892 20.3034C18.07 18.4552 17.9941 16.4161 18.5801 14.5256C19.1648 12.6407 20.5653 10.8346 22.4258 9.56494H22.4209ZM1.43869 23.0092C1.30292 23.0875 1.11515 23.219 0.959193 23.2404C1.02158 23.0911 1.16102 22.9303 1.25154 22.7908C1.31637 22.6911 1.38487 22.5933 1.45582 22.4973C1.48028 22.4642 1.6815 22.2496 1.67049 22.2233C1.73715 22.3835 1.83012 22.5352 1.94449 22.6703C1.78486 22.7939 1.61544 22.907 1.43869 23.0092ZM6.36025 16.1678C5.87831 16.3439 5.4563 16.5543 5.05815 16.8626C5.14011 16.5133 5.2557 16.1709 5.40187 15.84C5.40187 15.84 5.49728 15.7109 5.50279 15.6956C5.50279 15.695 5.50279 15.6938 5.50279 15.6932C6.05445 15.032 6.56881 14.5746 7.26175 14.04C7.04708 14.7899 6.83975 15.3629 6.44221 16.0455C6.46178 16.0296 6.33885 16.1831 6.35903 16.1672L6.36025 16.1678Z" fill="#FEC049"/>
<path d="M18.1494 24.3459C18.9965 24.9392 19.6888 25.7178 20.1732 26.5923C20.5915 27.3483 21.1004 28.4834 20.8784 29.3501C21.1383 28.3409 21.3982 27.281 21.109 26.2786C20.8521 25.3899 20.1897 24.6505 19.4723 24.0151C18.7549 23.379 17.9617 22.8114 17.3311 22.1007C16.2577 20.891 15.9807 19.5186 15.481 18.085C15.2706 18.9602 15.2192 19.9112 15.3697 20.798C15.5342 21.7717 15.9892 22.7234 16.769 23.3931C17.1904 23.7551 17.6919 24.0248 18.15 24.3459H18.1494Z" fill="#FEC049"/>
<path d="M22.274 7.49728C22.3682 8.40551 22.7205 9.29723 23.3272 10.0152C23.0624 9.35839 23.0147 8.62813 23.192 7.94681C23.5498 8.42875 23.8036 8.97675 23.9345 9.54921C24.0581 8.7266 23.9272 7.88504 23.674 7.08812C23.4648 6.42942 23.1737 5.79642 22.8697 5.17136C22.833 5.09552 22.7969 5.01968 22.759 4.94446C22.7131 4.85333 22.6972 4.81663 22.6355 4.91693C22.5541 5.04843 22.5217 5.23925 22.4795 5.38481C22.3841 5.71385 22.3156 6.05023 22.2783 6.38906C22.2379 6.75724 22.2349 7.12849 22.2728 7.49728H22.274Z" fill="#FEC049"/>
<path d="M26.46 13.4957C26.8123 13.5862 27.1694 13.6786 27.4813 13.8547C28.1303 14.221 28.4905 14.8889 28.8727 15.4981C29.5498 16.5769 30.3865 17.561 31.2201 18.5414C30.291 17.7885 29.3425 17.0142 28.7492 16.0112C28.5094 15.6063 28.2697 15.1207 27.7865 15.0094C27.4716 14.9372 27.1364 15.0522 26.8178 14.9966C26.3211 14.9097 26.019 14.451 25.7878 14.0345C25.5566 13.618 25.2747 13.1544 24.7842 13.04C24.8723 13.0608 24.9609 13.0951 25.0453 13.1263C25.4667 13.2663 25.9976 13.3764 26.4606 13.4951L26.46 13.4957Z" fill="#FEC049"/>
<path d="M30.5057 20.5365C30.1186 20.1775 30.0874 19.5977 29.7596 19.1909C29.3932 18.7359 28.6428 18.5127 28.0508 18.5561C28.4648 18.7506 28.8446 18.8429 29.2 19.1524C29.6838 19.5732 30.0177 20.1187 30.5057 20.5371V20.5365Z" fill="#FEC049"/>
<path d="M29.3859 13.3286C29.4508 14.4772 29.9994 15.5469 30.7131 16.4667C31.8109 17.8624 33.3155 18.9119 34.5014 20.2446C35.1142 20.8672 34.9845 21.3443 34.6867 22.0666C34.3821 22.88 33.8965 23.809 33.0195 24.2549C32.7039 24.4237 32.3473 24.5081 31.9907 24.4995C31.8856 23.3632 31.0892 22.3039 29.9755 21.8195L30.0275 21.7167C31.1639 22.2127 31.9779 23.2775 32.1069 24.4353C32.1069 24.4353 32.0299 24.3858 32.0323 24.3858C33.1057 23.8225 33.6194 22.8916 34.1234 21.855C34.3901 21.2978 34.6286 21.0458 34.1497 20.5021C33.0366 19.1278 31.5901 18.0159 30.5584 16.5652C29.8972 15.6123 29.345 14.457 29.3859 13.3286Z" fill="#FEC049"/>
<path d="M31.9856 24.3627C31.9575 24.2422 31.9299 24.1229 31.9018 24.0018L31.8988 24.0049C31.6333 24.2471 31.2321 24.3511 30.8707 24.2734C30.5074 24.1945 30.1961 23.934 30.075 23.608C30.248 23.4954 30.2994 23.2698 30.2517 23.0795C30.2052 22.8881 30.078 22.7236 29.9502 22.5676C29.2242 21.6735 28.3943 20.8521 27.4787 20.1224C27.7539 20.0747 28.0285 20.027 28.3038 19.9787C28.0353 19.6093 27.5136 19.4552 27.0335 19.4821C26.5533 19.509 26.1008 19.6888 25.6586 19.865C25.2164 20.0411 24.7626 20.2179 24.2825 20.2411C23.6586 20.2711 23.0421 20.0313 22.5651 19.657C22.0887 19.2839 21.7413 18.7855 21.4807 18.2595C20.745 16.7745 20.7052 14.9581 21.329 13.4297C20.2948 14.4064 19.9664 15.8816 20.123 17.2424C20.2416 18.2754 20.6067 19.2656 21.022 20.224C21.4196 21.1426 22.0091 21.942 22.4838 22.8282C22.8036 23.4257 23.1076 24.0312 23.3963 24.6428C23.8684 25.6458 24.299 26.6727 24.5265 27.7479C24.7497 28.8035 24.7626 29.9026 24.5797 30.9753H24.9558C25.2763 29.9821 25.4378 28.9442 25.2592 27.9277C25.017 26.5498 24.1785 25.337 23.4776 24.1015C22.7798 22.8704 22.1926 21.4765 22.4972 20.1163C23.2758 20.5787 24.3094 20.4032 25.2476 20.4032C25.5412 20.4032 25.8353 20.4227 26.1234 20.476C27.3093 20.7004 28.2664 21.4827 29.1631 22.2361C29.3557 22.3982 29.5539 22.5658 29.6676 22.7835C29.782 23.0013 29.7942 23.282 29.6279 23.4685C29.7832 23.8954 30.1392 24.2569 30.5844 24.4373C31.0248 24.6153 31.5428 24.6159 31.9832 24.4385C31.9868 24.4373 31.9911 24.4355 31.9948 24.4349C31.9966 24.4336 31.9997 24.433 32.0015 24.4318C31.9966 24.4092 31.9911 24.3871 31.9862 24.3645L31.9856 24.3627ZM22.4153 20.0631C22.4256 20.0699 22.4367 20.0766 22.4471 20.0833C22.4391 20.0845 22.4293 20.0802 22.4153 20.0631Z" fill="#FEC049"/>
<path d="M56.4202 18.2825C56.133 18.0072 55.8785 17.6665 55.6583 17.2587C55.4381 16.8525 55.2119 16.4596 54.9797 16.0846C54.7476 15.7082 54.4783 15.3852 54.1717 15.1159C53.8652 14.8466 53.4798 14.7067 53.0155 14.6933H52.5468V23.586C52.5468 24.1485 52.5587 24.4669 52.584 24.5399C52.6078 24.6068 52.6866 24.6991 52.8176 24.8151C52.9485 24.9312 53.1003 25.0622 53.2714 25.2095C53.4426 25.3568 53.6122 25.4982 53.7804 25.6366C53.9485 25.775 54.0884 25.8925 54.1985 25.9892H47.343C47.4531 25.891 47.593 25.7735 47.7611 25.6366C47.9293 25.4997 48.0989 25.3568 48.27 25.2095C48.4412 25.0622 48.593 24.9312 48.7239 24.8151C48.8549 24.6991 48.9337 24.6068 48.9575 24.5399C48.9813 24.4669 48.9947 24.1485 48.9947 23.586V14.6933H48.526C48.0483 14.7052 47.6599 14.8466 47.3608 15.1159C47.0617 15.3852 46.7954 15.7082 46.5632 16.0846C46.3311 16.4611 46.1079 16.8525 45.8936 17.2587C45.6793 17.665 45.4293 18.0072 45.1406 18.2825V13.29H56.4009L56.4187 18.2825H56.4202Z" fill="#FEC049"/>
<path d="M62.6432 20.4495V23.5878C62.6432 24.1384 62.6611 24.4747 62.6983 24.5967V24.5788C62.6983 24.5908 62.7013 24.5967 62.7072 24.5967C62.7132 24.5967 62.7161 24.6027 62.7161 24.6146C62.74 24.6458 62.8664 24.7574 63.0926 24.9494C63.3188 25.1413 63.7265 25.4895 64.3128 25.991H57.4395C58.0138 25.4776 58.4112 25.1265 58.6284 24.9404C58.8457 24.7544 58.9692 24.6458 59.0004 24.6146C59.0123 24.5908 59.0317 24.5655 59.0555 24.5416C59.0793 24.4925 59.0927 24.1741 59.0927 23.5878V15.6772C59.0927 15.1385 59.0748 14.7992 59.0376 14.6579L58.9737 14.6028C59.0659 14.6638 59.1269 14.707 59.1567 14.7308C59.1879 14.7546 59.1567 14.7278 59.06 14.649C58.9647 14.5701 58.7891 14.4228 58.5317 14.2085C58.2743 13.9942 57.9112 13.6832 57.4395 13.2725H64.3128C63.9155 13.6341 63.606 13.9019 63.3858 14.076C63.1655 14.2502 63.0123 14.3677 62.9275 14.4287C62.9513 14.4168 62.9587 14.4183 62.9453 14.4332C62.9334 14.4481 62.9066 14.4719 62.8679 14.5016C62.8278 14.5329 62.7935 14.5686 62.7623 14.6117C62.731 14.6549 62.7102 14.6936 62.6983 14.7308C62.6611 14.7918 62.6432 15.1073 62.6432 15.6757V18.7322H66.0851V15.6757C66.0851 15.4376 66.0792 15.2427 66.0673 15.0924C66.0554 14.9421 66.039 14.8275 66.0212 14.7486C65.8738 14.6147 65.6729 14.4272 65.4155 14.1891C65.1581 13.9511 64.8277 13.6445 64.4245 13.271H71.2889C70.8857 13.6073 70.5776 13.8633 70.3663 14.0374C70.155 14.2115 70.0077 14.3335 69.9258 14.4049C69.844 14.4763 69.8053 14.5046 69.8113 14.4927C69.8172 14.4808 69.8514 14.46 69.9125 14.4287C69.9675 14.4049 69.9511 14.4302 69.8619 14.5061C69.7726 14.582 69.716 14.6519 69.6922 14.7129C69.655 14.7859 69.6372 15.1073 69.6372 15.6772V23.5878C69.6372 24.1012 69.655 24.439 69.6922 24.5967C69.8142 24.7009 70.0017 24.8586 70.2517 25.0699C70.5032 25.2812 70.8485 25.5878 71.2889 25.9925H64.4245C64.9259 25.552 65.2816 25.25 65.4884 25.0893C65.6967 24.9271 65.8188 24.8274 65.856 24.7916C65.8441 24.7916 65.8247 24.8035 65.8009 24.8288C65.7771 24.8541 65.7697 24.8556 65.7831 24.8378C65.795 24.8199 65.8203 24.7946 65.856 24.7649C65.8932 24.7336 65.9259 24.6964 65.9572 24.6503C65.9884 24.6041 66.0092 24.5684 66.0212 24.5446C66.0643 24.4717 66.0851 24.1533 66.0851 23.5908V20.4524H62.6432V20.4495ZM58.7698 14.457C58.7936 14.4808 58.8189 14.5031 58.8427 14.521C58.8665 14.5388 58.8918 14.5612 58.9156 14.585C58.8293 14.5359 58.7817 14.4927 58.7683 14.457H58.7698ZM58.807 24.8274C58.7832 24.8512 58.7728 24.8646 58.7787 24.8646C58.7847 24.8646 58.7995 24.8527 58.8248 24.8274H58.807ZM58.9722 14.6028C58.9603 14.6028 58.9498 14.5998 58.9439 14.5939C58.9498 14.5998 58.9588 14.6028 58.9722 14.6028ZM62.9453 24.8274C62.8903 24.7902 62.8441 24.7574 62.8069 24.7262C62.7697 24.6949 62.74 24.6681 62.7147 24.6443C62.7519 24.7053 62.8278 24.7663 62.9438 24.8274H62.9453ZM66.0018 14.6579C65.9899 14.646 65.9557 14.6147 65.9006 14.5656C65.8456 14.5165 65.8307 14.5046 65.8545 14.5284C65.8917 14.5894 65.9393 14.6385 66.0018 14.6757V14.6579Z" fill="#FEC049"/>
<path d="M77.2085 14.6402V18.8336C77.4957 18.8217 77.7487 18.7503 77.966 18.6178C78.1832 18.4869 78.396 18.3009 78.6043 18.0628C78.8127 17.8247 79.0299 17.5315 79.2561 17.1863C79.4823 16.8411 79.7457 16.4423 80.0448 15.9884V23.0181C79.8186 22.6818 79.6177 22.3797 79.4436 22.1103C79.2695 21.841 79.1073 21.597 78.957 21.3767C78.8067 21.1565 78.6549 20.9675 78.5031 20.8127C78.3499 20.6565 78.1817 20.53 77.9987 20.4318C77.7963 20.3157 77.5329 20.2458 77.21 20.2205V23.2487C77.21 23.5731 77.216 23.8261 77.2279 24.0106C77.2398 24.1936 77.2591 24.3171 77.2829 24.3782V24.3603C77.3067 24.4332 77.3558 24.4942 77.4303 24.5433H77.4124C77.5046 24.5924 77.6936 24.6163 77.9808 24.6163H78.6683C79.1698 24.6163 79.6326 24.5508 80.0537 24.4198C80.4763 24.2889 80.9168 24.085 81.3751 23.8097C81.8334 23.5344 82.332 22.7517 82.8706 21.4601L82.8617 26.0121H72.0137C72.405 25.6877 72.7443 25.4183 73.033 25.204C73.3202 24.9898 73.5166 24.7755 73.6208 24.5612C73.658 24.4883 73.6758 24.1639 73.6758 23.588V15.6581C73.6758 15.3947 73.6729 15.1864 73.6669 15.0346C73.661 14.8813 73.652 14.7742 73.6386 14.7131L73.6565 14.731C73.6327 14.6819 73.5866 14.6209 73.5181 14.548C73.3827 14.42 73.1937 14.2533 72.9497 14.048C72.7041 13.8426 72.3931 13.5688 72.0137 13.2266H82.5775V18.6417C82.0879 17.2711 81.759 16.4706 81.5909 16.2414C81.4227 16.0122 81.2367 15.795 81.0314 15.5896C80.826 15.3843 80.6266 15.2191 80.4302 15.0941C80.2338 14.9691 80.0165 14.8664 79.7784 14.7861C79.6445 14.7489 79.4362 14.7161 79.1549 14.6849C78.8737 14.6536 78.5121 14.6387 78.0716 14.6387H77.2085V14.6402Z" fill="#FEC049"/>
<path d="M95.7968 20.5123C96.2706 19.321 96.7635 18.1053 97.2737 16.8653C97.7838 15.6253 98.2403 14.4188 98.6412 13.2456H104.112C103.711 13.6222 103.379 13.9299 103.118 14.1667C102.857 14.4036 102.659 14.5706 102.525 14.6678C102.507 14.7285 102.492 14.8409 102.48 15.0048C102.467 15.1688 102.461 15.3753 102.461 15.6243V23.5207C102.461 23.8061 102.467 24.0359 102.48 24.209C102.492 24.3821 102.507 24.5025 102.525 24.5693C102.537 24.6179 102.604 24.6726 102.725 24.7333C102.653 24.6847 102.604 24.6452 102.58 24.6149C102.555 24.5845 102.583 24.5997 102.662 24.6604C102.741 24.7212 102.892 24.8487 103.118 25.043C103.343 25.2374 103.674 25.5259 104.112 25.9095H97.2919C97.8142 25.4115 98.1887 25.0694 98.4134 24.8841C98.6381 24.6989 98.7687 24.5997 98.8052 24.5875C98.8294 24.5572 98.8537 24.5177 98.878 24.4691C98.9023 24.4448 98.9145 24.3527 98.9145 24.1907V23.5207L99.1878 16.5181L94.9294 29.0271L90.3976 16.4635V23.1654C90.3976 23.4265 90.4007 23.6381 90.4068 23.799C90.4128 23.96 90.4159 24.0713 90.4159 24.132C90.4402 24.2474 90.4877 24.3557 90.5576 24.4559C90.6274 24.5562 90.7307 24.6716 90.8673 24.8021C91.004 24.9327 91.173 25.0845 91.3734 25.2586C91.5738 25.4327 91.8168 25.6494 92.1032 25.9105H87.3984C87.6839 25.6494 87.9228 25.4317 88.1141 25.2586C88.3054 25.0855 88.4603 24.9307 88.5787 24.794C88.6971 24.6574 88.7943 24.5298 88.8702 24.4114C88.9461 24.293 89.0028 24.1573 89.0392 24.0055V15.6264C89.0392 15.1769 89.021 14.8814 88.9846 14.7417C88.8449 14.6324 88.6354 14.4471 88.356 14.1849C88.0766 13.9238 87.7568 13.611 87.3984 13.2456H92.7511L95.7958 20.5123H95.7968ZM88.7032 14.4218C88.7639 14.4886 88.8145 14.5372 88.854 14.5676C88.8935 14.5979 88.932 14.6313 88.9684 14.6678C88.9562 14.6435 88.9299 14.6131 88.8905 14.5767C88.851 14.5402 88.8125 14.5048 88.7761 14.4714C88.7396 14.438 88.7123 14.4157 88.6941 14.4036C88.6759 14.3914 88.6789 14.3975 88.7032 14.4218Z" fill="#FEC049"/>
<path d="M109.038 16.8877V20.2209C109.267 20.2108 109.467 20.1541 109.639 20.0499C109.811 19.9456 109.98 19.7978 110.146 19.6085C110.311 19.4193 110.485 19.1864 110.665 18.9121C110.845 18.6378 111.053 18.32 111.292 17.9606V23.5481C111.112 23.2809 110.953 23.04 110.815 22.8264C110.676 22.6128 110.547 22.4175 110.428 22.2423C110.308 22.0672 110.188 21.9174 110.066 21.7939C109.945 21.6704 109.811 21.5692 109.666 21.4913C109.505 21.3992 109.296 21.3425 109.038 21.3232V23.7303C109.038 23.9884 109.043 24.1898 109.052 24.3356C109.062 24.4814 109.077 24.5785 109.096 24.6271V24.613C109.115 24.6717 109.154 24.7203 109.212 24.7587H109.198C109.271 24.7972 109.422 24.8174 109.65 24.8174H110.197C110.596 24.8174 110.963 24.7648 111.298 24.6605C111.633 24.5563 111.984 24.3943 112.349 24.1757C112.713 23.957 113.11 23.3345 113.538 22.3081L113.531 25.9258H104.909C105.22 25.6677 105.49 25.4541 105.719 25.2841C105.948 25.114 106.103 24.944 106.186 24.7739C106.215 24.7152 106.229 24.4581 106.229 24.0006V17.6985C106.229 17.49 106.226 17.324 106.222 17.2025C106.217 17.081 106.21 16.996 106.2 16.9474L106.214 16.9616C106.195 16.9231 106.158 16.8745 106.105 16.8158C105.997 16.7136 105.847 16.581 105.652 16.418C105.458 16.2551 105.21 16.0374 104.908 15.7651H113.304V20.0681C112.915 18.9789 112.653 18.3433 112.519 18.1611C112.385 17.9789 112.237 17.8058 112.074 17.6428C111.911 17.4798 111.752 17.3482 111.596 17.249C111.44 17.1488 111.268 17.0679 111.078 17.0041C110.97 16.9747 110.805 16.9484 110.582 16.9241C110.358 16.8998 110.072 16.8877 109.721 16.8877H109.036H109.038Z" fill="#FEC049"/>
<path d="M116.681 18.6965V23.956C116.681 24.1747 116.709 24.3609 116.765 24.5137C116.821 24.6666 116.909 24.8113 117.027 24.948C117.147 25.0846 117.294 25.2263 117.473 25.3751C117.651 25.5239 117.865 25.7021 118.118 25.9116H114.23C114.489 25.7021 114.704 25.5219 114.879 25.3681C115.054 25.2152 115.196 25.0674 115.306 24.9267C115.416 24.786 115.496 24.6413 115.547 24.4925C115.599 24.3437 115.624 24.1655 115.624 23.956V17.3331C115.512 17.2359 115.347 17.0658 115.128 16.8229C114.91 16.58 114.61 16.2318 114.231 15.7803H117.981L122.139 21.9215L122.182 17.8878C122.182 17.6691 122.166 17.4758 122.135 17.3077C122.104 17.1397 122.063 17.0152 122.014 16.9322C121.926 16.8543 121.791 16.7277 121.606 16.5526C121.42 16.3775 121.158 16.1194 120.818 15.7793H124.479C124.261 16.0131 124.084 16.1963 123.951 16.3299C123.817 16.4636 123.71 16.5729 123.63 16.6579C123.55 16.7429 123.49 16.8128 123.451 16.8654C123.412 16.9191 123.376 16.9747 123.341 17.0334V17.0193C123.274 17.2086 123.239 17.498 123.239 17.8878V28.5151L116.682 18.6975L116.681 18.6965ZM127.615 26.108H127.629L127.615 26.1222V26.108Z" fill="#FEC049"/>
<path d="M131.677 17.3478L134.187 28.625H134.077L130.613 23.1984L128.483 23.2349L127.702 23.2491C127.664 23.3705 127.619 23.494 127.571 23.6175C127.522 23.741 127.474 23.8645 127.425 23.9859C127.333 24.2339 127.297 24.4475 127.316 24.6277C127.316 24.7056 127.336 24.7694 127.377 24.821C127.419 24.8727 127.458 24.9223 127.498 24.9708C127.604 25.1024 127.76 25.232 127.965 25.3616C128.169 25.4901 128.385 25.6743 128.613 25.9122H124.646C124.675 25.8241 124.711 25.7533 124.755 25.6966C124.798 25.6409 124.851 25.5772 124.912 25.5073C124.972 25.4365 125.047 25.3443 125.137 25.23C125.228 25.1156 125.336 24.9587 125.462 24.7593V24.7735C125.545 24.6763 125.646 24.5133 125.765 24.2845C125.884 24.0558 126.002 23.7865 126.118 23.4748C126.318 22.8178 126.567 22 126.866 21.0201C127.166 20.0403 127.528 18.8479 127.956 17.4419L126.957 15.7789H127.869C128.117 15.7789 128.348 15.7768 128.563 15.7718C128.776 15.7667 128.991 15.7647 129.205 15.7647H131.057C131.48 15.7647 132 15.7596 132.618 15.7495L131.677 17.3468V17.3478ZM130.285 22.2055L129.133 18.8651C128.987 19.2589 128.861 19.6385 128.757 20.0029C128.653 20.3673 128.544 20.7448 128.429 21.1335C128.315 21.5222 128.204 21.8795 128.097 22.2055H130.286H130.285Z" fill="#FEC049"/>
<path d="M143.757 15.7793V20.1481C142.941 18.898 142.245 18.0426 141.671 17.5811C141.097 17.1195 140.478 16.8877 139.812 16.8877C139.146 16.8877 138.635 17.0618 138.222 17.409C137.809 17.7562 137.512 18.2542 137.332 18.901C137.254 19.232 137.19 19.5731 137.138 19.9254C137.088 20.2776 137.062 20.6339 137.062 20.9943C137.032 22.2778 137.255 23.2809 137.729 24.0026C138.202 24.7243 138.892 25.0715 139.797 25.0421C140.176 25.0421 140.555 24.9743 140.934 24.8377C140.934 23.3932 140.918 22.629 140.887 22.544C140.855 22.459 140.787 22.3861 140.682 22.3253C140.578 22.2646 139.981 21.962 138.892 21.4174H144.049C143.587 22.3365 143.489 23.6007 143.757 25.2102C142.372 25.8276 140.981 26.1364 139.585 26.1364C139.118 26.1364 138.695 26.1009 138.316 26.0311C137.936 25.9602 137.587 25.8661 137.269 25.7466C136.95 25.6272 136.66 25.4825 136.398 25.3124C136.135 25.1423 135.884 24.9531 135.646 24.7435C135.175 24.3346 134.8 23.868 134.523 23.3426C134.183 22.6766 134.012 21.9174 134.012 21.0671C134.012 19.5934 134.53 18.3392 135.565 17.3037C136.625 16.2773 137.941 15.7651 139.511 15.7651C139.768 15.7651 140.002 15.7763 140.212 15.7975C140.421 15.8188 140.625 15.8451 140.824 15.8745C141.023 15.9129 141.369 16.0273 141.859 16.2176H141.845C142.054 16.2955 142.218 16.3553 142.337 16.3968C142.457 16.4383 142.526 16.4585 142.545 16.4585C142.623 16.4585 142.697 16.4109 142.767 16.3168C142.838 16.2216 142.917 16.0435 143.004 15.7803H143.755L143.757 15.7793Z" fill="#FEC049"/>
<path d="M149.054 16.8877V20.2209C149.282 20.2108 149.483 20.1541 149.655 20.0499C149.827 19.9456 149.996 19.7978 150.162 19.6085C150.327 19.4193 150.5 19.1864 150.68 18.9121C150.861 18.6378 151.069 18.32 151.308 17.9606V23.5481C151.128 23.2809 150.969 23.04 150.83 22.8264C150.691 22.6128 150.563 22.4175 150.443 22.2423C150.324 22.0672 150.204 21.9174 150.082 21.7939C149.961 21.6704 149.827 21.5692 149.681 21.4913C149.52 21.3992 149.312 21.3425 149.054 21.3232V23.7303C149.054 23.9884 149.059 24.1898 149.068 24.3356C149.078 24.4814 149.092 24.5785 149.111 24.6271V24.613C149.131 24.6717 149.17 24.7203 149.228 24.7587H149.214C149.287 24.7972 149.437 24.8174 149.666 24.8174H150.213C150.611 24.8174 150.979 24.7648 151.314 24.6605C151.649 24.5563 151.999 24.3943 152.365 24.1757C152.729 23.957 153.126 23.3345 153.554 22.3081L153.547 25.9258H144.925C145.236 25.6677 145.506 25.4541 145.735 25.2841C145.963 25.114 146.118 24.944 146.201 24.7739C146.231 24.7152 146.245 24.4581 146.245 24.0006V17.6985C146.245 17.49 146.242 17.324 146.238 17.2025C146.233 17.081 146.226 16.996 146.215 16.9474L146.23 16.9616C146.21 16.9231 146.174 16.8745 146.12 16.8158C146.013 16.7136 145.862 16.581 145.668 16.418C145.473 16.2551 145.225 16.0374 144.924 15.7651H153.319V20.0681C152.93 18.9789 152.668 18.3433 152.535 18.1611C152.401 17.9789 152.252 17.8058 152.089 17.6428C151.926 17.4798 151.767 17.3482 151.612 17.249C151.456 17.1488 151.284 17.0679 151.093 17.0041C150.986 16.9747 150.821 16.9484 150.597 16.9241C150.374 16.8998 150.087 16.8877 149.737 16.8877H149.052H149.054Z" fill="#FEC049"/>
<path d="M158.551 21.8926L158.537 23.9424V24.4637C158.537 24.6023 158.549 24.7005 158.573 24.7592C158.632 24.7977 158.753 24.905 158.938 25.0801C159.122 25.2552 159.419 25.5326 159.827 25.9111H154.474C154.717 25.7016 154.913 25.5356 155.061 25.4111C155.209 25.2866 155.328 25.1854 155.418 25.1044C155.508 25.0244 155.572 24.9647 155.611 24.9252C155.651 24.8858 155.679 24.8402 155.699 24.7866C155.719 24.738 155.735 24.6469 155.747 24.5133C155.759 24.3796 155.765 24.1883 155.765 23.9403V17.7547C155.765 17.5067 155.759 17.3143 155.747 17.1787C155.735 17.0431 155.719 16.955 155.699 16.9165L155.656 16.873C155.588 16.8244 155.462 16.7151 155.276 16.5451C155.091 16.375 154.824 16.1199 154.474 15.7788H159.106C160.233 15.7788 161.092 15.8638 161.681 16.0339C161.958 16.1169 162.22 16.2465 162.468 16.4236C162.716 16.6007 162.925 16.7991 163.096 17.0178C163.465 17.4996 163.65 18.0634 163.65 18.7102C163.65 19.0898 163.575 19.4481 163.425 19.7862C163.274 20.1243 163.064 20.4219 162.797 20.68C162.681 20.7923 162.333 21.0474 161.754 21.4462L163.694 27.4497L163.65 27.5519L158.85 21.921L158.551 21.8916V21.8926ZM158.536 16.8882V20.4765H158.631C159.219 20.4765 159.657 20.4289 159.944 20.3338C160.23 20.2387 160.445 20.0656 160.585 19.8125C160.736 19.5352 160.811 19.1677 160.811 18.7112C160.811 18.0836 160.666 17.6231 160.377 17.3295C160.087 17.036 159.625 16.8882 158.987 16.8882H158.535H158.536ZM158.747 24.9698C158.718 24.9505 158.692 24.9262 158.667 24.8969C158.643 24.8675 158.621 24.8412 158.601 24.8169C158.631 24.8797 158.679 24.9313 158.747 24.9698Z" fill="#FEC049"/>
<path d="M168.376 24.0007C168.376 24.438 168.39 24.7063 168.42 24.8034V24.7893C168.42 24.7994 168.422 24.8034 168.427 24.8034C168.432 24.8034 168.434 24.8085 168.434 24.8176C168.453 24.8419 168.553 24.931 168.733 25.0838C168.913 25.2367 169.236 25.513 169.702 25.9118H164.239C164.696 25.5029 165.012 25.2255 165.184 25.0767C165.356 24.929 165.455 24.8419 165.479 24.8176C165.489 24.7984 165.504 24.7791 165.523 24.7589C165.542 24.7204 165.552 24.4674 165.552 24.0007V17.7128C165.552 17.2847 165.538 17.0154 165.509 16.9031L165.458 16.8595C165.531 16.9081 165.579 16.9425 165.604 16.9618C165.628 16.981 165.603 16.9597 165.527 16.896C165.451 16.8332 165.311 16.7158 165.108 16.5457C164.903 16.3757 164.614 16.1277 164.239 15.8018H169.702C169.386 16.0892 169.14 16.3018 168.965 16.4405C168.79 16.5791 168.669 16.6733 168.601 16.7209C168.62 16.7107 168.625 16.7128 168.616 16.7249C168.606 16.7371 168.586 16.7553 168.554 16.7796C168.523 16.8039 168.495 16.8332 168.47 16.8666C168.446 16.901 168.429 16.9324 168.42 16.9618C168.39 17.0104 168.376 17.2614 168.376 17.7128V24.0007ZM165.298 16.7431C165.317 16.7624 165.337 16.7796 165.357 16.7937C165.377 16.8079 165.395 16.8251 165.415 16.8443C165.348 16.8059 165.308 16.7715 165.299 16.7421L165.298 16.7431ZM165.327 24.9856C165.308 25.0049 165.3 25.015 165.305 25.015C165.31 25.015 165.322 25.0049 165.342 24.9856H165.327ZM168.617 24.9856C168.525 24.9371 168.464 24.8885 168.435 24.8399C168.454 24.8591 168.478 24.8814 168.508 24.9057C168.537 24.93 168.574 24.9563 168.617 24.9856Z" fill="#FEC049"/>
<path d="M175.209 14.6325V18.7988C175.495 18.7867 175.746 18.7158 175.961 18.5842C176.177 18.4537 176.388 18.2695 176.595 18.0326C176.801 17.7957 177.017 17.5052 177.242 17.1621C177.466 16.8189 177.728 16.4221 178.026 15.9717V22.956C177.801 22.622 177.602 22.3214 177.429 22.0531C177.256 21.7859 177.095 21.543 176.946 21.3233C176.797 21.1047 176.647 20.9174 176.495 20.7625C176.343 20.6077 176.176 20.4812 175.994 20.384C175.793 20.2686 175.532 20.1987 175.209 20.1744V23.1838C175.209 23.5057 175.215 23.7577 175.227 23.9409C175.24 24.1231 175.258 24.2446 175.282 24.3053V24.2871C175.306 24.36 175.355 24.4207 175.428 24.4693H175.41C175.501 24.5179 175.689 24.5422 175.974 24.5422H176.659C177.157 24.5422 177.616 24.4774 178.035 24.3458C178.454 24.2152 178.893 24.0128 179.348 23.7395C179.805 23.4662 180.3 22.6878 180.834 21.4053L180.825 25.9279H170.048C170.437 25.606 170.775 25.3388 171.06 25.1252C171.346 24.9127 171.54 24.7001 171.644 24.4865C171.681 24.4136 171.699 24.0917 171.699 23.5198V15.6427C171.699 15.3816 171.696 15.1751 171.69 15.0222C171.684 14.8704 171.674 14.7641 171.662 14.7034L171.681 14.7216C171.656 14.673 171.611 14.6123 171.544 14.5394C171.41 14.4119 171.222 14.2459 170.979 14.0424C170.736 13.839 170.426 13.5667 170.049 13.2266H180.544V18.6065C180.057 17.2451 179.731 16.4505 179.564 16.2217C179.397 15.994 179.211 15.7784 179.007 15.5749C178.804 15.3715 178.604 15.2075 178.41 15.083C178.215 14.9585 178 14.8562 177.762 14.7773C177.628 14.7408 177.422 14.7074 177.143 14.6771C176.863 14.6467 176.504 14.6315 176.067 14.6315H175.209V14.6325Z" fill="#FEC049"/>
</svg>
