<svg width="233" height="259" viewBox="0 0 233 259" fill="none" xmlns="http://www.w3.org/2000/svg">
<path fill-rule="evenodd" clip-rule="evenodd" d="M229.505 66.3037L227.693 63.0662C225.355 59.1513 222.058 55.8975 218.114 53.6128L131.257 3.49648C127.324 1.21406 122.86 0.00802897 118.312 0H114.558C110.011 0.00802897 105.546 1.21406 101.614 3.49648L14.7567 53.7423C10.8341 56.0119 7.57587 59.2715 5.30722 63.1957L3.495 66.4332C1.21354 70.3679 0.00802555 74.8344 0 79.3832V179.745C0.00802555 184.295 1.21354 188.761 3.495 192.695L5.30722 195.933C7.6345 199.811 10.8797 203.058 14.7567 205.386L101.743 255.502C105.656 257.832 110.134 259.042 114.688 258.999H118.312C122.86 258.991 127.324 257.785 131.257 255.502L218.114 205.257C222.075 203.038 225.346 199.766 227.563 195.803L229.505 192.566C231.759 188.62 232.962 184.161 233 179.616V79.2537C232.992 74.7049 231.787 70.2384 229.505 66.3037ZM114.558 25.8999H118.312L194.167 69.6707L116.5 114.478L38.8333 69.6707L114.558 25.8999ZM129.444 226.624L205.169 182.853L207.111 179.616V92.0741L129.444 137.01V226.624Z" fill="#5DA2FF"/>
</svg>
